<svg width="1043" height="888" viewBox="0 0 1043 888" fill="none" xmlns="http://www.w3.org/2000/svg">
<g clip-path="url(#clip0_31_810)">
<path d="M1025.88 378.617C1027.36 379.627 1028.68 380.936 1029.75 382.507C1034.23 389.183 1032.46 398.252 1025.79 402.74C1019.11 407.228 1010.05 405.451 1005.56 398.776C1004.5 397.186 1003.79 395.484 1003.41 393.727L994.084 399.991C994.738 401.637 995.58 403.245 996.608 404.778C1004.42 416.41 1020.16 419.495 1031.79 411.679C1043.41 403.862 1046.5 388.117 1038.68 376.485C1037.65 374.952 1036.48 373.568 1035.21 372.334L1025.88 378.599V378.617Z" fill="black"/>
<path d="M890.177 619C911.324 607.171 918.882 580.431 907.059 559.274C895.235 538.118 868.507 530.556 847.359 542.385C826.212 554.214 818.654 580.954 830.478 602.111C842.301 623.267 869.029 630.829 890.177 619Z" fill="#FCC786"/>
<path d="M1014.7 432.005C1011.28 428.938 1011 423.665 1014.07 420.243C1017.13 416.821 1022.4 416.54 1025.82 419.607C1029.24 422.674 1029.52 427.947 1026.46 431.369C1023.39 434.792 1018.12 435.072 1014.7 432.005Z" fill="#FCC786"/>
<path d="M847.392 343.162C869.299 339.871 945.355 348.473 948.346 350.362C950.626 351.802 976.215 391.221 996.495 420.467C987.299 425.255 978.103 430.06 968.906 434.848C950.383 411.548 928.477 384.826 926.29 384.171C924.252 383.573 863.878 379.272 863.878 379.272L847.878 426.9C847.878 426.9 879.168 500.409 876.346 501.251C862.757 502.765 852.944 502.896 839.355 504.411C827.299 476.96 808.439 429.892 808.065 423.067C807.766 417.513 823.019 370.445 829.318 344.677L847.355 343.144L847.392 343.162Z" fill="black"/>
<path d="M983.71 424.002C985.467 427.087 987.262 430.135 989.037 433.202C989.934 434.735 990.813 436.269 991.71 437.802C992.028 438.344 992.308 438.98 992.738 439.448C993.766 440.588 995.093 440.214 996.383 439.878C999.729 439.018 1003.02 437.97 1006.33 436.979C1007.92 436.512 1009.49 436.044 1011.09 435.633C1011.86 435.427 1012.61 435.24 1013.37 435.053C1014.21 434.848 1015.43 434.361 1016.31 434.418C1017.45 434.511 1018.16 436.867 1018.53 437.952C1018.61 438.157 1018.42 438.494 1018.64 438.157C1018.5 438.382 1017.88 438.606 1017.65 438.756C1017.28 438.98 1016.91 439.223 1016.55 439.448C1015.07 440.383 1013.6 441.318 1012.12 442.253C1005.5 446.498 999 450.911 992.607 455.511C993.075 455.642 993.542 455.754 994.009 455.885C988.477 448.05 983.654 439.616 978.888 431.295C978.271 430.229 977.673 429.182 977.075 428.097C976.738 427.48 975.785 426.32 975.785 425.61C975.691 425.853 975.579 426.096 975.486 426.339C975.916 425.834 977 425.61 977.617 425.367C978.383 425.049 979.149 424.731 979.916 424.413C981.374 423.815 982.85 423.216 984.308 422.599C985.505 422.113 984.981 420.131 983.766 420.636C981.392 421.608 979.019 422.581 976.645 423.553C975.019 424.226 973.019 424.75 974.084 426.881C975.149 429.051 976.42 431.126 977.635 433.221C980.869 438.831 984.215 444.403 987.654 449.901C989.131 452.257 990.626 454.613 992.234 456.895C992.533 457.306 993.149 457.605 993.635 457.269C999.542 453.024 1005.56 448.91 1011.67 444.964C1013.13 444.011 1014.61 443.076 1016.08 442.141C1016.83 441.673 1017.56 441.206 1018.31 440.757C1018.91 440.383 1019.69 440.065 1020.14 439.541C1021.26 438.27 1020.1 435.988 1019.39 434.792C1018.98 434.1 1018.5 433.389 1017.86 432.903C1016.91 432.155 1016.05 432.417 1014.93 432.66C1011.41 433.389 1007.97 434.399 1004.55 435.427C1002.91 435.932 1001.24 436.437 999.598 436.905C998.776 437.148 997.934 437.372 997.112 437.615C996.383 437.821 994.794 438.588 994.159 437.971C993.766 437.597 993.505 436.83 993.243 436.362C992.776 435.558 992.308 434.754 991.86 433.969C989.748 430.322 987.579 426.676 985.505 423.011C984.85 421.87 983.093 422.898 983.748 424.039L983.71 424.002Z" fill="black"/>
<path d="M1017.71 434.754C1008.91 440.701 999.916 446.367 990.738 451.734C989.598 452.388 990.626 454.165 991.766 453.491C1000.94 448.125 1009.93 442.458 1018.74 436.512C1019.82 435.783 1018.79 434.006 1017.71 434.754Z" fill="black"/>
<path d="M1011.21 433.95C1010.66 434.623 1010.23 435.39 1010.01 436.231C1009.77 437.092 1009.75 437.952 1009.88 438.831C1009.92 439.074 1010.16 439.317 1010.35 439.448C1010.57 439.579 1010.89 439.635 1011.13 439.541C1011.37 439.466 1011.62 439.317 1011.75 439.074C1011.88 438.812 1011.9 438.569 1011.84 438.288C1011.9 438.625 1011.84 438.326 1011.84 438.251C1011.84 438.176 1011.84 438.083 1011.84 438.008C1011.84 437.84 1011.84 437.671 1011.84 437.503C1011.84 437.428 1011.88 437.335 1011.86 437.26C1011.86 437.316 1011.86 437.353 1011.84 437.41C1011.84 437.372 1011.84 437.335 1011.86 437.279C1011.9 437.11 1011.92 436.942 1011.97 436.792C1012.01 436.624 1012.07 436.475 1012.12 436.306C1012.12 436.269 1012.14 436.25 1012.16 436.213C1012.2 436.138 1012.16 436.175 1012.12 436.306C1012.16 436.269 1012.2 436.138 1012.23 436.082C1012.31 435.932 1012.38 435.783 1012.48 435.652C1012.51 435.577 1012.57 435.502 1012.63 435.446C1012.64 435.409 1012.68 435.371 1012.7 435.353C1012.61 435.483 1012.59 435.502 1012.66 435.409C1012.83 435.184 1012.96 434.979 1012.96 434.679C1012.96 434.436 1012.85 434.137 1012.66 433.95C1012.29 433.613 1011.58 433.501 1011.22 433.95H1011.21Z" fill="black"/>
<path d="M996.888 447.937C994.327 446.554 991.28 446.498 988.663 447.732C988.159 447.956 988.047 448.685 988.289 449.134C988.589 449.639 989.187 449.733 989.691 449.508C991.598 448.611 993.99 448.704 995.86 449.714C996.346 449.976 996.962 449.826 997.261 449.34C997.542 448.872 997.374 448.199 996.888 447.937Z" fill="black"/>
<path d="M999.224 434.866C997.822 436.811 997.822 439.747 999.28 441.673C999.598 442.103 1000.18 442.365 1000.68 442.047C1001.09 441.785 1001.39 441.112 1001.06 440.645C1000.91 440.458 1000.78 440.252 1000.66 440.046C1000.61 439.934 1000.55 439.822 1000.5 439.71C1000.59 439.897 1000.48 439.616 1000.44 439.56C1000.36 439.336 1000.31 439.092 1000.27 438.868C1000.25 438.756 1000.25 438.7 1000.27 438.849C1000.27 438.793 1000.27 438.737 1000.27 438.681C1000.27 438.55 1000.27 438.419 1000.27 438.307C1000.27 438.195 1000.27 438.083 1000.27 437.97C1000.27 437.914 1000.27 437.858 1000.27 437.802C1000.27 437.69 1000.29 437.634 1000.27 437.783C1000.31 437.54 1000.36 437.316 1000.42 437.092C1000.46 436.979 1000.5 436.886 1000.53 436.774C1000.57 436.662 1000.46 436.923 1000.53 436.736C1000.55 436.68 1000.59 436.643 1000.61 436.587C1000.72 436.362 1000.85 436.138 1001 435.932C1001.32 435.502 1001.09 434.773 1000.63 434.53C1000.1 434.249 999.561 434.436 999.224 434.904V434.866Z" fill="black"/>
<path d="M1003.43 433.67C1002.1 435.97 1002.38 438.849 1003.99 440.906C1004.33 441.336 1005.09 441.28 1005.43 440.906C1005.84 440.458 1005.78 439.915 1005.43 439.466C1005.47 439.523 1005.49 439.541 1005.43 439.466C1005.39 439.41 1005.35 439.373 1005.34 439.317C1005.28 439.223 1005.21 439.111 1005.15 439.018C1005.09 438.906 1005.04 438.775 1004.96 438.662C1004.89 438.532 1005.02 438.812 1004.96 438.662C1004.94 438.606 1004.93 438.55 1004.91 438.494C1004.83 438.27 1004.76 438.045 1004.72 437.802C1004.72 437.746 1004.7 437.69 1004.68 437.634C1004.68 437.615 1004.64 437.428 1004.68 437.54C1004.68 437.671 1004.68 437.466 1004.68 437.447C1004.68 437.372 1004.68 437.297 1004.68 437.223C1004.68 436.979 1004.68 436.736 1004.68 436.493C1004.68 436.437 1004.68 436.381 1004.68 436.306C1004.68 436.194 1004.68 436.213 1004.68 436.306C1004.7 436.194 1004.72 436.063 1004.76 435.951C1004.81 435.708 1004.91 435.465 1004.98 435.222C1004.93 435.353 1005.02 435.072 1004.98 435.222C1005 435.166 1005.04 435.109 1005.06 435.053C1005.11 434.941 1005.19 434.81 1005.24 434.698C1005.5 434.231 1005.35 433.557 1004.87 433.296C1004.38 433.034 1003.77 433.165 1003.47 433.67H1003.43Z" fill="black"/>
<path d="M993.916 434.922C992.009 436.774 991.617 439.971 993.037 442.234C993.318 442.683 993.953 442.907 994.439 442.608C994.888 442.309 995.112 441.692 994.813 441.206C994.738 441.093 994.682 440.981 994.626 440.869C994.589 440.813 994.57 440.738 994.533 440.682C994.477 440.588 994.495 440.607 994.533 440.682C994.439 440.439 994.364 440.214 994.308 439.953C994.308 439.878 994.271 439.822 994.271 439.747C994.271 439.728 994.234 439.541 994.271 439.672C994.29 439.822 994.271 439.579 994.271 439.56C994.271 439.504 994.271 439.448 994.271 439.392C994.271 439.13 994.271 438.849 994.29 438.588C994.29 438.438 994.252 438.756 994.29 438.606C994.29 438.531 994.308 438.475 994.327 438.401C994.346 438.27 994.383 438.157 994.42 438.027C994.458 437.896 994.495 437.783 994.533 437.671C994.551 437.615 994.57 437.559 994.589 437.522C994.533 437.653 994.57 437.578 994.589 437.503C994.701 437.279 994.832 437.054 994.962 436.849C994.962 436.849 995.075 436.68 995 436.774C994.925 436.886 995.056 436.699 995.075 436.68C995.168 436.568 995.262 436.475 995.374 436.381C995.748 436.007 995.766 435.315 995.374 434.941C994.963 434.567 994.346 434.548 993.934 434.941L993.916 434.922Z" fill="black"/>
<path d="M989.561 432.379C987.224 434.324 984.757 436.119 982.196 437.746C981.729 438.045 981.542 438.644 981.822 439.149C982.084 439.616 982.757 439.803 983.224 439.523C985.935 437.802 988.533 435.895 991 433.838C991.43 433.483 991.355 432.753 991 432.398C990.589 431.987 989.991 432.043 989.561 432.398V432.379Z" fill="black"/>
<path d="M977.729 426.489C979.785 429.817 981.86 433.165 983.916 436.493C984.607 437.615 986.364 436.587 985.673 435.465C983.617 432.136 981.542 428.789 979.486 425.46C978.794 424.338 977.037 425.367 977.729 426.489Z" fill="black"/>
<path d="M857.561 504.673C858.551 508.263 859.467 511.872 860.402 515.463C860.851 517.146 861.28 518.829 861.748 520.512C861.822 520.755 861.991 521.129 861.972 521.39C861.953 522.195 860.477 522.718 859.86 523.073C858.365 523.934 856.85 524.756 855.318 525.579C852.271 527.206 849.206 528.814 846.252 530.591C845.486 531.058 844.72 531.526 843.972 531.993C843.374 532.367 842.626 532.741 842.14 533.246C841.617 533.788 841.523 534.611 841.579 535.341C841.673 536.986 842.252 539.099 843.467 540.277C844.252 541.044 845.019 540.838 846.009 540.614C847.804 540.202 849.598 539.791 851.411 539.398C859.561 537.603 867.748 536.032 875.991 534.705C876.57 534.611 876.794 533.938 876.701 533.452C875.766 527.973 874.402 522.55 873.075 517.146C871.673 511.442 870.252 505.739 868.589 500.129C868.421 499.549 868.29 498.838 867.879 498.39C867.131 497.586 866.103 498.072 865.262 498.427C862.608 499.53 859.972 500.634 857.318 501.737C856.122 502.242 856.645 504.205 857.86 503.7C859.393 503.065 860.925 502.429 862.458 501.793C863.15 501.494 863.86 501.213 864.551 500.914C865.206 500.634 866.271 499.942 866.981 499.998C866.738 499.904 866.495 499.792 866.252 499.699C866.682 500.035 866.832 501.456 866.981 501.98C867.262 502.971 867.542 503.944 867.804 504.935C868.458 507.328 869.075 509.722 869.692 512.134C871 517.239 872.252 522.363 873.393 527.524C873.879 529.674 874.346 531.844 874.701 534.013C874.944 533.601 875.168 533.171 875.411 532.76C868.421 533.901 861.449 535.191 854.514 536.668C852.776 537.042 851.056 537.416 849.318 537.79C848.589 537.958 847.879 538.108 847.15 538.276C846.72 538.37 846.29 538.482 845.86 538.576C845.579 538.65 845.28 538.706 845 538.781C844.664 538.837 844.645 538.875 844.944 538.912C844.009 538.389 843.355 535.696 843.598 534.742C843.636 534.593 843.748 534.48 843.561 534.723C843.71 534.518 844.084 534.387 844.29 534.237C844.925 533.826 845.561 533.414 846.196 533.022C847.729 532.087 849.28 531.189 850.851 530.329C853.636 528.796 856.458 527.337 859.243 525.785C860.533 525.074 862.14 524.401 863.243 523.391C864.159 522.531 864.065 521.465 863.785 520.362C863.393 518.885 863 517.407 862.608 515.949C861.579 512.022 860.57 508.076 859.505 504.168C859.15 502.896 857.187 503.439 857.542 504.71L857.561 504.673Z" fill="black"/>
<path d="M843.561 537.734C853.991 535.733 864.364 533.396 874.645 530.703C875.916 530.366 875.374 528.403 874.103 528.74C863.822 531.414 853.449 533.77 843.019 535.771C841.729 536.014 842.271 537.977 843.561 537.734Z" fill="black"/>
<path d="M847.075 532.648C847.075 532.648 847.187 532.648 847.243 532.666L846.981 532.629C847.299 532.666 847.617 532.741 847.916 532.853C847.991 532.872 848.065 532.91 848.14 532.947C848.271 533.003 848.065 532.91 848.047 532.91C848.065 532.91 848.121 532.947 848.14 532.947C848.29 533.022 848.439 533.097 848.57 533.171C848.701 533.246 848.832 533.34 848.963 533.433C849 533.452 849.019 533.471 849.056 533.489C849.15 533.564 848.85 533.321 849 533.452C849.056 533.489 849.112 533.545 849.168 533.601C849.299 533.714 849.411 533.826 849.523 533.938C849.579 533.994 849.617 534.05 849.673 534.106C849.71 534.144 849.729 534.181 849.766 534.219C849.841 534.312 849.598 534.013 849.729 534.162C849.897 534.387 850.065 534.555 850.346 534.63C850.589 534.705 850.907 534.667 851.131 534.536C851.355 534.406 851.542 534.181 851.598 533.919C851.654 533.676 851.654 533.358 851.505 533.134C850.981 532.442 850.364 531.844 849.598 531.395C848.832 530.965 847.991 530.722 847.131 530.628C846.888 530.609 846.57 530.759 846.402 530.927C846.234 531.096 846.084 531.395 846.103 531.657C846.103 531.918 846.196 532.199 846.402 532.386C846.607 532.573 846.832 532.648 847.131 532.685L847.075 532.648Z" fill="black"/>
<path d="M869.056 530.946C869.094 530.796 869.15 530.647 869.206 530.497C869.224 530.422 869.262 530.348 869.28 530.273C869.355 530.067 869.206 530.441 869.28 530.236C869.393 529.974 869.523 529.731 869.673 529.487C869.822 529.226 869.991 528.964 870.178 528.721C870.308 528.553 870.065 528.852 870.215 528.683C870.252 528.627 870.29 528.59 870.346 528.534C870.439 528.422 870.551 528.309 870.664 528.197C870.869 527.992 871.075 527.786 871.299 527.58C871.355 527.524 871.411 527.487 871.486 527.431C871.654 527.3 871.337 527.543 871.523 527.393C871.636 527.318 871.748 527.225 871.879 527.15C872.122 526.982 872.383 526.832 872.645 526.701C872.776 526.626 872.925 526.552 873.056 526.496C872.925 526.533 872.944 526.533 873.056 526.496C873.131 526.458 873.224 526.439 873.318 526.402C873.823 526.215 874.215 525.691 874.028 525.149C873.86 524.663 873.318 524.252 872.776 524.439C870.065 525.411 867.935 527.618 867.112 530.385C866.963 530.89 867.299 531.526 867.822 531.638C868.365 531.769 868.907 531.47 869.075 530.927L869.056 530.946Z" fill="black"/>
<path d="M855.673 524.775C855.916 524.813 856.159 524.869 856.402 524.962C856.458 524.962 856.514 525 856.57 525.018C856.607 525.018 856.645 525.037 856.682 525.056C856.645 525.037 856.589 525.018 856.551 525C856.664 525.056 856.776 525.112 856.888 525.168C857.112 525.28 857.299 525.411 857.505 525.561C857.318 525.411 857.673 525.673 857.505 525.561C857.542 525.598 857.598 525.635 857.635 525.673C857.729 525.748 857.822 525.841 857.916 525.935C857.991 526.009 858.084 526.103 858.159 526.196C858.196 526.234 858.234 526.29 858.271 526.327C858.178 526.196 858.159 526.178 858.215 526.252C858.215 526.271 858.252 526.309 858.271 526.327C858.421 526.533 858.533 526.739 858.645 526.944C858.664 527 858.701 527.057 858.72 527.094C858.72 527.131 858.757 527.169 858.776 527.206C858.72 527.057 858.701 527.019 858.738 527.094C858.776 527.206 858.832 527.337 858.869 527.449C858.944 527.692 859 527.935 859.037 528.197C859.075 528.422 859.318 528.702 859.505 528.814C859.729 528.945 860.047 529.001 860.29 528.908C860.533 528.833 860.776 528.683 860.907 528.44C861.037 528.179 861.056 527.935 861 527.655C860.682 525.28 858.607 523.186 856.252 522.812C855.972 522.774 855.729 522.774 855.467 522.924C855.262 523.055 855.056 523.298 855 523.541C854.888 524.027 855.15 524.7 855.71 524.794L855.673 524.775Z" fill="black"/>
<path d="M851.86 526.888C851.991 526.926 852.103 526.963 852.234 527C852.29 527.019 852.364 527.038 852.421 527.075C852.215 526.982 852.607 527.15 852.421 527.075C852.645 527.187 852.85 527.281 853.056 527.412C853.168 527.487 853.28 527.561 853.374 527.636C853.206 527.487 853.561 527.767 853.374 527.636C853.43 527.674 853.467 527.711 853.523 527.767C853.71 527.935 853.897 528.104 854.047 528.291C854.084 528.328 854.122 528.366 854.159 528.422C854.178 528.459 854.215 528.496 854.234 528.515C854.215 528.478 854.178 528.44 854.159 528.403C854.234 528.515 854.308 528.609 854.383 528.721C854.514 528.927 854.645 529.151 854.757 529.375C854.757 529.394 854.794 529.525 854.832 529.525C854.776 529.375 854.757 529.357 854.813 529.469C854.813 529.488 854.813 529.506 854.832 529.525C854.869 529.656 854.925 529.768 854.963 529.899C855 530.03 855.037 530.142 855.056 530.273C855.056 530.329 855.075 530.385 855.093 530.441C855.093 530.516 855.131 530.778 855.093 530.46C855.131 530.74 855.187 530.965 855.393 531.189C855.561 531.357 855.86 531.507 856.122 531.488C856.626 531.47 857.206 531.04 857.131 530.46C856.963 529.114 856.439 527.917 855.561 526.907C854.757 525.972 853.636 525.261 852.421 524.943C851.897 524.813 851.299 525.112 851.168 525.654C851.056 526.196 851.336 526.757 851.879 526.907L851.86 526.888Z" fill="black"/>
<path d="M860.009 521.129C860.14 521.129 860.29 521.129 860.421 521.129C860.458 521.129 860.626 521.147 860.626 521.147C860.626 521.147 860.365 521.11 860.589 521.147C860.85 521.185 861.093 521.26 861.336 521.353C861.393 521.372 861.467 521.409 861.523 521.428C861.486 521.428 861.449 521.39 861.411 521.372C861.449 521.372 861.486 521.409 861.542 521.428C861.654 521.484 861.766 521.54 861.879 521.596C861.991 521.652 862.103 521.727 862.196 521.783C862.252 521.821 862.308 521.858 862.365 521.895C862.383 521.914 862.421 521.933 862.439 521.951C862.495 521.989 862.477 521.97 862.365 521.895C862.439 521.895 862.589 522.082 862.645 522.138C862.738 522.232 862.832 522.307 862.907 522.4C863 522.494 863.075 522.606 863.168 522.718C862.981 522.531 863.131 522.681 863.168 522.718C863.206 522.774 863.243 522.83 863.28 522.886C863.355 522.999 863.411 523.092 863.467 523.204C863.505 523.279 863.636 523.466 863.636 523.541C863.579 523.41 863.561 523.391 863.598 523.447C863.598 523.485 863.617 523.504 863.636 523.541C863.654 523.597 863.673 523.672 863.692 523.728C863.729 523.859 863.766 523.99 863.804 524.121C863.916 524.644 864.551 525 865.056 524.831C865.598 524.644 865.897 524.139 865.766 523.578C865.206 520.979 862.645 518.997 859.991 519.034C859.467 519.034 858.944 519.502 858.963 520.044C858.981 520.586 859.411 521.073 859.991 521.073L860.009 521.129Z" fill="black"/>
<path d="M861.28 516.248C864.477 515.968 867.673 515.481 870.813 514.789C871.355 514.677 871.673 514.041 871.523 513.537C871.374 512.976 870.813 512.714 870.271 512.826C867.299 513.48 864.308 513.948 861.28 514.228C860.738 514.285 860.271 514.659 860.271 515.238C860.271 515.743 860.738 516.304 861.28 516.267V516.248Z" fill="black"/>
<path d="M863.542 502.204C864.439 506.019 865.337 509.853 866.215 513.667C866.514 514.939 868.477 514.397 868.178 513.125C867.28 509.31 866.383 505.477 865.505 501.662C865.206 500.391 863.243 500.933 863.542 502.204Z" fill="black"/>
<path d="M871.598 257.816C879.075 255.572 886.794 255.254 893.28 259.593C899.766 263.931 905.224 270.102 911 275.357C914.009 278.106 916.963 278.461 918.981 281.995C921 285.529 922.514 303.986 913.785 301.574C905.224 303.126 901.804 297.497 895.224 291.794C891.224 295.403 892.832 306.585 889.486 310.812C888.047 312.625 886.944 311.634 885.15 313.093C883.355 314.552 882.421 313.504 882.944 315.748C896.738 314.477 910.458 310.756 922.514 303.967C923.785 307.277 926.103 310.232 927.374 313.542C927.729 314.439 929.654 317.88 925.71 318.048C924.738 318.086 927.71 318.142 926.907 318.703C911.449 329.025 874.421 337.347 875.542 338.001C873.449 342.04 877.187 353.503 875.093 357.542C874.383 358.926 833.224 357.15 822.252 354.906C828.047 337.291 832.178 312.812 834.065 296.226C834.682 290.784 837.168 287.138 839.991 282.444C842.813 277.75 843.505 268.176 848.944 268.756C852.028 269.092 860.701 275.899 863.523 277.189C866.346 278.48 868.495 278.012 871.449 277.096C874.402 276.18 877.729 274.048 876.215 271.336C875.617 270.252 871.318 268.307 870.551 267.334C868.159 264.343 870.907 261.687 871.766 257.947L871.598 257.779V257.816Z" fill="#FCC786"/>
<mask id="mask0_31_810" style="mask-type:luminance" maskUnits="userSpaceOnUse" x="822" y="256" width="107" height="103">
<path d="M871.598 257.816C879.075 255.572 886.794 255.254 893.28 259.593C899.766 263.931 905.224 270.102 911 275.357C914.009 278.106 916.963 278.461 918.981 281.995C921 285.529 922.514 303.986 913.785 301.574C905.224 303.126 901.804 297.497 895.224 291.794C891.224 295.403 892.832 306.585 889.486 310.812C888.047 312.625 886.944 311.634 885.15 313.093C883.355 314.552 882.421 313.504 882.944 315.748C896.738 314.477 910.458 310.756 922.514 303.967C923.785 307.277 926.103 310.232 927.374 313.542C927.729 314.439 929.654 317.88 925.71 318.048C924.738 318.086 927.71 318.142 926.907 318.703C911.449 329.025 874.421 337.347 875.542 338.001C873.449 342.04 877.187 353.503 875.093 357.542C874.383 358.926 833.224 357.15 822.252 354.906C828.047 337.291 832.178 312.812 834.065 296.226C834.682 290.784 837.168 287.138 839.991 282.444C842.813 277.75 843.505 268.176 848.944 268.756C852.028 269.092 860.701 275.899 863.523 277.189C866.346 278.48 868.495 278.012 871.449 277.096C874.402 276.18 877.729 274.048 876.215 271.336C875.617 270.252 871.318 268.307 870.551 267.334C868.159 264.343 870.907 261.687 871.766 257.947L871.598 257.779V257.816Z" fill="white"/>
</mask>
<g mask="url(#mask0_31_810)">
<path d="M891.262 248.167C887.748 251.926 884.234 255.703 880.72 259.462C877.374 263.052 874.065 266.773 870.121 269.747C866.346 272.608 862.028 274.665 857.635 276.423C853.206 278.199 848.72 279.863 844.215 281.434C838.925 283.285 833.542 284.856 828.009 285.754C827.15 285.885 827.505 287.194 828.364 287.063C838.271 285.473 847.766 281.752 857.056 278.106C861.374 276.404 865.654 274.515 869.467 271.86C873.43 269.13 876.757 265.651 880.028 262.155C884.084 257.816 888.14 253.459 892.196 249.121C892.794 248.485 891.841 247.513 891.243 248.167H891.262Z" fill="white"/>
<path d="M898.514 255.628C882.514 272.645 861.579 284.838 838.925 290.522C832.477 292.149 825.878 293.234 819.243 293.757C818.383 293.832 818.364 295.179 819.243 295.122C842.888 293.234 865.841 284.351 884.664 269.934C889.953 265.895 894.907 261.425 899.467 256.582C900.065 255.946 899.112 254.974 898.514 255.628Z" fill="white"/>
<path d="M909.766 258.19C900.981 268.232 890.271 276.404 878.551 282.724C866.701 289.12 853.897 293.683 840.813 296.805C833.374 298.582 825.822 299.891 818.215 300.788C817.355 300.882 817.355 302.247 818.215 302.154C831.804 300.545 845.28 297.684 858.196 293.14C870.963 288.652 883.224 282.556 894.103 274.459C900.159 269.952 905.748 264.847 910.72 259.163C911.299 258.508 910.346 257.536 909.766 258.209V258.19Z" fill="white"/>
<path d="M919.056 267.652C907.449 278.18 894.178 286.801 879.897 293.234C865.579 299.685 850.234 303.949 834.626 305.744C825.935 306.754 817.15 306.978 808.421 306.436C807.542 306.38 807.542 307.745 808.421 307.801C824.234 308.792 840.178 307.184 855.505 303.238C870.776 299.293 885.467 293.028 898.832 284.651C906.346 279.938 913.449 274.571 920.028 268.606C920.682 268.026 919.71 267.054 919.075 267.652H919.056Z" fill="white"/>
<path d="M920.533 276.049C911.636 289.008 897.299 296.805 883.056 302.584C866.533 309.297 849.187 314.047 831.561 316.721C821.561 318.235 811.467 319.077 801.355 319.264C800.477 319.264 800.477 320.648 801.355 320.629C819.579 320.292 837.748 317.805 855.374 313.205C864.196 310.905 872.869 308.063 881.355 304.734C888.738 301.817 896.028 298.526 902.776 294.3C910.14 289.681 916.794 283.94 921.729 276.741C922.234 276.011 921.056 275.338 920.551 276.049H920.533Z" fill="white"/>
<path d="M925.336 287.979C914.495 298.582 901.393 306.679 887.393 312.438C872.178 318.684 855.953 322.2 839.636 323.939C830.047 324.967 820.421 325.397 810.776 325.472C809.897 325.472 809.897 326.837 810.776 326.837C828.14 326.706 845.579 325.397 862.551 321.601C877.785 318.198 892.626 312.7 906.009 304.603C913.336 300.171 920.178 294.935 926.29 288.951C926.907 288.334 925.953 287.381 925.336 287.998V287.979Z" fill="white"/>
<path d="M931.579 305.37C918.14 316.104 901.336 321.171 884.738 324.593C875.878 326.426 866.925 327.885 857.991 329.343C847.972 330.97 837.897 332.429 827.766 333.195C816.383 334.056 804.907 334.018 793.579 332.373C792.72 332.242 792.364 333.551 793.224 333.682C813.523 336.617 834.047 334.486 854.178 331.325C863.505 329.867 872.85 328.315 882.121 326.501C890.664 324.836 899.187 322.817 907.393 319.9C916.421 316.683 925.019 312.326 932.514 306.342C933.206 305.8 932.234 304.846 931.561 305.389L931.579 305.37Z" fill="white"/>
<path d="M911.131 326.202C896.72 331.007 881.822 334.261 866.72 335.888C851.71 337.496 836.514 337.515 821.505 335.944C812.981 335.047 804.514 333.625 796.178 331.681C795.318 331.475 794.963 332.803 795.822 332.99C810.664 336.43 825.879 338.244 841.112 338.45C856.346 338.637 871.598 337.216 886.533 334.186C895 332.466 903.336 330.241 911.523 327.511C912.346 327.23 911.991 325.921 911.168 326.202H911.131Z" fill="white"/>
<path d="M886.607 343.611C886.963 343.555 887.392 343.518 887.467 343.48C887.467 343.48 887.542 343.48 887.561 343.48C887.318 343.742 886.869 342.096 887.243 342.246C887.243 342.246 887.392 342.227 887.149 342.265C886.196 342.452 885.243 342.77 884.308 342.975C879.935 343.929 875.523 344.677 871.093 345.313C856.701 347.37 841.991 348.267 827.505 346.977C818.944 346.21 810.364 344.621 802.364 341.442C801.561 341.124 801.206 342.433 802.009 342.751C817.149 348.772 834.215 349.464 850.308 348.679C862.009 348.118 873.86 346.753 885.318 344.153C886.084 343.985 887.299 343.892 887.953 343.424C888.589 342.957 888.234 342.171 887.505 342.134C887.093 342.115 886.626 342.246 886.234 342.321C885.374 342.47 885.748 343.779 886.589 343.63L886.607 343.611Z" fill="white"/>
<path d="M886.215 353.26C886.57 353.204 887 353.167 887.075 353.129C887.075 353.129 887.15 353.129 887.168 353.129C886.925 353.391 886.477 351.746 886.851 351.895C886.851 351.895 887 351.876 886.757 351.914C885.804 352.101 884.85 352.419 883.916 352.624C879.542 353.578 875.131 354.326 870.701 354.962C856.308 357.019 841.598 357.916 827.112 356.626C818.551 355.86 809.972 354.27 801.972 351.091C801.168 350.773 800.813 352.082 801.617 352.4C816.757 358.421 833.822 359.113 849.916 358.328C861.617 357.767 873.467 356.402 884.925 353.803C885.692 353.634 886.907 353.541 887.561 353.073C888.196 352.606 887.841 351.82 887.112 351.783C886.701 351.764 886.234 351.895 885.841 351.97C884.981 352.12 885.355 353.429 886.196 353.279L886.215 353.26Z" fill="white"/>
</g>
<path d="M889.131 215.76C888.589 221.146 886.832 235.395 886.271 240.762C885.991 243.548 885.654 246.484 884.028 248.766C881.374 252.506 876.234 253.31 871.673 253.796C870.57 257.928 869.991 262.211 869.953 266.493C869.953 267.241 869.991 268.045 870.495 268.587C870.906 269.036 871.561 269.167 872.159 269.298C875.43 269.971 875.71 274.515 872.551 275.6C870.776 276.217 868.869 276.479 867 276.404C862.402 276.18 858.103 274.141 854.159 271.766C853.598 271.43 853 271.056 852.663 270.476C852.252 269.765 852.29 268.887 852.346 268.064C852.832 261.145 853.804 254.245 855.243 247.457C851.991 247.569 848.57 245.68 847.523 242.576C846.495 239.49 848.607 235.545 851.86 235.264C852.514 235.208 853.28 235.264 853.71 234.741C853.935 234.46 854.009 234.105 854.084 233.75C854.794 229.804 856.701 216.995 857.411 213.049C868.813 206.597 878.533 207.738 888.551 214.994L889.131 215.704V215.76Z" fill="white"/>
<path d="M888.121 215.76C887.561 221.258 886.869 226.718 886.234 232.216C885.935 234.759 885.635 237.321 885.374 239.864C885.019 243.193 884.813 246.914 882.196 249.364C879.449 251.926 875.28 252.412 871.71 252.805C871.262 252.861 870.85 253.085 870.72 253.553C870.084 255.984 869.617 258.471 869.318 260.977C869.168 262.248 869.056 263.538 869 264.829C868.963 265.876 868.832 267.054 869.112 268.082C869.561 269.765 871.075 270.158 872.57 270.457C873.748 270.7 875.131 271.112 874.925 272.627C874.813 273.505 874.084 273.879 873.355 274.235C872.271 274.74 871.056 275.076 869.878 275.282C867.467 275.675 865 275.338 862.682 274.646C860.364 273.954 858.178 272.907 856.065 271.729C855.168 271.224 853.748 270.682 853.43 269.616C853.112 268.55 853.486 266.998 853.579 265.913C854.103 259.817 855 253.777 856.271 247.793C856.402 247.157 855.991 246.503 855.28 246.503C852.234 246.54 848.533 244.652 848.327 241.248C848.252 239.808 848.832 238.312 849.897 237.321C850.383 236.872 850.963 236.536 851.617 236.405C852.364 236.255 853.131 236.368 853.841 236.012C855.019 235.414 855.112 234.124 855.318 232.964C855.505 231.861 855.692 230.739 855.86 229.617C856.308 226.793 856.757 223.951 857.187 221.127C857.598 218.547 857.991 215.966 858.439 213.385C858.103 213.629 857.785 213.89 857.449 214.133C867.635 213.872 877.243 208.093 887.523 209.496C888.813 209.664 889.355 207.701 888.065 207.532C877.486 206.111 867.878 211.833 857.467 212.095C857.056 212.095 856.57 212.394 856.477 212.843C855.505 218.36 854.72 223.913 853.841 229.449C853.654 230.608 853.467 231.767 853.262 232.927C853.224 233.132 853.206 233.338 853.149 233.525C852.963 234.124 852.794 234.217 852.196 234.273C851.43 234.348 850.738 234.46 850.047 234.778C847.206 236.087 845.71 239.659 846.514 242.632C847.542 246.428 851.579 248.579 855.299 248.522C854.963 248.092 854.645 247.662 854.308 247.232C853.075 253.104 852.178 259.032 851.617 265.016C851.411 267.278 850.664 270.27 852.645 271.953C854.551 273.58 857.243 274.721 859.561 275.675C864.308 277.619 869.635 278.218 874.402 275.974C876.14 275.151 877.299 273.636 876.925 271.654C876.626 270.065 875.411 268.98 873.878 268.625C873.224 268.475 872.495 268.438 871.86 268.195C870.458 267.69 871.037 265.147 871.093 263.95C871.299 260.603 871.841 257.311 872.701 254.076C872.364 254.319 872.047 254.581 871.71 254.824C875.168 254.45 878.813 253.983 881.841 252.15C885.168 250.131 886.551 246.765 887.056 243.043C887.897 237.022 888.439 230.945 889.131 224.905C889.486 221.856 889.86 218.808 890.159 215.742C890.29 214.433 888.252 214.451 888.121 215.742V215.76Z" fill="black"/>
<path d="M853.822 235.788C860.234 231.786 865.486 218.247 870.458 212.544C869.486 214.938 871.168 217.836 873.598 218.734C876.009 219.631 878.794 218.865 880.907 217.387C880.103 220.304 882.813 223.614 885.841 223.39C885.935 225.129 886.701 226.812 887.972 228.009C886.944 230.159 890.327 225.148 890.907 220.061C891.336 216.247 891.43 212.301 890.215 208.673C888.981 205.045 886.234 201.754 882.533 200.726C881.336 200.389 880.065 200.314 878.869 199.94C875.523 198.912 873.206 195.901 870.178 194.125C864.888 191.039 857.411 192.535 853.71 197.397C852.327 199.23 851.336 201.511 849.336 202.633C847.897 203.418 846.196 203.456 844.57 203.531C837.71 203.83 830.421 205.232 825.579 210.094C819.411 216.303 818.308 236.498 824.589 242.595C825.075 243.062 825.598 243.511 825.916 244.109C826.607 245.418 826.084 247.083 825.168 248.242C824.234 249.401 822.963 250.205 821.841 251.178C817.785 254.693 815.991 260.64 817.449 265.801C818.888 270.981 823.505 275.132 828.794 276.03C828.29 278.405 829.336 281.041 831.336 282.425C833.336 283.809 836.178 283.846 838.215 282.519C841.542 280.368 842.065 275.712 844.495 272.57C845.804 270.887 847.636 269.691 849.318 268.363C850.234 267.634 851.131 266.848 851.636 265.782C852.009 264.997 852.14 264.118 852.252 263.258C852.832 259.256 853.393 255.254 853.972 251.234C854.047 250.748 853.598 250.168 853.879 249.757C855.692 247.139 853.449 247.587 852.813 247.363C849.953 246.353 848.252 245.923 847.636 242.969C846.85 239.173 849.262 235.077 852.981 236.124L853.785 235.732L853.822 235.788Z" fill="black"/>
<path d="M863.673 253.777C866.439 254.45 869.299 254.843 872.14 254.918C873.449 254.955 873.449 252.917 872.14 252.88C869.467 252.805 866.813 252.449 864.215 251.814C862.944 251.496 862.402 253.459 863.673 253.777Z" fill="black"/>
<path d="M867.449 233.226C867.449 233.226 867.262 233.357 867.187 233.432C867.112 233.506 867.037 233.6 866.981 233.693C866.906 233.806 866.85 233.955 866.813 234.086C866.813 234.124 866.813 234.142 866.794 234.18C866.776 234.292 866.757 234.404 866.757 234.535C866.757 234.554 866.757 234.591 866.757 234.61C866.757 234.722 866.776 234.853 866.813 234.965C866.832 235.115 866.906 235.246 866.963 235.376C866.981 235.433 867.019 235.489 867.056 235.545C867.131 235.657 867.224 235.788 867.318 235.881C867.392 235.956 867.486 236.031 867.579 236.087C867.598 236.087 867.635 236.124 867.654 236.124C867.766 236.181 867.86 236.218 867.972 236.255C868.084 236.293 868.215 236.293 868.327 236.311C868.477 236.311 868.645 236.311 868.794 236.255C868.963 236.199 869.112 236.124 869.243 235.994C869.374 235.863 869.449 235.713 869.505 235.545C869.523 235.414 869.561 235.264 869.561 235.133C869.561 235.002 869.542 234.853 869.505 234.722C869.505 234.666 869.486 234.628 869.467 234.572C869.411 234.441 869.374 234.311 869.299 234.198C869.224 234.086 869.149 233.974 869.056 233.88C869.019 233.843 868.981 233.806 868.944 233.768C868.85 233.675 868.738 233.6 868.626 233.525C868.514 233.45 868.383 233.413 868.252 233.357C868.121 233.319 867.991 233.301 867.841 233.357C867.71 233.357 867.579 233.394 867.467 233.469C867.355 233.525 867.262 233.619 867.187 233.731C867.093 233.824 867.037 233.937 867 234.086C867 234.18 866.981 234.273 866.963 234.348C866.963 234.535 867.019 234.703 867.093 234.872C867.149 234.946 867.206 235.002 867.262 235.077C867.392 235.208 867.542 235.283 867.71 235.339C867.71 235.339 867.729 235.339 867.748 235.339C867.673 235.302 867.579 235.264 867.505 235.246C867.561 235.264 867.635 235.302 867.692 235.358C867.617 235.302 867.561 235.246 867.486 235.189C867.542 235.227 867.598 235.283 867.635 235.358C867.579 235.283 867.523 235.227 867.467 235.152C867.523 235.208 867.561 235.283 867.579 235.358L867.486 235.115C867.486 235.115 867.542 235.264 867.542 235.339C867.542 235.246 867.523 235.152 867.505 235.077C867.505 235.152 867.505 235.208 867.505 235.283L867.542 235.021C867.542 235.021 867.542 235.04 867.542 235.059C867.785 234.815 868.009 234.591 868.252 234.348C868.234 234.348 868.215 234.348 868.178 234.348C868.271 234.348 868.364 234.329 868.439 234.311C868.402 234.311 868.364 234.311 868.308 234.311L868.57 234.348C868.57 234.348 868.477 234.348 868.439 234.311C868.514 234.348 868.607 234.385 868.682 234.404C868.645 234.385 868.589 234.367 868.551 234.329C868.626 234.385 868.682 234.441 868.757 234.498C868.701 234.46 868.664 234.404 868.626 234.367C868.682 234.441 868.738 234.498 868.794 234.572C868.757 234.516 868.72 234.46 868.682 234.385C868.72 234.46 868.757 234.554 868.776 234.628C868.738 234.554 868.72 234.498 868.72 234.423C868.72 234.516 868.738 234.61 868.757 234.685C868.757 234.628 868.757 234.572 868.757 234.498L868.72 234.759C868.72 234.759 868.738 234.666 868.757 234.628C868.72 234.703 868.682 234.797 868.664 234.872C868.664 234.834 868.701 234.797 868.72 234.759C868.664 234.834 868.607 234.89 868.551 234.965C868.57 234.928 868.607 234.909 868.626 234.89C868.551 234.946 868.495 235.002 868.421 235.059C868.421 235.059 868.439 235.059 868.458 235.04C868.57 234.984 868.664 234.89 868.738 234.778C868.832 234.685 868.888 234.572 868.925 234.423C868.963 234.292 868.981 234.161 868.925 234.011C868.925 233.88 868.888 233.75 868.813 233.637C868.682 233.413 868.458 233.226 868.196 233.17L867.935 233.132C867.748 233.132 867.579 233.189 867.411 233.263L867.449 233.226Z" fill="black"/>
<path d="M881.804 233.226C881.804 233.226 881.617 233.357 881.542 233.432C881.467 233.506 881.393 233.6 881.336 233.693C881.262 233.806 881.206 233.955 881.168 234.086C881.168 234.124 881.168 234.142 881.15 234.18C881.131 234.292 881.112 234.404 881.112 234.535C881.112 234.554 881.112 234.591 881.112 234.61C881.112 234.722 881.131 234.853 881.168 234.965C881.187 235.115 881.262 235.246 881.318 235.376C881.336 235.433 881.374 235.489 881.411 235.545C881.486 235.657 881.579 235.788 881.673 235.881C881.748 235.956 881.841 236.031 881.935 236.087C881.953 236.087 881.991 236.124 882.009 236.124C882.122 236.181 882.215 236.218 882.327 236.255C882.439 236.293 882.57 236.293 882.682 236.311C882.832 236.311 883 236.311 883.15 236.255C883.318 236.199 883.467 236.124 883.598 235.994C883.729 235.863 883.804 235.713 883.86 235.545C883.879 235.414 883.916 235.264 883.916 235.133C883.916 235.002 883.897 234.853 883.86 234.722C883.86 234.666 883.841 234.628 883.822 234.572C883.766 234.441 883.729 234.311 883.654 234.198C883.579 234.086 883.505 233.974 883.411 233.88C883.374 233.843 883.336 233.806 883.299 233.768C883.206 233.675 883.093 233.6 882.981 233.525C882.869 233.45 882.738 233.413 882.608 233.357C882.477 233.319 882.346 233.301 882.196 233.357C882.065 233.357 881.935 233.394 881.822 233.469C881.71 233.525 881.617 233.619 881.542 233.731C881.449 233.824 881.393 233.937 881.355 234.086C881.355 234.18 881.336 234.273 881.318 234.348C881.318 234.535 881.374 234.703 881.449 234.872C881.505 234.946 881.561 235.002 881.617 235.077C881.748 235.208 881.897 235.283 882.065 235.339C882.065 235.339 882.084 235.339 882.103 235.339L881.86 235.246C881.86 235.246 881.991 235.302 882.047 235.358C881.972 235.302 881.916 235.246 881.841 235.189C881.897 235.227 881.953 235.283 881.991 235.358C881.935 235.283 881.879 235.227 881.822 235.152C881.879 235.208 881.916 235.283 881.935 235.358C881.897 235.283 881.86 235.189 881.841 235.115C881.879 235.189 881.897 235.264 881.897 235.339L881.86 235.077C881.86 235.077 881.86 235.208 881.86 235.283C881.86 235.189 881.879 235.096 881.897 235.021C881.897 235.021 881.897 235.04 881.897 235.059C882.14 234.815 882.365 234.591 882.608 234.348C882.589 234.348 882.57 234.348 882.533 234.348C882.626 234.348 882.72 234.329 882.794 234.311C882.757 234.311 882.72 234.311 882.664 234.311C882.757 234.311 882.851 234.329 882.925 234.348C882.888 234.348 882.832 234.348 882.794 234.311C882.869 234.348 882.963 234.385 883.037 234.404C883 234.385 882.944 234.367 882.907 234.329C882.981 234.385 883.037 234.441 883.112 234.498C883.056 234.46 883.019 234.404 882.981 234.367C883.037 234.441 883.093 234.498 883.15 234.572C883.112 234.516 883.075 234.46 883.037 234.385C883.075 234.46 883.112 234.554 883.131 234.628C883.093 234.554 883.075 234.498 883.075 234.423C883.075 234.516 883.093 234.61 883.112 234.685C883.112 234.628 883.112 234.572 883.112 234.498L883.075 234.759C883.075 234.759 883.093 234.666 883.112 234.628C883.075 234.703 883.037 234.797 883.019 234.872C883.019 234.834 883.056 234.797 883.075 234.759C883.019 234.834 882.963 234.89 882.907 234.965C882.925 234.928 882.963 234.909 882.981 234.89C882.907 234.946 882.85 235.002 882.776 235.059C882.776 235.059 882.794 235.059 882.813 235.04C882.925 234.984 883.019 234.89 883.093 234.778C883.187 234.685 883.243 234.572 883.28 234.423C883.318 234.292 883.336 234.161 883.28 234.011C883.28 233.88 883.243 233.75 883.168 233.637C883.037 233.413 882.813 233.226 882.551 233.17C882.458 233.17 882.365 233.151 882.29 233.132C882.103 233.132 881.935 233.189 881.766 233.263L881.804 233.226Z" fill="black"/>
<path d="M875 235.376C875.841 235.657 876.682 235.937 877.523 236.218C877.748 236.293 877.953 236.368 878.178 236.442C878.252 236.461 878.327 236.498 878.383 236.517C878.421 236.517 878.664 236.629 878.551 236.573C878.439 236.517 878.645 236.629 878.664 236.648C878.72 236.685 878.869 236.816 878.738 236.685C878.776 236.723 878.794 236.742 878.832 236.779C878.888 236.835 878.869 236.816 878.813 236.742C878.869 236.835 878.869 236.835 878.851 236.779C878.832 236.704 878.832 236.723 878.851 236.816C878.851 236.835 878.851 236.872 878.869 236.891C878.869 236.76 878.869 236.76 878.869 236.891C878.869 236.966 878.869 237.041 878.869 237.116C878.869 237.19 878.869 237.172 878.869 237.059C878.869 237.097 878.851 237.153 878.832 237.19C878.813 237.265 878.794 237.34 878.757 237.415C878.813 237.228 878.738 237.471 878.701 237.508C878.664 237.583 878.608 237.677 878.57 237.751C878.514 237.826 878.477 237.901 878.421 237.976C878.533 237.826 878.383 238.032 878.346 238.069C877.804 238.724 877.28 239.322 876.981 240.126C876.794 240.631 877.187 241.267 877.692 241.379C878.271 241.51 878.738 241.211 878.944 240.669C878.981 240.556 878.981 240.556 878.944 240.669C878.963 240.631 878.981 240.594 879 240.538C879.056 240.444 879.112 240.351 879.168 240.257C879.187 240.22 879.355 240.014 879.224 240.164C879.28 240.089 879.336 240.014 879.393 239.939C879.692 239.584 879.991 239.247 880.252 238.855C880.776 238.088 881.056 237.022 880.72 236.124C880.308 235.059 879.318 234.703 878.327 234.385C877.374 234.067 876.439 233.75 875.486 233.45C874.981 233.282 874.346 233.637 874.234 234.161C874.103 234.722 874.402 235.227 874.944 235.414L875 235.376Z" fill="black"/>
<path d="M871.393 225.765C868.794 225.129 865.897 225.97 864.121 227.99C863.766 228.383 863.692 229.037 864.121 229.43C864.514 229.785 865.187 229.86 865.561 229.43C865.729 229.224 865.916 229.037 866.121 228.869C866.178 228.813 866.234 228.775 866.308 228.719C866.364 228.663 866.402 228.645 866.308 228.719C866.421 228.645 866.533 228.551 866.664 228.476C866.888 228.327 867.112 228.196 867.355 228.084C867.411 228.065 867.467 228.027 867.523 228.009C867.355 228.084 867.542 228.009 867.579 227.99C867.71 227.934 867.841 227.897 867.972 227.859C868.234 227.784 868.477 227.71 868.738 227.672C868.794 227.672 868.869 227.653 868.925 227.635C869.093 227.597 868.682 227.653 868.981 227.635C869.112 227.635 869.224 227.616 869.355 227.616C869.635 227.616 869.916 227.616 870.196 227.616C870.252 227.616 870.327 227.616 870.383 227.635C870.271 227.635 870.29 227.635 870.383 227.635C870.533 227.672 870.682 227.691 870.832 227.728C871.355 227.859 871.953 227.56 872.084 227.018C872.196 226.494 871.935 225.896 871.374 225.765H871.393Z" fill="black"/>
<path d="M882.944 227.597C883.093 227.56 883.224 227.523 883.374 227.504C883.28 227.504 883.187 227.523 883.112 227.541C883.392 227.504 883.673 227.504 883.935 227.541C883.841 227.541 883.748 227.523 883.673 227.504C883.897 227.541 884.121 227.597 884.346 227.672C884.383 227.672 884.402 227.691 884.439 227.71C884.383 227.691 884.346 227.672 884.29 227.653C884.346 227.653 884.421 227.71 884.477 227.728C884.57 227.784 884.664 227.822 884.757 227.878C884.813 227.915 884.85 227.934 884.907 227.971C885.056 228.084 884.72 227.803 884.85 227.934C884.944 228.009 885.019 228.084 885.112 228.158C885.15 228.196 885.187 228.233 885.206 228.271C885.262 228.327 885.374 228.532 885.206 228.271C885.262 228.364 885.336 228.458 885.393 228.551C885.654 229.019 886.327 229.206 886.794 228.925C887.262 228.626 887.449 228.027 887.168 227.523C886.252 225.933 884.234 225.11 882.458 225.634C881.953 225.783 881.579 226.363 881.748 226.887C881.916 227.41 882.458 227.766 883 227.597H882.944Z" fill="black"/>
<path d="M850.776 240.313C850.776 240.313 850.551 240.22 850.701 240.276C850.738 240.276 850.757 240.313 850.794 240.313C850.869 240.351 850.925 240.388 851 240.425C851.056 240.463 851.131 240.5 851.187 240.556C851.206 240.575 851.243 240.594 851.262 240.612C851.411 240.725 851.206 240.594 851.187 240.556C851.187 240.594 851.337 240.687 851.355 240.706C851.411 240.762 851.467 240.818 851.523 240.856C851.579 240.912 851.636 240.968 851.673 241.024C851.692 241.043 851.71 241.08 851.729 241.099C851.804 241.192 851.561 240.874 851.673 241.024C851.748 241.136 851.841 241.267 851.916 241.379C851.953 241.454 851.991 241.51 852.028 241.585C852.047 241.622 852.159 241.865 852.084 241.697C852.009 241.529 852.103 241.772 852.122 241.809C852.14 241.884 852.178 241.959 852.196 242.034C852.234 242.183 852.271 242.352 852.29 242.501C852.29 242.408 852.271 242.314 852.252 242.239C852.271 242.426 852.29 242.613 852.29 242.8C852.29 243.343 852.757 243.848 853.299 243.829C853.86 243.81 854.308 243.38 854.308 242.8C854.308 241.884 854.047 240.949 853.542 240.182C853.299 239.808 853 239.434 852.645 239.154C852.215 238.799 851.804 238.555 851.28 238.35C851.056 238.256 850.701 238.35 850.495 238.462C850.29 238.593 850.084 238.836 850.028 239.079C849.972 239.341 849.991 239.64 850.122 239.864C850.271 240.108 850.477 240.22 850.738 240.332L850.776 240.313Z" fill="black"/>
<path d="M851.785 268.924C846.664 269.522 843.692 273.244 840.85 277.171C837.392 281.995 835.28 287.231 833.635 292.916C831.841 299.106 830.439 305.445 829.841 311.878C829.299 317.562 829.019 323.901 831.318 329.268C835.598 339.273 847.729 339.927 857.093 339.684C869.075 339.366 881.037 337.571 892.589 334.355C905.561 330.764 918.047 325.397 929.579 318.441C930.028 318.161 930.252 317.525 929.953 317.039C927.262 312.794 925.112 308.268 923.561 303.481C923.392 302.976 922.85 302.602 922.308 302.771C906.252 307.876 890.14 313.299 873.486 316.122C869.112 316.87 864.682 317.394 860.234 317.506C860.57 317.749 860.888 318.011 861.224 318.254C860.533 316.365 860.364 314.29 860.29 312.289C860.178 309.839 860.234 307.39 860.383 304.94C860.514 302.789 860.701 300.639 861 298.488C861.093 297.759 861.206 297.03 861.374 296.301C861.43 296.057 861.486 295.833 861.542 295.59C861.561 295.515 861.635 295.384 861.635 295.328C861.654 295.646 860.813 295.889 860.551 295.833C861.822 296.17 862.364 294.206 861.093 293.87C859.953 293.552 859.617 294.842 859.43 295.665C859.112 297.105 858.944 298.601 858.776 300.078C858.29 304.323 858.047 308.642 858.29 312.925C858.402 314.888 858.589 316.945 859.28 318.796C859.43 319.208 859.785 319.563 860.271 319.544C868.458 319.339 876.607 317.805 884.57 315.935C893.131 313.934 901.579 311.447 909.972 308.829C914.271 307.483 918.57 306.099 922.869 304.734C922.458 304.491 922.028 304.267 921.617 304.024C923.224 308.96 925.43 313.673 928.215 318.067C928.346 317.6 928.458 317.132 928.589 316.665C909.149 328.389 886.981 335.514 864.346 337.234C859.187 337.627 853.916 337.926 848.757 337.44C844.29 337.029 839.486 335.869 836.159 332.672C832.178 328.857 831.579 323.116 831.617 317.899C831.673 311.765 832.589 305.688 834.009 299.741C835.467 293.57 837.131 287.119 840.364 281.621C841.785 279.209 843.505 276.815 845.355 274.721C847.093 272.757 849.187 271.261 851.841 270.962C853.131 270.813 853.149 268.774 851.841 268.924H851.785Z" fill="black"/>
<path d="M871.953 257.947C876.514 257.798 881.075 257.424 885.617 257.891C887.878 258.134 889.972 258.658 891.953 259.761C894.533 261.201 896.925 262.996 899.187 264.904C903.935 268.905 908.439 273.225 912.869 277.545C913.953 278.61 915.037 279.676 916.103 280.742C917.131 281.771 918.121 282.949 919.28 283.828C921.654 285.586 925.019 284.164 927.617 283.622C934.907 282.107 942.178 280.574 949.467 279.059C949.037 278.723 948.607 278.405 948.178 278.068C948.252 279.863 948.346 281.64 948.421 283.435C948.458 284.333 948.495 285.23 948.551 286.128C948.589 287.007 948.888 288.26 948.682 289.101C948.533 289.681 948.196 289.662 947.673 289.83C947.374 289.924 947.093 290.017 946.813 290.111C946.103 290.373 945.411 290.672 944.738 290.99C941.71 292.43 938.907 294.262 936.009 295.927C928.832 300.003 920.85 303.182 912.477 301.443C905.841 300.078 900.103 296.151 895.224 291.588C894.271 290.691 892.832 292.13 893.785 293.028C898.421 297.366 903.785 301.144 909.935 302.92C914.514 304.229 919.336 304.285 923.972 303.219C928.178 302.247 932.159 300.396 935.935 298.32C939.149 296.544 942.234 294.487 945.542 292.878C946.234 292.542 946.925 292.243 947.654 292C948.664 291.663 949.897 291.551 950.458 290.504C950.832 289.793 950.738 288.933 950.701 288.166C950.645 287.119 950.607 286.072 950.551 285.043C950.439 282.724 950.346 280.424 950.234 278.106C950.196 277.414 949.617 276.984 948.944 277.115C942.533 278.461 936.121 279.789 929.729 281.135C928.121 281.472 926.533 281.808 924.925 282.145C923.355 282.481 921.673 283.173 920.29 282.033C919.206 281.135 918.252 280.013 917.262 279.022C916.084 277.844 914.906 276.684 913.71 275.525C909.28 271.224 904.794 266.904 900.028 262.977C896.215 259.836 892.121 256.806 887.131 256.059C882.103 255.329 877.019 255.759 871.953 255.928C870.645 255.965 870.645 258.003 871.953 257.966V257.947Z" fill="black"/>
<path d="M892.495 275.562C892.234 280.574 892.813 285.567 892.757 290.578C892.682 297.123 890.963 303.406 888.682 309.521C888.234 310.755 890.196 311.279 890.645 310.064C892.944 303.874 894.682 297.46 894.776 290.821C894.85 285.735 894.252 280.667 894.514 275.581C894.589 274.272 892.551 274.272 892.477 275.581L892.495 275.562Z" fill="black"/>
<path d="M873 337.01C871.542 340.226 873.28 344.266 874.234 347.388C875.206 350.605 877.037 355.86 872.776 357.636C870.439 358.608 867.617 358.908 865.112 359.132C862.402 359.375 859.673 359.375 856.944 359.225C851.206 358.926 845.523 357.973 839.878 356.851C833.841 355.654 827.841 354.251 821.785 353.167C821.991 353.672 822.196 354.158 822.402 354.663C824.794 349.651 826.944 344.546 828.196 339.123C829.449 333.7 830.178 328.146 831.318 322.686C831.579 321.414 829.617 320.853 829.355 322.144C828.234 327.529 827.505 332.971 826.29 338.338C825.093 343.686 823.019 348.716 820.645 353.634C820.383 354.177 820.551 354.999 821.262 355.13C832.72 357.169 843.991 360.347 855.635 361.17C861.112 361.563 866.757 361.432 872.084 359.992C874.607 359.319 876.402 357.823 877.28 355.299C877.822 353.728 877.523 351.933 877.187 350.362C876.682 348.08 875.878 345.874 875.262 343.63C874.813 342.003 874.028 339.684 874.776 338.02C875.318 336.842 873.561 335.795 873.019 336.991L873 337.01Z" fill="black"/>
<path d="M922.551 258.564L965.318 245.998C968.608 245.026 971.916 247.419 972.047 250.823L973.355 283.36C973.449 285.773 971.897 287.942 969.579 288.615L926.813 301.181C923.523 302.154 920.215 299.76 920.084 296.357L918.776 263.819C918.682 261.407 920.234 259.237 922.551 258.564Z" fill="white"/>
<path d="M923.673 302.191L882.29 314.365C881.598 312.027 882.944 309.577 885.28 308.886L920.72 298.47L923.692 302.191H923.673Z" fill="white"/>
<path d="M922.551 258.564L965.318 245.998C968.607 245.026 971.916 247.419 972.047 250.823L973.355 283.36C973.449 285.773 971.897 287.942 969.579 288.615L926.813 301.181C923.523 302.154 920.215 299.76 920.084 296.357L918.776 263.819C918.682 261.407 920.234 259.237 922.551 258.564Z" fill="white"/>
<path d="M922.813 259.537C927.15 258.265 931.505 256.975 935.841 255.703C943.243 253.534 950.664 251.346 958.065 249.177C960.29 248.522 962.495 247.868 964.72 247.213C965.206 247.064 965.71 246.896 966.196 246.821C968.701 246.465 970.85 248.392 971.019 250.841C971.411 256.582 971.486 262.342 971.71 268.082C971.86 271.71 972.009 275.357 972.14 278.984C972.178 280.106 972.234 281.228 972.271 282.35C972.308 283.211 972.383 284.052 972.103 284.875C971.318 287.231 969.112 287.661 967.056 288.26C964.346 289.064 961.617 289.849 958.907 290.653C951.43 292.86 943.935 295.048 936.458 297.254C933.804 298.04 931.168 298.806 928.514 299.592C926.29 300.246 923.953 300.994 922.121 298.881C920.738 297.273 921.037 294.655 920.944 292.673L920.514 282.089C920.271 276.049 919.972 269.99 919.785 263.95C919.729 261.912 920.832 260.172 922.794 259.537C924.028 259.125 923.505 257.162 922.252 257.573C919.523 258.471 917.692 260.902 917.729 263.8C917.729 264.324 917.766 264.829 917.785 265.352C917.916 268.55 918.047 271.748 918.178 274.945C918.458 281.864 918.738 288.783 919 295.683C919.056 296.955 919.224 298.171 919.878 299.293C921.299 301.705 924.178 302.845 926.888 302.172C928.29 301.817 929.673 301.368 931.056 300.957C938.346 298.806 945.654 296.675 952.944 294.524C958.477 292.897 964.009 291.308 969.523 289.643C972.645 288.708 974.421 286.109 974.29 282.874C974.196 280.275 974.084 277.675 973.972 275.095C973.673 267.634 973.374 260.191 973.075 252.73C973.056 252.094 973.037 251.458 973 250.823C972.85 248.335 971.411 246.129 969.056 245.194C966.813 244.296 964.738 245.063 962.589 245.699L941.972 251.758L923.262 257.255C922.907 257.349 922.57 257.461 922.215 257.554C920.963 257.928 921.486 259.892 922.757 259.518L922.813 259.537Z" fill="black"/>
<path d="M923.673 302.191L882.29 314.365C881.598 312.027 882.944 309.577 885.28 308.886L920.72 298.47L923.692 302.191H923.673Z" fill="white"/>
<path d="M923.392 301.2L909.43 305.314C902.009 307.502 894.57 309.69 887.149 311.859C885.43 312.364 883.729 312.869 882.009 313.373C882.421 313.617 882.85 313.841 883.262 314.084C882.701 312.195 883.841 310.419 885.635 309.821C886.196 309.634 886.776 309.484 887.336 309.316C889.972 308.53 892.626 307.764 895.262 306.978C902.159 304.959 909.056 302.92 915.935 300.901C917.598 300.414 919.28 299.91 920.944 299.423C920.607 299.33 920.29 299.255 919.953 299.162L922.925 302.883C923.748 303.911 925.168 302.453 924.364 301.443L921.392 297.722C921.168 297.441 920.72 297.366 920.402 297.46C915.617 298.862 910.813 300.284 906.028 301.686C899.505 303.593 893 305.52 886.477 307.427C885.972 307.577 885.467 307.707 884.963 307.876C882.159 308.792 880.402 311.709 881.262 314.608C881.411 315.131 881.972 315.487 882.514 315.318C887.168 313.953 891.822 312.588 896.477 311.204C903.897 309.016 911.336 306.829 918.757 304.659C920.477 304.154 922.178 303.65 923.897 303.145C925.15 302.771 924.626 300.807 923.355 301.181L923.392 301.2Z" fill="black"/>
<path d="M945.542 273.393C947.318 271.467 949.093 269.541 950.869 267.615L953.168 275.076L945.561 273.412L945.542 273.393Z" fill="white"/>
<path d="M946.252 274.104C948.028 272.178 949.804 270.252 951.579 268.326C951.019 268.176 950.439 268.026 949.878 267.877C950.551 270.046 951.224 272.234 951.897 274.403C951.991 274.721 952.084 275.02 952.177 275.338C952.589 274.927 953.019 274.497 953.43 274.085L946.757 272.627L945.804 272.421C945.262 272.309 944.701 272.589 944.551 273.131C944.42 273.636 944.72 274.272 945.262 274.384C947.486 274.871 949.71 275.357 951.934 275.843C952.252 275.918 952.57 275.974 952.888 276.049C953.617 276.217 954.383 275.581 954.14 274.796C953.467 272.627 952.794 270.439 952.121 268.269C952.028 267.952 951.934 267.652 951.841 267.334C951.617 266.624 950.682 266.306 950.14 266.886C948.364 268.812 946.589 270.738 944.813 272.664C944.439 273.075 944.42 273.711 944.813 274.104C945.187 274.478 945.878 274.515 946.252 274.104Z" fill="black"/>
<path d="M964.271 250.785C965.785 250.505 967.318 252.094 967.019 253.609L964.271 250.785Z" fill="white"/>
<path d="M964.551 251.758C964.551 251.758 964.608 251.758 964.626 251.758L964.365 251.795C964.551 251.776 964.72 251.776 964.907 251.795C964.813 251.795 964.72 251.776 964.645 251.758C964.85 251.795 965.037 251.832 965.224 251.926L964.981 251.832C965.187 251.926 965.374 252.038 965.542 252.169C965.467 252.113 965.411 252.057 965.336 252.001C965.523 252.15 965.692 252.319 965.822 252.487C965.766 252.412 965.71 252.356 965.654 252.281C965.785 252.449 965.897 252.636 965.991 252.842L965.897 252.599C965.972 252.786 966.028 252.992 966.065 253.179L966.028 252.917C966.047 253.104 966.047 253.272 966.028 253.459L966.065 253.197C966.065 253.197 966.065 253.291 966.047 253.347C965.991 253.628 966.009 253.889 966.14 254.132C966.271 254.338 966.514 254.544 966.757 254.6C967.019 254.656 967.318 254.637 967.542 254.506C967.748 254.376 967.953 254.151 968.009 253.889C968.122 253.328 968.122 252.749 967.916 252.206C967.729 251.683 967.449 251.215 967.056 250.823C966.664 250.411 966.196 250.149 965.673 249.944C965.131 249.738 964.57 249.738 964.009 249.831C963.766 249.869 963.523 250.093 963.393 250.299C963.262 250.523 963.206 250.841 963.299 251.084C963.374 251.327 963.523 251.571 963.766 251.701C964.028 251.832 964.271 251.851 964.551 251.795V251.758Z" fill="black"/>
<path d="M925.635 290.242C925.093 291.457 925.374 292.991 926.346 293.907C927.299 294.823 928.85 295.048 930.028 294.449L925.635 290.242Z" fill="white"/>
<path d="M924.757 289.737C924.477 290.373 924.308 291.046 924.346 291.756C924.383 292.448 924.57 293.122 924.906 293.739C925.617 294.992 926.906 295.702 928.308 295.814C929.075 295.87 929.841 295.702 930.533 295.347C931.019 295.104 931.187 294.393 930.906 293.944C930.589 293.458 930.028 293.327 929.505 293.57C929.467 293.589 929.43 293.608 929.392 293.626C929.542 293.57 929.561 293.552 929.467 293.589C929.392 293.608 929.336 293.645 929.262 293.664C929.187 293.683 929.112 293.701 929.037 293.72C929 293.72 928.738 293.757 928.925 293.739C929.112 293.739 928.832 293.739 928.813 293.739C928.72 293.739 928.645 293.739 928.551 293.739C928.495 293.739 928.421 293.739 928.364 293.739C928.327 293.739 928.271 293.739 928.234 293.739C928.402 293.757 928.421 293.757 928.308 293.739C928.159 293.701 928.009 293.683 927.878 293.645C927.822 293.626 927.766 293.608 927.692 293.589C927.598 293.552 927.617 293.552 927.766 293.626C927.729 293.626 927.692 293.589 927.654 293.57C927.523 293.514 927.392 293.439 927.262 293.346C927.056 293.215 927.262 293.309 927.262 293.346C927.262 293.346 927.093 293.196 927.075 293.178C927.019 293.122 926.963 293.065 926.925 293.009C926.906 292.991 926.888 292.953 926.869 292.935C926.794 292.86 926.813 292.878 926.906 292.991C926.906 292.972 926.682 292.654 926.663 292.617C926.645 292.579 926.589 292.411 926.551 292.392C926.551 292.43 926.589 292.467 926.607 292.523C926.607 292.486 926.57 292.448 926.57 292.411C926.514 292.261 926.477 292.13 926.458 291.981C926.458 291.887 926.439 291.626 926.458 291.943C926.458 291.887 926.458 291.813 926.458 291.756C926.458 291.607 926.458 291.457 926.458 291.308C926.458 291.27 926.458 291.214 926.458 291.177C926.439 291.345 926.439 291.364 926.458 291.252C926.458 291.195 926.477 291.121 926.495 291.065C926.514 290.99 926.533 290.896 926.57 290.821C926.589 290.765 926.701 290.485 926.57 290.765C926.682 290.504 926.757 290.26 926.663 289.98C926.607 289.737 926.421 289.494 926.196 289.363C925.748 289.138 925.037 289.213 924.794 289.737H924.757Z" fill="black"/>
<path d="M949.019 307.259C945.785 307.745 942.421 307.165 939.654 305.426C936.514 305.707 928.72 306.754 925.636 306.081C926.365 304.566 932.252 302.097 933.785 301.48C935.056 300.976 936.477 300.826 937.617 300.097C940.309 298.395 940.234 294.543 941.337 291.569C942.009 289.737 943.243 288.091 944.813 286.932C946.551 290.167 946.981 294.075 946.009 297.61C946.738 293.29 947.953 289.064 949.654 285.006C950.14 283.846 950.963 282.519 952.215 282.612C953.654 287.212 953.094 292.411 950.664 296.581C951.692 292.972 952.832 289.382 954.047 285.829C954.402 284.8 955.374 283.529 956.29 284.127C956.738 284.426 956.832 285.025 956.869 285.567C957.168 289.699 956.514 293.907 955 297.759C955.523 295.01 956.439 292.317 957.692 289.812C958.066 289.082 959.112 288.334 959.505 289.045C959.692 290.99 959.505 293.776 959.28 296.226C958.72 301.78 954.552 306.455 949.019 307.277V307.259Z" fill="white"/>
<path d="M948.738 306.286C946.308 306.623 943.71 306.342 941.486 305.276C941 305.052 940.458 304.566 939.935 304.454C939.598 304.379 939.224 304.454 938.869 304.491C938.084 304.566 937.299 304.659 936.495 304.734C934.589 304.94 932.682 305.127 930.776 305.22C929.168 305.314 927.486 305.426 925.897 305.108C926.103 305.613 926.308 306.099 926.514 306.604C926.869 305.95 927.766 305.52 928.383 305.164C929.318 304.622 930.29 304.136 931.262 303.687C932.103 303.294 932.963 302.92 933.822 302.565C935.075 302.06 936.439 301.854 937.654 301.256C939.991 300.097 940.851 297.628 941.411 295.253C942.103 292.374 942.851 289.718 945.336 287.811C944.869 287.68 944.402 287.568 943.935 287.437C945.523 290.504 945.897 294 945.019 297.329C945.673 297.516 946.327 297.684 946.981 297.871C947.449 295.16 948.084 292.467 948.944 289.849C949.355 288.578 949.804 287.306 950.308 286.053C950.626 285.249 951.131 283.641 952.196 283.641C951.86 283.398 951.542 283.136 951.206 282.893C952.533 287.306 952.028 292.056 949.766 296.076C950.383 296.338 951 296.6 951.636 296.862C952.271 294.636 952.944 292.43 953.654 290.223C953.972 289.251 954.271 288.297 954.608 287.343C954.701 287.044 955.523 284.819 955.748 285.025C955.972 285.23 955.879 286.128 955.897 286.39C955.916 286.951 955.935 287.493 955.916 288.054C955.916 289.026 955.841 289.98 955.71 290.952C955.43 293.196 954.832 295.384 954.009 297.497C954.664 297.684 955.318 297.853 955.972 298.04C956.271 296.525 956.664 295.048 957.168 293.589C957.43 292.86 957.71 292.13 958.047 291.42C958.215 291.065 958.346 290.653 958.57 290.335C958.626 290.242 958.682 290.167 958.738 290.073C959.056 289.924 959.056 289.812 958.776 289.774C958.682 289.531 958.57 289.288 958.477 289.045C958.664 291.102 958.514 293.178 958.346 295.235C958.178 297.086 957.804 298.844 956.925 300.489C955.224 303.612 952.252 305.707 948.757 306.268C947.467 306.473 948.009 308.437 949.299 308.231C955.636 307.203 959.785 301.798 960.365 295.609C960.533 293.739 960.682 291.869 960.608 289.999C960.589 289.326 960.626 288.596 960.084 288.11C959.579 287.68 958.925 287.624 958.327 287.867C956.832 288.465 956.29 290.335 955.729 291.7C954.981 293.57 954.421 295.496 954.028 297.46C953.766 298.769 955.523 299.218 955.991 298.002C957.019 295.328 957.673 292.542 957.897 289.681C958.009 288.222 958.047 286.726 957.897 285.268C957.785 284.314 957.411 283.398 956.458 283.061C953.991 282.163 953 285.791 952.458 287.399C951.486 290.354 950.551 293.327 949.71 296.301C949.393 297.404 951 298.096 951.579 297.086C954.122 292.598 954.72 287.269 953.224 282.332C953.093 281.902 952.701 281.584 952.234 281.584C949.393 281.584 948.477 285.137 947.692 287.287C946.514 290.541 945.636 293.907 945.056 297.31C944.832 298.582 946.682 299.143 947.019 297.853C948.047 293.982 947.579 289.943 945.729 286.39C945.505 285.941 944.757 285.698 944.327 286.016C941.991 287.811 940.589 290.167 939.86 293.009C939.187 295.683 938.888 298.788 935.86 299.741C933.71 300.433 931.692 301.2 929.654 302.172C928.065 302.939 925.692 303.893 924.776 305.538C924.477 306.081 924.72 306.903 925.393 307.034C929.019 307.764 933.019 307.109 936.664 306.716C937.449 306.642 938.308 306.455 939.094 306.455C939.935 306.455 940.888 307.203 941.748 307.52C944.178 308.418 946.757 308.549 949.299 308.194C950.589 308.025 950.047 306.062 948.757 306.23L948.738 306.286Z" fill="black"/>
<path d="M854.252 197.977C850.383 202.801 845 206.392 839.037 208.093C834.85 209.29 830.421 209.552 826.364 211.123C817.673 214.489 812.14 223.278 809.579 232.235C807.878 238.2 807.037 244.783 802.907 249.439C799.43 253.347 794.178 255.18 790.103 258.471C785.878 261.874 782.981 266.904 782.178 272.29C781.355 277.75 783.355 284.277 788.533 286.165C793.411 287.942 799.262 285.025 803.897 287.381C806.009 288.465 807.467 290.466 809.43 291.794C815.15 295.665 822.907 292.71 828.776 289.064C837.168 283.846 844.757 277.339 851.206 269.859C852.009 268.924 852.813 267.933 853.056 266.736C853.224 265.857 853.093 264.96 852.944 264.081C852.14 259.107 851.168 253.796 847.673 250.149C845.841 248.242 843.449 246.97 841.411 245.269C837.654 242.146 835.168 237.508 834.645 232.646L854.252 197.977Z" fill="black"/>
<path d="M864.701 202.446C859.542 198.968 852.271 199.136 847.243 202.801C845.878 203.792 844.85 205.083 843.635 206.242C842.084 207.738 840.215 208.224 838.103 208.168C836.215 208.112 834.364 207.738 832.495 207.607C830.832 207.476 829.168 207.514 827.505 207.701C821.075 208.449 814.944 211.366 810.364 215.929C804.981 221.277 803.037 228.42 800.514 235.358C797.935 242.426 792.906 251.14 784.234 250.897C783.355 250.879 783.355 252.225 784.234 252.262C790.85 252.449 796.103 247.382 799.112 241.94C802.794 235.283 803.748 227.41 807.953 220.996C811.635 215.368 817.579 211.347 824.084 209.702C827.449 208.86 830.85 208.729 834.29 209.159C837.748 209.589 841.355 210.057 844.196 207.589C845.673 206.298 846.794 204.709 848.439 203.624C849.953 202.633 851.635 201.96 853.392 201.605C857.037 200.857 860.906 201.548 863.991 203.643C864.72 204.129 865.392 202.951 864.682 202.465L864.701 202.446Z" fill="black"/>
<path d="M887.486 211.964C886.738 219.463 892.215 226.775 889.785 234.217C887.972 239.808 880.196 240.949 879.168 246.896C879.019 247.756 880.327 248.111 880.477 247.251C881 244.24 883.729 242.557 885.991 240.856C888.346 239.098 890.346 237.153 891.206 234.236C893.411 226.662 888.103 219.519 888.85 211.946C888.944 211.067 887.579 211.085 887.486 211.946V211.964Z" fill="black"/>
<path d="M850.439 202.988C851.579 200.763 851.112 198.014 850.121 195.714C847.86 190.459 842.346 186.289 836.701 187.094C830.85 187.935 826.589 194.312 827.598 200.146C828.607 205.962 834.327 210.45 840.234 210.524C844.813 210.581 849.841 207.42 849.935 202.839L850.439 202.988Z" fill="black"/>
<path d="M944.907 307.146C943.43 306.978 941.953 308.063 940.72 308.736C939.336 309.465 937.953 310.232 936.57 310.999C933.785 312.569 931.037 314.234 928.346 315.954C927.243 316.665 928.271 318.422 929.374 317.712C931.897 316.104 934.458 314.533 937.075 313.056C938.364 312.326 939.654 311.616 940.944 310.924C941.579 310.587 942.196 310.251 942.832 309.933C943.486 309.596 944.159 309.11 944.907 309.203C946.215 309.353 946.196 307.315 944.907 307.165V307.146Z" fill="black"/>
<path d="M767.617 632H973.523C977.019 632 977.019 626.558 973.523 626.558H767.617C764.122 626.558 764.122 632 767.617 632Z" fill="black"/>
<path d="M936.832 375.176C936.065 374.148 934.794 374.129 933.785 374.821C932.645 375.625 932.178 376.747 932.084 378.112C931.991 379.309 932.196 380.992 931.112 381.834C930.121 382.6 928.607 382.395 927.467 382.226C927.093 382.17 926.738 382.32 926.626 382.694C926.533 383.012 926.738 383.479 927.093 383.535C928.383 383.722 929.785 383.891 931.037 383.404C932.308 382.899 933.037 381.796 933.262 380.468C933.374 379.777 933.374 379.085 933.43 378.393C933.467 377.851 933.486 377.308 933.748 376.841C934.009 376.392 935.131 375.158 935.673 375.868C935.897 376.168 936.252 376.317 936.607 376.111C936.907 375.943 937.075 375.476 936.85 375.176H936.832Z" fill="white"/>
<path d="M836.514 428.434C836.047 427.274 837.486 426.414 838.495 426.395C839.897 426.377 841.224 427.368 842.458 427.929C844.421 428.808 847.505 428.92 848.327 426.414C848.607 425.572 847.28 425.217 847.019 426.059C846.664 427.125 845.262 427.293 844.308 427.125C842.907 426.881 841.673 425.946 840.364 425.423C839.075 424.918 837.673 424.862 836.477 425.647C835.449 426.32 834.701 427.536 835.187 428.789C835.505 429.593 836.813 429.238 836.495 428.434H836.514Z" fill="white"/>
<path d="M874.421 246.335C874.29 246.335 874.178 246.335 874.047 246.335C873.991 246.335 873.935 246.335 873.879 246.335C874.009 246.335 873.785 246.316 873.785 246.316C873.673 246.297 873.561 246.26 873.449 246.222C873.393 246.222 873.337 246.185 873.28 246.166C873.243 246.166 873.131 246.11 873.224 246.148C873 246.035 872.776 245.923 872.57 245.774C872.57 245.774 872.421 245.661 872.477 245.699C872.514 245.736 872.402 245.624 872.383 245.624C872.29 245.549 872.196 245.456 872.103 245.362C872.028 245.269 871.935 245.194 871.86 245.1C871.822 245.063 871.785 245.007 871.748 244.969C871.804 245.044 871.673 244.876 871.692 244.876C871.542 244.67 871.411 244.446 871.299 244.221C871.056 243.773 870.925 243.399 870.757 242.875C870.383 243.1 870.009 243.324 869.617 243.53C870.832 244.839 872.645 245.587 874.439 245.493C874.215 245.269 873.991 245.044 873.766 244.82C873.766 245.549 873.766 246.297 873.766 247.026C873.766 247.382 874.084 247.718 874.439 247.7C874.813 247.7 875.112 247.4 875.112 247.026C875.112 246.297 875.112 245.549 875.112 244.82C875.112 244.465 874.794 244.128 874.439 244.147C874.252 244.147 874.047 244.147 873.86 244.147C873.766 244.147 873.673 244.147 873.579 244.128C873.579 244.128 873.43 244.128 873.505 244.128C873.561 244.128 873.43 244.128 873.43 244.128C873.037 244.053 872.664 243.96 872.308 243.81C872.196 243.773 872.383 243.848 872.271 243.81C872.234 243.791 872.178 243.773 872.14 243.754C872.065 243.717 871.972 243.679 871.897 243.623C871.729 243.53 871.561 243.436 871.393 243.324C871.318 243.268 871.243 243.212 871.168 243.156C871.224 243.193 871.168 243.156 871.15 243.137C871.112 243.1 871.075 243.081 871.037 243.043C870.888 242.913 870.738 242.763 870.589 242.613C870.122 242.127 869.262 242.632 869.449 243.268C869.804 244.427 870.327 245.549 871.206 246.409C872.047 247.251 873.243 247.812 874.439 247.756C874.794 247.756 875.131 247.457 875.112 247.083C875.112 246.727 874.813 246.391 874.439 246.409L874.421 246.335Z" fill="black"/>
<path d="M870.122 210.992C869 218.229 863.972 224.661 857.112 227.317C856.308 227.635 856.664 228.944 857.467 228.626C864.738 225.802 870.234 219.089 871.43 211.347C871.561 210.487 870.252 210.132 870.122 210.992Z" fill="black"/>
<path d="M855.935 247.288C859.86 252.057 860.832 259.069 858.365 264.717C857.935 265.708 857.393 266.68 856.626 267.465C856.084 268.026 855.449 268.475 854.794 268.868C851.673 270.719 847.953 271.224 844.346 271.71C843.243 271.86 841.953 271.953 841.15 271.168C840.495 270.532 840.402 269.56 840.365 268.662C840.14 263.146 841.15 257.536 840.009 252.132L855.935 247.288Z" fill="black"/>
</g>
<g clip-path="url(#clip1_31_810)">
<path d="M831.848 69.47C833.598 65.3975 835.724 61.3529 838.544 57.9219C839.878 56.2901 841.392 54.756 843.198 53.6541C845.074 52.5105 847.825 51.3111 849.909 52.6081C851.548 53.6263 851.896 55.788 852.159 57.5454C852.437 59.47 852.396 61.9945 853.66 63.5705C855.258 65.5649 857.87 64.5189 859.634 63.3892C861.912 61.9387 864.219 60.6695 866.775 59.7908C867.998 59.3724 869.512 58.7866 870.762 59.4561C871.666 59.9442 872.193 60.9484 872.499 61.8968C873.222 64.1283 873.069 66.4157 872.694 68.689C873.013 68.438 873.347 68.1869 873.666 67.9498H830.972C829.666 67.9498 829.666 69.9721 830.972 69.9721H873.666C874.069 69.9721 874.569 69.6653 874.639 69.2329C875.014 66.9456 875.194 64.7699 874.736 62.4687C874.319 60.4324 873.305 58.3124 871.29 57.4756C868.79 56.4435 865.747 57.9219 863.469 58.9401C862.135 59.5398 860.829 60.2371 859.592 61.0182C858.592 61.6458 857.522 62.5384 856.314 62.6779C855.008 62.8173 854.799 61.3389 854.605 60.3487C854.396 59.2469 854.285 58.1172 854.118 57.0014C853.813 54.9791 853.299 52.7894 851.673 51.3947C847.63 47.9359 841.767 51.6318 838.725 54.7141C834.904 58.5635 832.223 63.5286 830.097 68.4519C829.583 69.6374 831.32 70.6695 831.834 69.47H831.848Z" fill="black"/>
</g>
<g clip-path="url(#clip2_31_810)">
<path d="M634.887 819.131L629.72 819.982L629.295 817.393C628.612 813.234 629.166 808.816 630.864 804.952C632.506 801.218 635.071 798.87 638.098 798.297C642.139 797.539 645.239 799.998 647.97 802.161C650.443 804.102 652.048 805.266 653.635 804.989C655.573 804.638 656.496 802.308 657.806 798.537C659.19 794.507 660.758 789.941 665.409 788.518C669.874 787.168 673.399 789.812 676.518 792.159C678.64 793.768 680.651 795.265 682.626 795.376C683.641 795.432 684.729 794.932 685.578 794.064C686.409 793.195 686.852 792.067 686.759 791.069L686.519 788.462L691.742 788L691.982 790.607C692.203 793.139 691.243 795.727 689.361 797.705C687.46 799.683 684.914 800.737 682.386 800.626C678.806 800.441 675.927 798.278 673.399 796.374C670.576 794.248 668.749 793.01 666.959 793.564C665.021 794.137 664.043 796.596 662.788 800.275C661.423 804.268 659.707 809.241 654.613 810.165C650.591 810.905 647.49 808.464 644.759 806.302C642.286 804.342 640.681 803.196 639.094 803.492C637.304 803.824 636.123 806.135 635.699 807.096C634.407 810.036 633.982 813.382 634.518 816.562L634.942 819.15L634.887 819.131Z" fill="#FCC786"/>
</g>
<path d="M966.503 51.2821L961.664 52L961.267 49.815C960.627 46.3035 961.146 42.5734 962.736 39.3115C964.274 36.1589 966.676 34.1768 969.51 33.693C973.294 33.0531 976.198 35.1289 978.755 36.9549C981.071 38.5937 982.574 39.5769 984.06 39.3428C985.875 39.0463 986.739 37.0797 987.966 33.8959C989.262 30.4936 990.731 26.6387 995.086 25.437C999.268 24.2977 1002.57 26.5295 1005.49 28.5116C1007.48 29.8694 1009.36 31.1335 1011.21 31.2272C1012.16 31.274 1013.18 30.8526 1013.97 30.1191C1014.75 29.3856 1015.17 28.4335 1015.08 27.5908L1014.86 25.3902L1019.75 25L1019.97 27.2006C1020.18 29.3387 1019.28 31.5237 1017.52 33.1936C1015.74 34.8636 1013.35 35.7532 1010.98 35.6595C1007.63 35.5035 1004.94 33.6775 1002.57 32.0699C999.925 30.2751 998.214 29.2295 996.537 29.6977C994.723 30.1815 993.807 32.2572 992.632 35.363C991.353 38.7341 989.746 42.9324 984.976 43.7127C981.209 44.337 978.306 42.2769 975.748 40.4509C973.433 38.7965 971.929 37.8289 970.443 38.0786C968.767 38.3595 967.661 40.3104 967.263 41.122C966.054 43.6035 965.656 46.4283 966.157 49.1127L966.555 51.2977L966.503 51.2821Z" fill="#FCC786"/>
<path d="M737 11C740.314 11 743 8.53756 743 5.5C743 2.46244 740.314 0 737 0C733.686 0 731 2.46244 731 5.5C731 8.53756 733.686 11 737 11Z" fill="#FCC786"/>
<path d="M1043 165.5C1043 168.545 1040.31 171 1037 171C1033.69 171 1031 168.53 1031 165.5C1031 162.47 1033.69 160 1037 160C1040.31 160 1043 162.47 1043 165.5Z" fill="#FCC786"/>
<path d="M210.985 794.558L208 791.29L209.641 789.789C212.266 787.381 215.658 785.739 219.174 785.176C222.565 784.629 225.425 785.364 227.222 787.256C229.613 789.774 229.301 793.104 229.035 796.044C228.785 798.702 228.707 800.375 229.645 801.376C230.786 802.596 232.864 802.189 236.146 801.376C239.647 800.5 243.6 799.515 246.757 802.173C249.773 804.722 249.523 808.459 249.289 811.743C249.133 813.995 248.992 816.121 249.836 817.56C250.258 818.295 251.117 818.858 252.118 819.045C253.118 819.233 254.118 819.045 254.79 818.514L256.54 817.138L259.275 820.625L257.525 822.001C255.837 823.33 253.555 823.846 251.274 823.408C248.992 822.97 247.07 821.657 245.992 819.796C244.476 817.169 244.679 814.135 244.866 811.446C245.069 808.475 245.101 806.583 243.897 805.567C242.6 804.456 240.397 804.894 237.209 805.692C233.739 806.552 229.426 807.631 226.425 804.441C224.05 801.923 224.347 798.593 224.628 795.653C224.878 792.995 224.956 791.322 224.019 790.321C222.956 789.211 220.784 789.414 219.893 789.57C217.22 790.008 214.642 791.243 212.641 793.073L211.001 794.574L210.985 794.558Z" fill="#FCC786"/>
<path d="M432.659 737.237C435.792 737.237 438.332 734.695 438.332 731.561C438.332 728.426 435.792 725.885 432.659 725.885C429.526 725.885 426.986 728.426 426.986 731.561C426.986 734.695 429.526 737.237 432.659 737.237Z" fill="#FCC786"/>
<path d="M524.673 887.352C527.806 887.352 530.346 884.811 530.346 881.676C530.346 878.541 527.806 876 524.673 876C521.54 876 519 878.541 519 881.676C519 884.811 521.54 887.352 524.673 887.352Z" fill="#FCC786"/>
<path d="M5.67294 724.352C8.80602 724.352 11.3459 721.811 11.3459 718.676C11.3459 715.541 8.80602 713 5.67294 713C2.53986 713 0 715.541 0 718.676C0 721.811 2.53986 724.352 5.67294 724.352Z" fill="#FCC786"/>
<path d="M826.327 815.248C829.46 815.248 832 812.706 832 809.571C832 806.437 829.46 803.895 826.327 803.895C823.194 803.895 820.654 806.437 820.654 809.571C820.654 812.706 823.194 815.248 826.327 815.248Z" fill="#FCC786"/>
<defs>
<clipPath id="clip0_31_810">
<rect width="278" height="445" fill="white" transform="translate(765 187)"/>
</clipPath>
<clipPath id="clip1_31_810">
<rect width="45" height="20" fill="white" transform="translate(830 50)"/>
</clipPath>
<clipPath id="clip2_31_810">
<rect width="63" height="32" fill="white" transform="translate(629 788)"/>
</clipPath>
</defs>
</svg>
