<svg width="484" height="591" viewBox="0 0 484 591" fill="none" xmlns="http://www.w3.org/2000/svg">
<path d="M218.073 554.603C218.551 554.353 228.563 578.132 231.931 586.188C232.568 587.712 234.229 588.554 235.845 588.19C238.007 587.69 241.011 587.007 243.354 586.438C245.311 585.983 246.449 583.958 245.812 582.046C240.965 567.21 235.527 540.313 235.094 541.155L218.073 554.58V554.603Z" fill="black"/>
<path d="M373.676 518.24C373.129 518.24 374.7 543.976 375.246 552.714C375.36 554.376 374.244 555.855 372.629 556.241C370.467 556.742 367.463 557.47 365.12 558.016C363.163 558.472 361.251 557.152 360.978 555.172C358.771 539.721 351.694 513.188 352.467 513.757L373.698 518.262L373.676 518.24Z" fill="black"/>
<path d="M159.682 418.161C150.193 421.756 143.139 431.632 143.526 441.872C143.981 453.796 154.471 464.514 166.395 465.174C172.38 487.656 192.2 559.427 202.645 563.523C210.2 566.504 389.286 524.406 391.903 519.309C395.885 511.55 373.175 423.099 373.311 410.811C373.38 405.759 392.472 406.328 393.996 385.757C395.384 366.801 392.972 361.909 375.382 354.741C371.605 353.194 358.998 365.709 355.858 363.092C353.036 360.748 360.113 260.146 342.432 238.028C299.583 184.438 136.381 223.282 123.16 294.325C119.792 312.416 157.43 366.551 167.397 394.313C170.127 401.891 168.375 410.469 162.572 416.067C161.525 417.091 160.502 417.888 159.682 418.183V418.161Z" fill="#FCC786"/>
<path d="M177.614 375.767C195.522 372.604 212.452 364.958 226.743 353.717C227.585 353.057 226.402 351.897 225.582 352.556C211.542 363.638 194.794 371.08 177.181 374.197C176.135 374.379 176.59 375.972 177.614 375.79V375.767Z" fill="white"/>
<path d="M174.951 387.873C191.403 383.754 205.694 374.22 219.529 364.776C223.17 362.296 226.811 359.816 229.496 356.243C230.134 355.401 228.7 354.559 228.063 355.401C224.945 359.542 220.303 362.25 216.071 365.118C211.77 368.03 207.423 370.92 202.986 373.628C194.089 379.044 184.668 383.709 174.519 386.257C173.495 386.508 173.927 388.101 174.951 387.85V387.873Z" fill="white"/>
<path d="M176.703 403.347C196.728 397.157 215.32 386.644 231.021 372.741C235.527 368.736 239.782 364.458 243.764 359.929C244.47 359.133 243.309 357.95 242.604 358.769C228.905 374.356 211.884 386.895 192.974 395.451C187.535 397.908 181.96 400.002 176.271 401.754C175.247 402.073 175.679 403.665 176.703 403.347Z" fill="white"/>
<path d="M180.413 418.934C204.511 411.107 227.107 398.295 246.563 382.048C252.047 377.474 257.258 372.604 262.151 367.416C262.879 366.642 261.718 365.482 260.99 366.255C243.719 384.528 222.533 399.183 199.709 409.65C193.292 412.586 186.693 415.157 179.98 417.342C178.979 417.66 179.411 419.276 180.413 418.934Z" fill="white"/>
<path d="M192.314 432.929C213.954 419.503 234.503 404.121 253.481 387.122C258.737 382.412 263.857 377.565 268.818 372.536C269.569 371.785 268.408 370.602 267.658 371.375C249.772 389.443 229.883 405.577 208.994 420.027C203.259 423.986 197.434 427.832 191.495 431.496C190.584 432.064 191.426 433.475 192.337 432.929H192.314Z" fill="white"/>
<path d="M221.964 425.943C236.05 416.09 248.52 404.098 258.942 390.444C259.579 389.603 258.146 388.783 257.508 389.603C247.268 403.028 234.958 414.838 221.145 424.51C220.28 425.124 221.1 426.558 221.987 425.943H221.964Z" fill="white"/>
<path d="M181.095 364.207C195.568 361.226 209.745 356.835 223.375 351.123C224.331 350.713 223.921 349.12 222.943 349.53C209.312 355.264 195.135 359.633 180.663 362.614C179.616 362.819 180.071 364.412 181.095 364.207Z" fill="white"/>
<path d="M218.688 275.37C222.192 284.699 225.969 294.393 233.365 301.038C236.915 304.224 241.307 306.704 243.741 310.823C246.995 316.284 245.63 324.021 240.738 328.071C236.164 331.849 228.996 332.759 226.288 338.038C225.241 340.086 225.082 342.476 224.445 344.706C223.489 348.051 221.259 351.1 218.141 352.625C215.001 354.127 210.973 353.854 208.379 351.532C204.511 348.074 205.034 341.998 205.853 336.901C206.013 335.899 206.195 334.853 206.9 334.124C207.515 333.487 208.379 333.214 209.199 332.896C216.207 330.165 220.508 322.747 221.646 315.328C222.784 307.91 221.304 300.332 219.825 292.96L218.688 275.392V275.37Z" fill="black"/>
<path d="M220.554 283.471C220.872 290.047 221.35 307.5 221.669 314.077C221.828 317.49 221.964 321.063 220.417 324.112C217.891 329.095 211.861 330.984 206.468 332.418C205.876 337.606 205.967 342.863 206.695 348.028C206.832 348.916 207.014 349.894 207.719 350.44C208.311 350.895 209.107 350.964 209.836 350.986C213.909 351.191 215.047 356.607 211.451 358.518C209.426 359.588 207.173 360.248 204.92 360.475C199.345 361.044 193.793 359.36 188.627 357.221C187.876 356.903 187.103 356.584 186.602 355.947C185.965 355.173 185.851 354.104 185.783 353.103C185.123 344.683 185.032 336.218 185.533 327.798C181.619 328.504 177.159 326.865 175.361 323.338C173.563 319.811 175.384 314.668 179.252 313.758C180.026 313.576 180.959 313.485 181.391 312.803C181.619 312.438 181.641 311.983 181.664 311.528C181.801 306.659 181.778 290.889 181.914 286.019C194.476 276.166 206.377 275.802 219.757 282.697L220.599 283.448L220.554 283.471Z" fill="white"/>
<path d="M219.302 283.471C219.621 290.183 219.78 296.896 220.007 303.609C220.121 306.727 220.212 309.844 220.349 312.962C220.531 317.126 221.009 321.859 218.141 325.295C215.206 328.8 210.359 330.097 206.104 331.212C205.535 331.371 205.262 331.872 205.193 332.418C204.852 335.649 204.716 338.88 204.875 342.112C204.943 343.545 205.057 344.979 205.216 346.412C205.353 347.687 205.421 349.166 206.035 350.326C207.037 352.17 209.039 352.192 210.882 352.283C212.316 352.352 213.818 352.921 213.681 354.673C213.613 355.742 212.68 356.311 211.838 356.835C210.586 357.631 209.221 358.223 207.788 358.655C204.829 359.52 201.666 359.542 198.64 359.042C195.704 358.564 192.837 357.631 190.084 356.539C188.741 356.015 187.421 355.651 187.08 354.104C186.739 352.602 186.784 350.918 186.716 349.371C186.284 342.203 186.306 334.989 186.716 327.821C186.761 326.934 185.897 326.501 185.146 326.615C181.505 327.207 176.726 325.432 175.952 321.427C175.611 319.72 176.089 317.809 177.181 316.466C177.682 315.875 178.296 315.374 179.025 315.101C179.889 314.782 180.822 314.76 181.596 314.236C182.916 313.326 182.825 311.71 182.847 310.254C182.87 308.889 182.893 307.546 182.893 306.181C182.916 302.654 182.938 299.104 182.961 295.577C182.961 292.391 182.961 289.228 183.075 286.042C182.779 286.452 182.461 286.838 182.165 287.248C194.407 285.086 204.852 276.439 217.527 276.234C219.12 276.212 219.12 273.731 217.527 273.754C204.579 273.936 193.998 282.651 181.505 284.836C180.959 284.927 180.617 285.519 180.595 286.042C180.413 292.914 180.481 299.786 180.413 306.659C180.413 308.069 180.39 309.48 180.367 310.891C180.367 311.096 180.367 311.323 180.367 311.528C180.276 312.393 179.935 312.302 179.207 312.484C178.228 312.734 177.318 313.076 176.499 313.69C173.541 315.92 172.539 320.312 174.087 323.657C176.112 328.049 181.323 329.733 185.806 329.004C185.282 328.595 184.759 328.208 184.236 327.798C183.826 334.966 183.803 342.18 184.236 349.348C184.395 352.01 184.008 355.833 186.511 357.563C187.717 358.382 189.265 358.86 190.63 359.36C192.223 359.952 193.861 360.475 195.5 360.885C201.666 362.41 208.539 362.25 213.886 358.45C215.638 357.199 216.639 355.287 215.957 353.125C215.342 351.168 213.658 350.008 211.656 349.849C210.882 349.78 210.109 349.826 209.335 349.735C207.401 349.507 207.628 346.299 207.514 344.82C207.15 340.701 207.219 336.559 207.651 332.441C207.355 332.85 207.037 333.237 206.741 333.647C210.791 332.577 214.956 331.348 218.255 328.663C222.01 325.614 223.034 321.108 222.943 316.466C222.806 309.162 222.397 301.834 222.169 294.53C222.055 290.866 221.941 287.18 221.759 283.516C221.691 281.923 219.211 281.923 219.279 283.516L219.302 283.471Z" fill="black"/>
<path d="M186.534 375.244C190.107 382.981 193.679 390.74 197.252 398.477C197.912 399.934 200.051 398.659 199.391 397.226C195.818 389.489 192.246 381.729 188.673 373.992C188.013 372.536 185.874 373.81 186.534 375.244Z" fill="black"/>
<path d="M211.11 422.871C215.638 424.942 220.144 427.172 224.74 429.083C226.697 429.903 228.495 429.812 230.225 428.514C231.954 427.217 233.479 425.579 235.026 424.054C241.625 417.524 247.519 410.333 253.162 402.96C256.416 398.705 259.579 394.404 262.742 390.08C263.038 389.671 262.924 388.92 262.538 388.579C260.74 386.986 258.806 385.598 256.712 384.46C255.301 383.709 254.05 385.848 255.46 386.599C257.395 387.646 259.147 388.852 260.785 390.308C260.717 389.807 260.649 389.307 260.58 388.806C255.46 395.792 250.318 402.778 244.811 409.468C242.103 412.745 239.304 415.953 236.391 419.048C234.912 420.618 233.388 422.166 231.818 423.668C230.634 424.805 228.905 427.104 227.13 427.126C225.833 427.126 224.422 426.193 223.261 425.67C222.101 425.147 220.94 424.623 219.803 424.077C217.322 422.939 214.842 421.802 212.384 420.687C210.951 420.027 209.676 422.166 211.133 422.826L211.11 422.871Z" fill="black"/>
<path d="M228.086 429.539C240.988 442.054 257.554 452.84 275.485 451.68C287.523 450.906 298.696 444.739 307.639 436.638C316.582 428.537 348.781 391.195 356.7 379.886C368.806 408.444 385.031 430.563 411.814 446.218C415.546 441.827 430.269 420.163 434.956 416.795C434.774 417.455 376.998 359.633 371.605 350.804C370.399 348.802 369.056 346.799 367.145 345.434C364.46 343.5 360.955 343.067 357.656 343.386C351.717 343.932 346.232 346.617 340.999 349.484C319.222 361.408 299.834 377.132 279.331 391.127C277.169 392.606 274.894 394.108 272.3 394.449C268.613 394.95 265.086 393.084 261.855 391.286L228.108 429.516L228.086 429.539Z" fill="black"/>
<path d="M270.411 394.336C284.178 376.45 299.515 359.861 314.807 343.272C320.132 337.515 325.593 331.644 332.579 328.071C338.154 325.204 344.412 323.976 350.556 322.769C376.998 317.604 403.417 312.461 429.859 307.296C431.02 314.532 435.798 335.877 436.959 343.113C413.043 351.965 388.558 356.197 363.049 355.583C360.841 355.537 354.788 346.071 352.74 346.89C351.148 347.528 349.828 348.665 348.576 349.803C326.39 369.805 309.118 395.291 284.519 412.199L270.434 394.29L270.411 394.336Z" fill="black"/>
<path d="M429.836 314.395C434.001 313.485 438.142 312.529 442.306 311.574C444.4 311.096 446.493 310.618 448.587 310.163C449.315 310.004 450.066 309.89 450.771 309.639C452.683 308.934 452.751 307.159 452.842 305.407C453.047 301.311 453.047 297.192 453.093 293.096C453.115 291.139 453.161 289.182 453.229 287.225C453.275 286.156 453.32 285.086 453.411 284.039C453.457 283.516 453.479 282.97 453.525 282.447C453.57 281.878 453.479 280.831 453.73 280.33C454.298 279.215 457.166 278.874 458.463 279.033C458.44 279.033 458.986 279.102 458.963 279.124C459.327 278.942 458.918 279.989 458.872 278.874C458.895 279.784 459.373 280.854 459.623 281.741C460.192 283.926 460.761 286.087 461.353 288.249C463.879 297.443 466.632 306.545 469.613 315.601C469.909 315.101 470.182 314.577 470.478 314.077C459.418 317.649 447.927 320.175 436.572 322.678C435.161 322.997 433.728 323.293 432.317 323.589C431.406 323.771 429.609 324.499 428.721 324.203C428.972 324.385 429.222 324.59 429.472 324.772C429.063 324.112 429.199 322.724 429.131 321.95C429.04 320.949 428.949 319.948 428.881 318.924C428.721 317.012 428.539 315.078 428.38 313.167C428.243 311.596 425.763 311.574 425.9 313.167C426.173 316.284 426.446 319.379 426.696 322.496C426.878 324.681 426.81 327.116 429.677 326.638C432.567 326.16 435.457 325.455 438.324 324.817C446.038 323.088 453.707 321.222 461.353 319.22C464.63 318.355 467.906 317.49 471.138 316.443C471.752 316.239 472.23 315.579 472.002 314.919C469.181 306.385 466.564 297.784 464.174 289.137C463.606 287.066 463.037 284.972 462.491 282.902C462.218 281.855 461.944 280.808 461.671 279.761C461.466 278.988 461.398 278.032 460.829 277.418C459.578 276.007 456.802 276.507 455.232 276.871C454.276 277.099 453.275 277.418 452.478 277.987C451.295 278.828 451.318 279.989 451.181 281.354C450.749 285.792 450.658 290.229 450.612 294.689C450.589 296.828 450.567 298.967 450.521 301.106C450.498 302.176 450.476 303.245 450.43 304.315C450.385 305.225 450.68 306.909 449.747 307.364C449.133 307.66 448.223 307.705 447.563 307.865C446.471 308.115 445.378 308.365 444.263 308.616C439.257 309.753 434.251 310.937 429.222 312.029C427.652 312.37 428.312 314.759 429.882 314.418L429.836 314.395Z" fill="black"/>
<path d="M181.664 313.963C188.65 307.978 192.541 290.73 197.479 282.97C196.751 286.019 199.3 289.205 202.372 289.842C205.444 290.479 208.652 289.068 210.905 286.884C210.473 290.548 214.341 294.029 217.937 293.21C218.346 295.281 219.598 297.169 221.35 298.375C220.508 301.152 223.671 294.507 223.443 288.295C223.284 283.63 222.67 278.874 220.531 274.732C218.392 270.591 214.478 267.132 209.858 266.563C208.356 266.381 206.809 266.518 205.307 266.29C201.097 265.676 197.752 262.444 193.793 260.874C186.875 258.121 178.137 261.261 174.564 267.815C173.222 270.272 172.471 273.208 170.241 274.892C168.671 276.098 166.623 276.462 164.666 276.849C156.474 278.442 147.94 281.468 143.002 288.204C136.699 296.805 139.043 321.29 147.713 327.503C148.373 327.98 149.101 328.436 149.579 329.095C150.648 330.552 150.33 332.645 149.42 334.193C148.509 335.74 147.121 336.946 145.938 338.311C141.683 343.272 140.613 350.736 143.298 356.721C145.983 362.683 152.287 366.847 158.818 366.961C158.636 369.919 160.365 372.9 163.027 374.197C165.69 375.494 169.103 375.039 171.333 373.059C174.951 369.851 174.724 364.162 177.09 359.952C178.365 357.676 180.367 355.924 182.142 354.013C183.121 352.989 184.054 351.851 184.463 350.486C184.759 349.484 184.759 348.392 184.759 347.345C184.713 342.43 184.691 337.492 184.645 332.577C184.645 331.963 184.008 331.371 184.281 330.825C185.988 327.343 183.371 328.299 182.574 328.14C178.956 327.434 176.84 327.23 175.543 323.771C173.904 319.356 176.066 313.986 180.754 314.577L181.664 313.94V313.963Z" fill="black"/>
<path d="M208.083 352.374C217.163 349.644 226.356 347.209 235.731 350.031C244.151 352.579 251.546 357.95 258.623 362.979C263.061 366.119 267.407 369.396 271.685 372.763C272.459 373.378 273.369 373.127 273.756 372.217C278.535 360.726 284.178 349.598 290.55 338.903C291.369 337.538 289.23 336.286 288.411 337.652C281.925 348.529 276.236 359.861 271.366 371.557C272.049 371.375 272.755 371.193 273.437 371.011C265.791 364.981 257.941 359.065 249.658 353.922C241.875 349.098 233.342 345.571 224.035 346.299C218.346 346.731 212.862 348.347 207.446 349.985C205.922 350.44 206.581 352.83 208.106 352.374H208.083Z" fill="black"/>
<path d="M224.467 362.478C226.993 363.593 229.565 364.526 232.227 365.254C234.912 365.982 237.62 366.255 240.351 366.801C241.898 367.12 242.49 368.076 243.286 369.373C244.037 370.602 244.788 371.83 245.516 373.059C247.086 375.676 248.679 378.27 250.25 380.887C251.069 382.252 253.208 381.001 252.389 379.636C250.773 376.95 249.157 374.265 247.519 371.58C246.722 370.283 245.949 368.963 245.152 367.666C244.47 366.551 243.741 365.459 242.513 364.89C241.352 364.321 240.032 364.276 238.758 364.094C237.324 363.889 235.914 363.616 234.503 363.274C231.476 362.569 228.541 361.59 225.696 360.339C224.24 359.702 222.988 361.841 224.445 362.478H224.467Z" fill="black"/>
<path d="M213.203 374.129L220.349 358.746C221.168 356.994 222.647 355.651 224.467 355.014L239.6 347.414C240.465 346.981 241.466 346.777 242.422 347.004C242.558 347.027 242.672 347.072 242.808 347.118C243.377 347.323 243.491 347.482 243.878 347.937C248.566 353.489 262.014 365.959 257.827 367.439C256.371 367.734 255.051 366.665 253.959 365.664C250.249 362.228 246.518 358.814 242.808 355.378C245.971 360.293 249.203 365.322 250.818 370.897C251.069 371.762 250.09 372.49 249.339 371.99C244.583 368.849 240.76 364.298 238.508 359.065C240.442 362.705 245.016 369.441 246.062 373.401C246.313 374.311 245.221 374.993 244.47 374.402C241.42 371.944 235.709 366.164 233.57 362.887C234.776 365.14 237.142 368.394 237.848 370.852C238.143 371.899 237.984 373.514 236.892 373.469C236.414 373.469 236.05 373.082 235.731 372.718C233.319 370.033 229.656 366.324 227.539 363.411C227.494 365.732 225.855 367.939 223.648 368.645C223.193 368.781 222.693 368.895 222.397 369.282C222.078 369.669 222.124 370.238 222.169 370.738C222.51 373.856 222.829 376.973 223.17 380.091L213.158 374.151L213.203 374.129Z" fill="white"/>
<path d="M214.273 374.743L219.825 362.796C220.531 361.272 221.145 359.429 222.192 358.086C223.443 356.516 225.81 355.697 227.608 354.809C231.772 352.716 235.868 350.44 240.1 348.529C240.715 348.256 241.42 348.005 242.103 348.165C242.831 348.347 243.286 349.098 243.764 349.644C244.765 350.782 245.835 351.897 246.859 353.012C249.271 355.583 251.729 358.154 254.004 360.885C255.005 362.091 255.984 363.32 256.758 364.685C257.008 365.118 257.235 365.55 257.349 366.051C257.486 366.619 257.326 366.142 257.486 366.21C257.44 366.21 256.667 366.073 256.371 365.937C255.711 365.618 255.165 365.049 254.618 364.571C253.412 363.479 252.229 362.364 251.023 361.272C248.566 358.996 246.108 356.744 243.65 354.468C242.649 353.558 240.897 354.741 241.693 355.97C243.286 358.427 244.879 360.908 246.29 363.479C246.995 364.753 247.655 366.073 248.224 367.416C248.543 368.121 248.816 368.872 249.066 369.6C249.157 369.851 249.203 370.306 249.362 370.511C249.498 370.693 250.295 371.262 249.544 370.647C247.496 368.986 245.516 367.439 243.81 365.413C242.035 363.297 240.624 360.931 239.532 358.405C238.826 358.814 238.098 359.247 237.393 359.656C238.644 362 240.078 364.23 241.398 366.528C242.08 367.734 242.763 368.94 243.4 370.169C243.65 370.647 244.652 373.401 244.925 373.378C245.198 373.355 244.174 372.559 243.969 372.354C243.537 371.967 243.104 371.58 242.695 371.193C241.648 370.215 240.647 369.214 239.668 368.19C237.87 366.324 236.05 364.389 234.616 362.228C233.729 360.908 231.704 362.068 232.477 363.479C233.433 365.186 234.525 366.801 235.458 368.531C235.913 369.35 236.414 370.238 236.619 371.148C236.687 371.444 236.619 371.785 236.687 372.058C236.573 372.377 236.619 372.399 236.824 372.058C236.687 371.921 236.573 371.785 236.46 371.648C235.39 370.101 233.797 368.781 232.546 367.393C231.18 365.891 229.815 364.367 228.609 362.728C227.881 361.75 226.379 362.068 226.288 363.365C226.197 364.867 225.378 366.278 224.058 367.052C222.92 367.734 221.486 367.734 221.009 369.214C220.531 370.715 221.145 372.786 221.304 374.311C221.509 376.222 221.714 378.134 221.919 380.022C222.078 381.593 224.558 381.615 224.399 380.022C224.194 378.111 223.99 376.2 223.785 374.311C223.694 373.355 223.58 372.399 223.489 371.444C223.375 370.374 223.284 370.033 224.331 369.646C226.97 368.622 228.609 366.119 228.768 363.343C227.995 363.547 227.221 363.752 226.447 363.957C228.085 366.21 229.974 368.258 231.84 370.283C232.75 371.262 233.661 372.24 234.571 373.241C235.322 374.06 236.255 374.88 237.461 374.561C239.691 373.947 239.281 370.988 238.644 369.396C237.62 366.824 235.936 364.594 234.616 362.182C233.911 362.592 233.183 363.024 232.477 363.434C234.321 366.21 236.687 368.667 239.031 371.034C240.146 372.149 241.284 373.241 242.467 374.265C243.514 375.198 244.765 376.336 246.244 375.449C248.907 373.833 245.744 369.123 244.743 367.325C243.104 364.276 241.193 361.408 239.554 358.359C238.781 356.926 236.778 358.177 237.415 359.611C238.803 362.796 240.738 365.709 243.104 368.258C244.242 369.487 245.471 370.579 246.791 371.603C247.86 372.445 249.203 373.742 250.659 373.128C252.024 372.581 252.206 371.262 251.865 370.01C251.365 368.212 250.591 366.46 249.794 364.753C248.11 361.226 245.994 357.927 243.878 354.627C243.218 355.128 242.581 355.628 241.921 356.129C244.31 358.336 246.7 360.544 249.089 362.751C250.295 363.843 251.478 364.958 252.684 366.051C253.64 366.915 254.596 367.848 255.825 368.303C257.167 368.804 258.919 368.736 259.625 367.302C260.125 366.278 259.761 365.14 259.306 364.162C257.941 361.204 255.483 358.678 253.344 356.288C250.841 353.489 248.179 350.827 245.698 348.028C244.287 346.458 243.15 345.297 240.829 345.662C239.85 345.821 238.985 346.253 238.121 346.708C235.64 347.96 233.16 349.189 230.68 350.44C228.518 351.532 226.356 352.67 224.172 353.717C221.759 354.855 220.098 356.311 218.961 358.746C216.685 363.638 214.409 368.531 212.134 373.423C211.474 374.857 213.613 376.131 214.273 374.675V374.743Z" fill="black"/>
<path d="M196.933 333.851C200.301 334.147 203.669 334.102 207.014 333.692C207.674 333.601 208.243 333.192 208.243 332.441C208.243 331.826 207.674 331.121 207.014 331.212C203.669 331.621 200.301 331.69 196.933 331.371C196.273 331.303 195.704 331.985 195.704 332.6C195.704 333.328 196.273 333.783 196.933 333.851Z" fill="black"/>
<path d="M198.253 305.543C198.116 305.657 198.003 305.794 197.934 305.953C197.866 306.09 197.775 306.272 197.752 306.431C197.73 306.613 197.684 306.772 197.707 306.954C197.707 307.136 197.73 307.318 197.798 307.478C197.866 307.637 197.912 307.819 198.025 307.956C198.071 308.024 198.116 308.092 198.185 308.16C198.23 308.229 198.298 308.297 198.344 308.365C198.594 308.616 198.89 308.798 199.231 308.911C199.277 308.911 199.3 308.911 199.345 308.934C199.482 308.934 199.641 308.98 199.778 308.98C199.914 308.98 200.073 308.957 200.21 308.911C200.346 308.889 200.506 308.798 200.62 308.752C200.802 308.638 200.961 308.502 201.075 308.297C201.188 308.092 201.234 307.887 201.234 307.683C201.234 307.523 201.211 307.341 201.188 307.182C201.188 307.114 201.166 307.045 201.143 307C201.097 306.841 201.029 306.704 200.938 306.545C200.847 306.385 200.733 306.272 200.642 306.158C200.506 305.976 200.324 305.839 200.119 305.726C200.073 305.703 200.005 305.657 199.96 305.635C199.8 305.566 199.641 305.498 199.482 305.452C199.322 305.407 199.163 305.384 198.981 305.452C198.822 305.452 198.663 305.498 198.526 305.589C198.39 305.657 198.276 305.771 198.185 305.908C198.071 306.021 198.003 306.158 197.957 306.34C197.957 306.454 197.934 306.568 197.912 306.659C197.912 306.886 197.98 307.091 198.071 307.296C198.23 307.569 198.503 307.796 198.822 307.865C198.89 307.865 198.936 307.887 199.004 307.91L198.708 307.796C198.708 307.796 198.867 307.887 198.936 307.933C198.845 307.865 198.776 307.796 198.685 307.728C198.754 307.796 198.822 307.842 198.89 307.933C198.822 307.842 198.754 307.774 198.685 307.683C198.731 307.751 198.776 307.842 198.822 307.91C198.776 307.819 198.731 307.705 198.708 307.614C198.754 307.705 198.776 307.796 198.776 307.887C198.776 307.774 198.754 307.66 198.731 307.569C198.731 307.614 198.731 307.66 198.731 307.705C198.936 307.341 199.14 307 199.345 306.636C199.436 306.59 199.55 306.545 199.641 306.522C199.596 306.522 199.55 306.545 199.505 306.568L199.823 306.522C199.823 306.522 199.709 306.522 199.664 306.522C199.778 306.522 199.891 306.545 199.982 306.568C199.937 306.568 199.869 306.545 199.823 306.522C199.914 306.567 200.028 306.613 200.119 306.636C200.051 306.613 199.982 306.567 199.937 306.522C200.028 306.59 200.096 306.659 200.187 306.727C200.119 306.681 200.073 306.613 200.005 306.545C200.073 306.636 200.142 306.704 200.21 306.795C200.164 306.727 200.119 306.659 200.073 306.568L200.187 306.863C200.187 306.863 200.142 306.704 200.119 306.636C200.119 306.75 200.142 306.863 200.164 306.954C200.164 306.886 200.164 306.841 200.164 306.772C200.164 306.886 200.142 307 200.119 307.091C200.119 307.045 200.119 306.977 200.164 306.932C200.119 307.023 200.073 307.136 200.028 307.227C200.028 307.182 200.073 307.136 200.096 307.091C200.028 307.182 199.96 307.25 199.891 307.341C199.891 307.318 199.937 307.296 199.96 307.273C200.073 307.159 200.164 307.023 200.21 306.863C200.278 306.727 200.324 306.567 200.324 306.385C200.324 306.203 200.301 306.044 200.21 305.908C200.164 305.748 200.073 305.612 199.96 305.498C199.732 305.27 199.414 305.111 199.072 305.134C198.958 305.134 198.845 305.157 198.754 305.179C198.549 305.248 198.367 305.339 198.207 305.498L198.253 305.543Z" fill="black"/>
<path d="M215.32 301.561C215.183 301.675 215.069 301.812 215.001 301.971C214.933 302.107 214.842 302.289 214.819 302.449C214.796 302.631 214.751 302.79 214.773 302.972C214.773 303.154 214.796 303.336 214.865 303.495C214.933 303.655 214.978 303.837 215.092 303.973C215.138 304.042 215.183 304.11 215.251 304.178C215.297 304.246 215.365 304.315 215.411 304.383C215.661 304.633 215.957 304.815 216.298 304.929C216.344 304.929 216.366 304.929 216.412 304.952C216.548 304.952 216.708 304.997 216.844 304.997C216.981 304.997 217.14 304.975 217.277 304.929C217.413 304.906 217.572 304.815 217.686 304.77C217.868 304.656 218.028 304.519 218.141 304.315C218.255 304.11 218.301 303.905 218.301 303.678C218.301 303.518 218.278 303.336 218.255 303.177C218.255 303.109 218.232 303.04 218.21 302.995C218.164 302.836 218.096 302.699 218.005 302.54C217.937 302.403 217.823 302.267 217.709 302.153C217.572 301.971 217.39 301.834 217.186 301.721C217.14 301.698 217.072 301.652 217.026 301.63C216.867 301.561 216.708 301.493 216.548 301.447C216.389 301.402 216.23 301.379 216.048 301.447C215.888 301.447 215.729 301.493 215.593 301.584C215.456 301.652 215.342 301.766 215.251 301.903C215.138 302.016 215.069 302.153 215.024 302.335L214.978 302.654C214.978 302.881 215.047 303.086 215.138 303.291C215.297 303.564 215.57 303.791 215.889 303.86C215.957 303.86 216.002 303.882 216.071 303.905L215.775 303.791C215.775 303.791 215.934 303.882 216.002 303.928C215.911 303.86 215.843 303.791 215.752 303.723C215.82 303.791 215.889 303.837 215.957 303.928C215.889 303.837 215.82 303.769 215.752 303.678C215.798 303.746 215.843 303.837 215.889 303.905L215.775 303.609C215.775 303.609 215.843 303.791 215.843 303.882L215.797 303.564C215.797 303.564 215.797 303.655 215.797 303.7C216.002 303.336 216.207 302.995 216.412 302.631C216.503 302.585 216.617 302.54 216.708 302.517C216.662 302.517 216.617 302.54 216.571 302.563C216.685 302.563 216.799 302.54 216.89 302.517C216.844 302.517 216.776 302.517 216.731 302.517C216.844 302.517 216.958 302.54 217.049 302.563C217.003 302.563 216.935 302.54 216.89 302.517C216.981 302.563 217.095 302.608 217.186 302.631C217.117 302.608 217.049 302.563 217.004 302.517C217.095 302.585 217.163 302.654 217.254 302.722C217.186 302.676 217.14 302.608 217.072 302.54C217.14 302.631 217.208 302.699 217.277 302.79C217.231 302.722 217.186 302.654 217.14 302.563C217.186 302.654 217.231 302.767 217.254 302.858C217.231 302.79 217.208 302.699 217.186 302.631C217.186 302.745 217.208 302.858 217.231 302.949C217.231 302.881 217.231 302.836 217.231 302.767L217.186 303.086C217.186 303.086 217.186 302.972 217.231 302.927C217.186 303.018 217.14 303.131 217.117 303.222C217.117 303.177 217.163 303.131 217.186 303.086C217.117 303.177 217.049 303.245 216.981 303.336C216.981 303.313 217.026 303.291 217.049 303.268C217.163 303.154 217.254 303.018 217.299 302.858C217.368 302.722 217.413 302.563 217.413 302.38C217.413 302.198 217.39 302.039 217.299 301.903C217.254 301.743 217.163 301.607 217.049 301.493C216.821 301.265 216.503 301.106 216.162 301.129C216.048 301.129 215.934 301.152 215.843 301.174C215.638 301.243 215.456 301.334 215.297 301.493L215.32 301.561Z" fill="black"/>
<path d="M201.712 320.175C203.191 320.904 204.738 321.427 206.354 321.677C206.695 321.723 206.991 321.723 207.31 321.563C207.56 321.404 207.81 321.108 207.879 320.812C208.015 320.221 207.697 319.402 207.014 319.288C206.263 319.174 205.535 318.992 204.829 318.787C204.488 318.673 204.124 318.56 203.783 318.423C203.714 318.4 203.601 318.332 203.532 318.309C203.714 318.378 203.737 318.4 203.601 318.332C203.555 318.332 203.532 318.309 203.487 318.287C203.305 318.196 203.123 318.127 202.941 318.036C202.645 317.877 202.326 317.809 201.985 317.923C201.689 317.991 201.393 318.218 201.234 318.491C200.938 319.06 201.052 319.88 201.689 320.198L201.712 320.175Z" fill="black"/>
<path d="M206.9 309.594C207.97 309.776 209.062 309.958 210.131 310.14C210.609 310.231 211.087 310.277 211.565 310.413C211.611 310.413 211.906 310.504 211.747 310.459C211.656 310.413 211.679 310.436 211.793 310.459C211.861 310.481 211.906 310.527 211.975 310.55C211.815 310.459 211.929 310.55 212.02 310.618C211.838 310.436 212.066 310.572 212.02 310.664C211.975 310.527 211.952 310.481 211.975 310.572C211.975 310.618 211.997 310.664 212.02 310.709C212.02 310.755 212.02 310.8 212.043 310.846C212.043 310.937 212.043 310.914 212.043 310.755C212.088 310.8 212.043 310.982 212.043 311.028C212.043 311.096 212.043 311.164 212.043 311.21C212.043 311.164 212.043 311.119 212.043 311.073C212.088 311.232 211.906 311.551 211.861 311.688C211.838 311.779 211.861 311.756 211.884 311.619C211.884 311.665 211.838 311.71 211.815 311.756C211.77 311.87 211.702 311.983 211.633 312.097C211.155 312.939 210.564 313.758 210.359 314.737C210.222 315.374 210.541 316.102 211.224 316.261C211.838 316.398 212.612 316.079 212.748 315.397C212.771 315.26 212.817 315.124 212.862 314.987C212.93 314.714 212.794 315.124 212.908 314.873C213.021 314.646 213.135 314.418 213.272 314.213C213.522 313.781 213.818 313.371 214.023 312.916C214.523 311.847 214.728 310.55 214.136 309.457C213.522 308.32 212.316 308.024 211.133 307.842C209.927 307.637 208.721 307.432 207.515 307.227C206.877 307.114 206.149 307.387 205.99 308.092C205.853 308.684 206.172 309.503 206.855 309.617L206.9 309.594Z" fill="black"/>
<path d="M199.869 296.601C196.615 296.305 193.361 297.989 191.586 300.719C191.222 301.265 191.449 302.107 192.041 302.426C192.655 302.745 193.361 302.563 193.747 301.971C193.838 301.834 193.929 301.698 194.02 301.561C194.089 301.447 193.907 301.698 194.066 301.516C194.112 301.47 194.157 301.402 194.203 301.356C194.43 301.106 194.658 300.856 194.931 300.628C194.999 300.56 195.067 300.515 195.135 300.446C195.226 300.378 195.226 300.378 195.135 300.446C195.272 300.355 195.409 300.264 195.522 300.173C195.818 299.991 196.114 299.809 196.41 299.673C196.478 299.65 196.546 299.604 196.615 299.582C196.819 299.491 196.524 299.604 196.66 299.559C196.819 299.513 196.956 299.445 197.115 299.4C197.434 299.308 197.73 299.217 198.048 299.149C198.139 299.149 198.23 299.126 198.321 299.104C198.503 299.058 198.026 299.126 198.367 299.104C198.526 299.104 198.685 299.081 198.845 299.058C199.186 299.058 199.527 299.058 199.869 299.081C200.506 299.149 201.143 298.467 201.098 297.852C201.075 297.124 200.551 296.669 199.869 296.601Z" fill="black"/>
<path d="M214.364 296.646C214.364 296.646 214.591 296.555 214.387 296.646C214.182 296.737 214.387 296.646 214.409 296.646C214.5 296.623 214.591 296.578 214.682 296.555C214.773 296.532 214.864 296.51 214.956 296.487C215.001 296.487 215.206 296.441 214.956 296.487C214.728 296.51 214.887 296.487 214.956 296.487C215.16 296.487 215.342 296.487 215.547 296.487C215.593 296.487 215.661 296.487 215.706 296.487C215.866 296.487 215.411 296.441 215.57 296.487C215.684 296.487 215.775 296.532 215.889 296.555C216.071 296.601 216.253 296.669 216.435 296.737C216.571 296.783 216.162 296.601 216.344 296.692C216.389 296.692 216.412 296.737 216.457 296.737C216.548 296.783 216.639 296.828 216.731 296.896C216.822 296.942 216.89 297.01 216.958 297.056C217.072 297.147 216.731 296.874 216.89 296.987C216.913 297.01 216.958 297.033 216.981 297.078C217.14 297.215 217.277 297.374 217.413 297.534C217.595 297.761 218.005 297.898 218.301 297.898C218.596 297.898 218.96 297.761 219.188 297.534C219.416 297.306 219.575 296.987 219.552 296.646C219.552 296.305 219.416 296.032 219.188 295.759C218.528 294.939 217.527 294.371 216.526 294.143C215.365 293.893 214.227 294.006 213.158 294.507C212.566 294.78 212.361 295.668 212.703 296.214C213.09 296.828 213.772 296.965 214.409 296.669L214.364 296.646Z" fill="black"/>
<path d="M218.073 276.462C220.849 283.402 225.241 289.615 230.975 294.439C233.82 296.851 237.165 298.512 240.055 300.856C243.4 303.587 244.287 307.364 243.923 311.528C243.559 315.647 242.49 320.585 238.94 323.156C238.075 323.771 238.917 325.204 239.782 324.59C242.808 322.383 244.265 318.947 245.016 315.374C245.767 311.71 246.153 307.66 244.674 304.133C243.104 300.424 239.6 298.489 236.391 296.396C232.887 294.12 229.747 291.344 227.039 288.158C223.944 284.54 221.464 280.421 219.689 276.007C219.302 275.028 217.709 275.461 218.096 276.439L218.073 276.462Z" fill="black"/>
<path d="M178.638 319.925C178.865 319.971 179.093 320.062 179.298 320.153C179.207 320.107 179.093 320.062 179.002 320.016C179.343 320.175 179.662 320.357 179.957 320.585C179.866 320.517 179.798 320.448 179.707 320.38C180.026 320.63 180.299 320.904 180.549 321.222C180.481 321.131 180.413 321.063 180.344 320.972C180.595 321.29 180.777 321.632 180.936 321.996C180.89 321.905 180.845 321.791 180.822 321.7C180.959 322.041 181.072 322.405 181.118 322.769C181.118 322.656 181.095 322.542 181.072 322.451V322.496C181.118 322.838 181.186 323.111 181.437 323.384C181.641 323.589 182.006 323.771 182.324 323.748C182.643 323.748 182.984 323.634 183.211 323.384C183.416 323.156 183.621 322.815 183.576 322.496C183.53 322.178 183.485 321.859 183.394 321.541C183.303 321.222 183.189 320.926 183.052 320.653C182.825 320.153 182.483 319.675 182.119 319.265C181.391 318.446 180.367 317.809 179.298 317.558C178.66 317.399 177.932 317.763 177.773 318.423C177.636 319.06 177.955 319.788 178.638 319.948V319.925Z" fill="black"/>
<path d="M146.575 319.015C149.693 322.383 147.212 327.343 144.846 330.347C142.092 333.829 139.248 336.901 137.632 341.088C134.606 348.938 136.13 358.132 142.957 363.456C146.507 366.21 150.967 367.666 155.473 367.348C157.065 367.234 157.065 364.753 155.473 364.867C147.303 365.459 139.726 359.52 138.724 351.328C138.201 347.118 139.248 342.794 141.296 339.108C143.367 335.376 146.78 332.6 148.874 328.868C150.899 325.273 151.354 320.471 148.373 317.263C147.281 316.079 145.528 317.854 146.621 319.015H146.575Z" fill="black"/>
<path d="M179.366 353.148C172.312 372.604 168.216 394.54 176.339 414.338C178.137 418.684 180.435 422.78 183.325 426.512C186.215 430.221 189.765 433.93 194.248 435.614C204.989 439.665 209.79 426.353 212.68 418.707C217.345 406.351 221.555 393.812 225.992 381.388C226.174 380.864 225.856 380.273 225.423 379.977C220.645 376.996 215.388 374.857 209.858 373.719C209.358 373.605 208.698 373.787 208.447 374.288C203.282 385.165 198.094 396.065 192.928 406.942C192.246 408.376 194.385 409.627 195.067 408.194C200.233 397.317 205.421 386.417 210.587 375.54C210.109 375.722 209.654 375.926 209.176 376.108C214.5 377.223 219.529 379.226 224.149 382.116C223.967 381.638 223.762 381.183 223.58 380.705C219.916 391.013 216.253 401.322 212.612 411.607C210.837 416.591 209.085 421.62 206.695 426.353C204.784 430.13 201.917 434.499 197.024 433.794C192.473 433.134 188.832 429.288 186.033 425.943C183.234 422.598 180.981 418.798 179.207 414.793C175.452 406.351 174.041 397.021 174.337 387.828C174.724 376.131 177.773 364.731 181.755 353.785C182.301 352.283 179.912 351.623 179.366 353.125V353.148Z" fill="black"/>
<path d="M230.93 362.25C234.07 359.588 237.393 357.108 240.851 354.855C241.42 354.491 241.648 353.763 241.307 353.148C240.988 352.602 240.169 352.329 239.6 352.693C235.959 355.06 232.477 357.676 229.178 360.475C228.677 360.908 228.723 361.772 229.178 362.228C229.678 362.728 230.429 362.66 230.93 362.228V362.25Z" fill="black"/>
<path d="M454.64 278.851C458.349 291.23 461.671 303.746 464.561 316.352C464.925 317.9 467.315 317.24 466.951 315.692C464.061 303.086 460.738 290.57 457.029 278.191C456.574 276.667 454.185 277.327 454.64 278.851Z" fill="black"/>
<path d="M451.34 286.11C452.455 287.771 454.23 289.023 456.21 289.342C456.551 289.387 456.847 289.387 457.166 289.228C457.416 289.068 457.666 288.773 457.735 288.477C457.803 288.158 457.78 287.794 457.598 287.521C457.439 287.271 457.166 286.998 456.847 286.952C456.369 286.884 455.891 286.747 455.459 286.565L455.755 286.679C455.482 286.565 455.209 286.429 454.958 286.27C454.822 286.201 454.708 286.11 454.594 286.019C454.549 285.974 454.503 285.951 454.435 285.905C454.754 286.11 454.549 285.996 454.458 285.905C454.23 285.723 454.025 285.519 453.843 285.314C453.752 285.2 453.661 285.086 453.548 284.972C453.798 285.246 453.639 285.109 453.593 285.018C453.548 284.95 453.502 284.881 453.456 284.813C453.092 284.267 452.341 283.994 451.75 284.358C451.204 284.699 450.931 285.473 451.295 286.065L451.34 286.11Z" fill="black"/>
<path d="M462.354 307.819C459.805 310.299 458.69 313.849 459.168 317.331C459.259 317.991 460.101 318.355 460.693 318.196C461.398 317.991 461.649 317.331 461.558 316.671C461.558 316.807 461.558 316.671 461.558 316.603C461.558 316.512 461.558 316.421 461.558 316.352C461.558 316.17 461.558 316.011 461.558 315.829C461.558 315.465 461.558 315.101 461.603 314.737C461.603 314.737 461.626 314.486 461.603 314.577C461.603 314.668 461.603 314.441 461.626 314.418C461.649 314.236 461.694 314.077 461.717 313.918C461.808 313.553 461.899 313.212 462.013 312.848C462.058 312.689 462.127 312.529 462.195 312.37C462.149 312.484 462.195 312.37 462.218 312.302C462.263 312.234 462.286 312.143 462.331 312.074C462.491 311.756 462.65 311.46 462.832 311.164C463.219 310.55 463.537 310.163 464.106 309.594C464.584 309.116 464.584 308.32 464.106 307.842C463.628 307.364 462.832 307.364 462.354 307.842V307.819Z" fill="black"/>
<path d="M447.881 300.105C449.725 302.563 453.07 303.769 456.005 302.699C456.62 302.471 457.097 301.834 456.87 301.174C456.665 300.583 456.005 300.082 455.345 300.31C455.072 300.401 454.799 300.492 454.526 300.537C454.526 300.537 454.207 300.606 454.412 300.56C454.594 300.515 454.321 300.56 454.298 300.56C454.162 300.56 454.025 300.56 453.866 300.583C453.73 300.583 453.57 300.583 453.434 300.583C453.365 300.583 453.275 300.583 453.206 300.583C453.183 300.583 452.956 300.56 453.138 300.583C453.32 300.606 453.07 300.583 453.024 300.583C452.956 300.583 452.91 300.56 452.842 300.537C452.683 300.515 452.524 300.469 452.387 300.423C452.251 300.378 452.114 300.332 451.977 300.287C451.955 300.287 451.75 300.196 451.909 300.264C452.068 300.332 451.818 300.219 451.795 300.219C451.545 300.105 451.295 299.968 451.044 299.809C450.976 299.764 450.908 299.718 450.84 299.673C450.612 299.491 450.794 299.627 450.84 299.673C450.726 299.582 450.612 299.491 450.521 299.399C450.407 299.308 450.316 299.195 450.225 299.104C450.157 299.035 449.884 298.671 450.066 298.922C449.679 298.398 448.974 298.08 448.359 298.467C447.836 298.808 447.495 299.604 447.904 300.173L447.881 300.105Z" fill="black"/>
<path d="M448.223 295.053C450.271 297.283 453.707 298.148 456.551 297.101C457.166 296.874 457.644 296.259 457.416 295.577C457.234 294.985 456.551 294.462 455.891 294.712C455.596 294.826 455.3 294.917 455.004 294.985C454.867 295.008 454.731 295.03 454.594 295.053C454.89 295.008 454.435 295.053 454.367 295.053C454.048 295.053 453.752 295.053 453.434 295.053C453.366 295.053 453.297 295.053 453.229 295.053C453.07 295.053 453.434 295.099 453.206 295.053C453.047 295.03 452.911 294.985 452.751 294.962C452.455 294.894 452.182 294.803 451.909 294.689C451.682 294.598 452 294.735 451.864 294.689C451.795 294.666 451.727 294.621 451.682 294.598C451.545 294.53 451.409 294.462 451.272 294.371C451.136 294.302 450.999 294.211 450.885 294.12C450.817 294.075 450.771 294.029 450.726 294.006C450.567 293.915 450.862 294.12 450.726 294.006C450.476 293.802 450.225 293.574 450.021 293.324C449.588 292.846 448.701 292.846 448.268 293.324C447.791 293.847 447.791 294.575 448.268 295.076L448.223 295.053Z" fill="black"/>
<path d="M446.198 306.568C447.677 309.48 451.272 311.005 454.39 310.163C455.027 310.004 455.459 309.275 455.254 308.638C455.05 308.001 454.39 307.592 453.73 307.774C453.57 307.819 453.434 307.842 453.274 307.887C453.274 307.887 452.956 307.933 453.161 307.887C453.366 307.887 453.092 307.887 453.047 307.887C452.728 307.91 452.433 307.91 452.114 307.887C452.069 307.887 452.023 307.887 451.978 307.887C451.887 307.887 451.909 307.887 452.069 307.887C452.069 307.865 451.909 307.865 451.886 307.865C451.727 307.842 451.591 307.796 451.431 307.774C451.272 307.728 451.136 307.683 450.976 307.637C450.885 307.614 450.794 307.569 450.703 307.546C450.476 307.455 450.84 307.614 450.703 307.546C450.43 307.409 450.157 307.273 449.884 307.091C449.816 307.045 449.747 307 449.679 306.954C449.656 306.954 449.429 306.772 449.588 306.886C449.725 307 449.497 306.818 449.497 306.818C449.429 306.772 449.383 306.727 449.315 306.659C449.201 306.545 449.088 306.454 448.997 306.34C448.951 306.272 448.883 306.226 448.837 306.158C448.814 306.135 448.655 305.908 448.769 306.067C448.883 306.203 448.723 305.999 448.701 305.976C448.655 305.908 448.61 305.839 448.564 305.771C448.473 305.635 448.382 305.475 448.314 305.316C448.018 304.724 447.153 304.52 446.607 304.861C446.015 305.248 445.856 305.93 446.152 306.568H446.198Z" fill="black"/>
<path d="M441.533 310.39C442.989 313.918 444.218 317.513 445.196 321.199C445.606 322.747 447.995 322.087 447.586 320.539C446.607 316.853 445.378 313.258 443.922 309.731C443.672 309.116 443.103 308.661 442.397 308.866C441.806 309.025 441.282 309.776 441.533 310.39Z" fill="black"/>
<path d="M430.951 318.696L443.444 315.783C444.992 315.419 444.332 313.03 442.784 313.394C438.62 314.373 434.456 315.351 430.291 316.307C428.744 316.671 429.404 319.06 430.951 318.696Z" fill="black"/>
<path d="M418.277 427.855C421.007 431.2 423.806 434.476 426.56 437.799C427.948 439.46 429.336 441.098 430.701 442.76C431.202 443.351 431.657 444.057 432.294 444.512C433.932 445.695 435.616 444.694 437.209 443.966C444.605 440.598 451.704 436.729 459.259 433.657C459.919 433.384 460.397 433.908 461.057 434.636C461.74 435.364 462.4 436.251 462.764 437.184C462.855 437.389 462.877 438.117 463.06 437.526C462.968 437.822 462.104 438.368 461.853 438.572C461.467 438.914 461.057 439.278 460.67 439.642C459.077 441.053 457.507 442.486 455.937 443.92C448.86 450.36 441.965 457.004 435.252 463.808H437.004C428.79 455.571 421.303 446.491 413.907 437.548C412.974 436.433 412.064 435.296 411.154 434.181C410.54 433.43 409.152 432.201 408.992 431.222C408.947 431.541 408.901 431.86 408.879 432.178C409.22 431.609 410.471 431.109 411.04 430.745C411.905 430.198 412.747 429.675 413.612 429.129C415.318 428.059 417.048 426.99 418.754 425.92C420.097 425.078 418.868 422.939 417.503 423.781C414.863 425.443 412.201 427.081 409.561 428.742C407.763 429.857 405.556 430.927 407.263 433.202C409.038 435.592 410.995 437.867 412.883 440.165C417.935 446.241 423.078 452.226 428.335 458.12C430.587 460.645 432.863 463.171 435.252 465.583C435.73 466.061 436.527 466.061 437.004 465.583C443.239 459.28 449.611 453.113 456.119 447.129C457.757 445.627 459.396 444.148 461.034 442.668C461.831 441.963 462.627 441.258 463.424 440.552C463.992 440.052 464.789 439.551 465.153 438.868C466.131 437.071 464.243 434.636 463.15 433.339C462.513 432.565 461.717 431.814 460.807 431.359C459.51 430.745 458.395 431.359 457.143 431.86C453.138 433.452 449.27 435.318 445.424 437.253C443.512 438.208 441.578 439.164 439.644 440.12C438.711 440.575 437.801 441.007 436.868 441.44C436.049 441.827 434.592 442.828 433.773 442.486C433.136 442.213 432.499 441.121 432.044 440.598C431.361 439.779 430.656 438.937 429.973 438.117C426.651 434.135 423.283 430.176 420.006 426.148C419.005 424.919 417.253 426.671 418.254 427.9L418.277 427.855Z" fill="black"/>
<path d="M461.125 433.771C451.795 442.714 442.147 451.361 432.248 459.667C431.02 460.691 432.795 462.443 434.001 461.419C443.899 453.113 453.548 444.466 462.877 435.523C464.038 434.408 462.286 432.656 461.125 433.771Z" fill="black"/>
<path d="M453.184 434.135C452.205 435.887 451.955 438.049 452.569 439.983C452.774 440.598 453.434 441.053 454.094 440.848C454.708 440.643 455.163 439.983 454.959 439.323C454.89 439.119 454.845 438.914 454.799 438.686C454.799 438.595 454.776 438.527 454.754 438.436C454.754 438.299 454.754 438.322 454.754 438.527C454.754 438.481 454.754 438.413 454.754 438.368C454.708 437.981 454.708 437.571 454.754 437.184C454.754 437.139 454.754 437.093 454.754 437.071C454.754 436.934 454.754 436.957 454.754 437.162C454.776 437.162 454.799 436.889 454.822 436.843C454.868 436.661 454.913 436.479 454.959 436.297C454.981 436.183 455.027 436.092 455.072 435.978C455.072 435.933 455.118 435.774 455.163 435.751C455.095 435.933 455.072 435.956 455.141 435.819C455.163 435.774 455.186 435.728 455.209 435.683C455.254 435.592 455.3 435.5 455.368 435.387C455.687 434.818 455.527 433.999 454.913 433.68C454.321 433.361 453.548 433.521 453.206 434.135H453.184Z" fill="black"/>
<path d="M438.825 453.75C435.639 452.681 431.953 453.182 429.176 455.116C428.63 455.503 428.38 456.208 428.721 456.822C429.04 457.369 429.859 457.642 430.428 457.278C432.749 455.662 435.525 455.275 438.165 456.163C438.802 456.367 439.53 455.912 439.689 455.298C439.872 454.615 439.462 453.978 438.825 453.773V453.75Z" fill="black"/>
<path d="M439.143 437.435C437.778 440.211 438.324 443.715 440.6 445.854C441.078 446.309 441.897 446.355 442.352 445.854C442.784 445.376 442.853 444.58 442.352 444.102C442.238 444.011 442.147 443.897 442.033 443.783C441.988 443.738 441.942 443.692 441.897 443.624C441.783 443.465 441.806 443.533 441.897 443.624C441.737 443.397 441.578 443.169 441.442 442.919C441.374 442.782 441.305 442.646 441.237 442.509C441.282 442.6 441.305 442.668 441.237 442.509C441.214 442.441 441.169 442.35 441.146 442.282C441.055 442.009 440.964 441.713 440.918 441.417C440.918 441.349 440.918 441.28 440.896 441.212C440.85 441.03 440.896 441.44 440.896 441.258C440.896 441.098 440.873 440.962 440.873 440.803C440.873 440.507 440.873 440.211 440.896 439.915C440.896 440.006 440.873 440.097 440.896 439.961C440.896 439.87 440.918 439.801 440.941 439.71C440.964 439.574 441.009 439.46 441.032 439.323C441.078 439.187 441.123 439.05 441.169 438.891C441.237 438.664 441.1 439.005 441.169 438.868C441.214 438.8 441.237 438.709 441.282 438.641C441.578 438.049 441.464 437.275 440.827 436.934C440.258 436.638 439.439 436.752 439.121 437.389L439.143 437.435Z" fill="black"/>
<path d="M443.808 435.432C442.739 438.277 443.603 441.713 445.833 443.761C446.311 444.193 447.13 444.261 447.586 443.761C448.018 443.283 448.086 442.486 447.586 442.009C447.358 441.804 447.153 441.576 446.948 441.326C447.017 441.417 447.017 441.44 446.948 441.326C446.903 441.28 446.857 441.212 446.835 441.167C446.744 441.03 446.675 440.916 446.584 440.78C446.516 440.643 446.425 440.507 446.357 440.37C446.334 440.302 446.289 440.256 446.266 440.188C446.129 439.892 446.311 440.325 446.266 440.143C446.175 439.847 446.061 439.551 445.993 439.255C445.97 439.119 445.924 438.982 445.902 438.846C445.879 438.709 445.879 438.641 445.902 438.823C445.902 438.755 445.902 438.686 445.902 438.618C445.879 438.299 445.856 438.004 445.902 437.685C445.902 437.617 445.902 437.548 445.902 437.48C445.902 437.435 445.924 437.162 445.902 437.344C445.902 437.503 445.902 437.275 445.902 437.253C445.902 437.184 445.924 437.116 445.947 437.048C446.016 436.729 446.107 436.411 446.22 436.115C446.448 435.5 445.97 434.727 445.356 434.59C444.65 434.431 444.081 434.795 443.831 435.455L443.808 435.432Z" fill="black"/>
<path d="M432.635 438.868C430.701 441.531 431.065 445.399 433.227 447.788C433.659 448.266 434.547 448.266 434.979 447.788C435.457 447.265 435.434 446.56 434.979 446.036C434.911 445.968 434.865 445.9 434.797 445.832C434.66 445.695 434.911 445.991 434.797 445.832C434.706 445.695 434.615 445.581 434.547 445.445C434.456 445.308 434.388 445.172 434.319 445.035C434.296 444.967 434.251 444.899 434.228 444.853C434.16 444.716 434.296 445.035 434.228 444.807C434.114 444.512 434.023 444.216 433.955 443.92C433.955 443.852 433.932 443.784 433.91 443.715C433.91 443.67 433.864 443.397 433.887 443.579C433.887 443.738 433.887 443.51 433.887 443.488C433.887 443.397 433.887 443.306 433.887 443.237C433.887 442.942 433.887 442.646 433.91 442.35C433.91 442.213 433.932 442.145 433.91 442.327C433.91 442.259 433.932 442.191 433.955 442.122C433.978 441.963 434.023 441.827 434.069 441.667C434.114 441.508 434.16 441.371 434.206 441.212C434.206 441.189 434.319 440.916 434.251 441.076C434.183 441.212 434.274 441.007 434.296 440.985C434.433 440.689 434.615 440.416 434.82 440.143C435.207 439.619 434.934 438.732 434.365 438.436C433.728 438.095 433.068 438.322 432.658 438.891L432.635 438.868Z" fill="black"/>
<path d="M427.083 436.456C424.603 439.346 421.963 442.077 419.141 444.648C418.641 445.103 418.686 445.945 419.141 446.4C419.642 446.901 420.393 446.856 420.893 446.4C423.715 443.852 426.377 441.121 428.835 438.208C429.267 437.708 429.336 436.957 428.835 436.456C428.38 436.001 427.515 435.956 427.083 436.456Z" fill="black"/>
<path d="M411.609 432.042C414.772 435.614 417.935 439.187 421.098 442.782C421.531 443.283 422.395 443.237 422.85 442.782C423.351 442.282 423.305 441.531 422.85 441.03C419.687 437.457 416.524 433.885 413.361 430.289C412.929 429.789 412.064 429.834 411.609 430.289C411.108 430.79 411.154 431.541 411.609 432.042Z" fill="black"/>
<path d="M272.345 400.138C276.259 403.779 279.9 407.67 283.268 411.835C283.541 412.153 284.178 412.153 284.428 411.835C293.144 401.413 301.859 390.991 310.574 380.591C314.966 375.358 319.335 370.101 323.727 364.867C327.209 360.726 330.713 356.561 334.764 352.966C339.315 348.916 344.594 345.662 350.67 344.569C351.716 344.387 351.261 342.794 350.237 342.976C339.406 344.933 331.418 353.262 324.592 361.295C315.763 371.671 307.093 382.184 298.355 392.652C293.326 398.659 288.297 404.667 283.268 410.697H284.428C281.083 406.533 277.419 402.619 273.506 399.001C272.732 398.272 271.549 399.456 272.345 400.161V400.138Z" fill="white"/>
<path d="M274.552 327.23L327.05 313.531C331.077 312.484 335.014 315.488 335.06 319.652L335.424 359.269C335.446 362.205 333.489 364.776 330.645 365.504L278.148 379.203C274.12 380.25 270.183 377.246 270.138 373.082L269.774 333.465C269.751 330.529 271.708 327.958 274.552 327.23Z" fill="white"/>
<path d="M274.279 380.341L223.466 393.585C222.715 390.718 224.445 387.782 227.312 387.031L270.82 375.676L274.279 380.318V380.341Z" fill="white"/>
<path d="M274.871 328.436C280.196 327.047 285.521 325.659 290.868 324.271L318.152 317.149C320.883 316.443 323.591 315.738 326.321 315.01C326.936 314.851 327.55 314.646 328.187 314.577C331.236 314.282 333.717 316.716 333.831 319.697C334.081 326.683 333.967 333.715 334.013 340.701C334.058 345.138 334.104 349.553 334.126 353.99C334.126 355.355 334.149 356.721 334.172 358.086C334.172 359.133 334.24 360.157 333.853 361.158C332.784 363.98 330.076 364.412 327.573 365.049C324.228 365.914 320.906 366.779 317.56 367.666C308.367 370.055 299.174 372.468 289.981 374.857C286.727 375.699 283.495 376.541 280.241 377.406C277.511 378.111 274.621 378.93 272.504 376.268C270.911 374.265 271.367 371.057 271.344 368.667C271.298 364.367 271.276 360.066 271.23 355.765C271.162 348.392 271.025 341.042 271.025 333.669C271.025 331.189 272.482 329.141 274.894 328.436C276.418 327.98 275.781 325.591 274.234 326.046C270.866 327.025 268.59 329.96 268.545 333.487C268.545 334.124 268.545 334.739 268.545 335.376C268.59 339.267 268.613 343.158 268.659 347.072C268.727 355.492 268.818 363.911 268.886 372.331C268.886 373.878 269.091 375.38 269.842 376.746C271.503 379.749 274.985 381.183 278.284 380.478C279.991 380.091 281.698 379.59 283.404 379.158C292.37 376.814 301.313 374.493 310.279 372.149C317.06 370.374 323.864 368.645 330.645 366.847C334.468 365.823 336.698 362.683 336.675 358.769C336.675 355.606 336.607 352.443 336.584 349.28C336.493 340.2 336.425 331.121 336.334 322.041C336.334 321.268 336.334 320.494 336.334 319.72C336.243 316.671 334.513 313.94 331.669 312.734C328.984 311.596 326.435 312.438 323.818 313.144C315.376 315.351 306.956 317.536 298.514 319.743C290.845 321.745 283.199 323.748 275.531 325.728C275.099 325.841 274.689 325.955 274.257 326.069C272.709 326.479 273.369 328.868 274.917 328.458L274.871 328.436Z" fill="black"/>
<path d="M273.938 379.158C268.226 380.66 262.515 382.139 256.78 383.641C247.655 386.03 238.53 388.396 229.428 390.763C227.335 391.309 225.218 391.855 223.125 392.401C223.626 392.697 224.149 392.97 224.65 393.266C224.035 390.945 225.537 388.852 227.744 388.214C228.427 388.01 229.155 387.85 229.838 387.668L239.577 385.12C248.042 382.912 256.507 380.705 264.972 378.498C267.02 377.952 269.091 377.428 271.139 376.882C270.661 376.7 270.206 376.495 269.728 376.313C270.889 377.861 272.049 379.408 273.187 380.955C274.12 382.23 276.282 380.978 275.326 379.704C274.166 378.156 273.005 376.609 271.867 375.062C271.526 374.607 271.048 374.334 270.456 374.493C264.563 376.017 258.692 377.565 252.798 379.089C244.788 381.183 236.801 383.254 228.791 385.347C228.177 385.507 227.54 385.643 226.948 385.825C223.489 386.826 221.304 390.353 222.237 393.903C222.397 394.563 223.125 394.927 223.762 394.768C229.474 393.266 235.185 391.787 240.92 390.285C250.045 387.896 259.17 385.529 268.272 383.14C270.365 382.594 272.482 382.048 274.575 381.502C276.123 381.092 275.463 378.703 273.915 379.112L273.938 379.158Z" fill="black"/>
<path d="M302.838 347.004C305.068 344.729 307.298 342.453 309.528 340.177C308.845 339.995 308.14 339.813 307.457 339.631C308.185 342.316 308.936 344.979 309.664 347.664C309.778 348.051 309.869 348.415 309.983 348.802C310.483 348.301 311.007 347.778 311.507 347.277C308.822 346.595 306.137 345.912 303.429 345.252C303.042 345.161 302.678 345.07 302.291 344.956C301.631 344.797 300.949 345.161 300.767 345.821C300.585 346.458 300.972 347.186 301.632 347.345C304.317 348.028 307.002 348.711 309.71 349.371C310.097 349.462 310.461 349.553 310.848 349.667C311.758 349.894 312.622 349.075 312.372 348.142C311.644 345.457 310.893 342.794 310.165 340.109C310.051 339.722 309.96 339.358 309.846 338.971C309.596 338.084 308.435 337.765 307.775 338.425C305.545 340.701 303.315 342.976 301.085 345.252C299.97 346.39 301.722 348.142 302.838 347.004Z" fill="black"/>
<path d="M325.934 320.539C325.934 320.539 325.957 320.539 325.98 320.539C325.866 320.539 325.752 320.562 325.661 320.585C325.866 320.562 326.071 320.562 326.276 320.585C326.162 320.585 326.048 320.562 325.957 320.539C326.185 320.562 326.412 320.63 326.64 320.721C326.549 320.676 326.435 320.63 326.344 320.585C326.594 320.699 326.822 320.835 327.049 320.995C326.958 320.926 326.89 320.858 326.799 320.79C327.027 320.972 327.231 321.177 327.413 321.404C327.345 321.313 327.277 321.245 327.209 321.154C327.368 321.381 327.505 321.609 327.618 321.859C327.573 321.768 327.527 321.654 327.505 321.563C327.596 321.791 327.664 322.041 327.709 322.292C327.709 322.178 327.687 322.064 327.664 321.973C327.687 322.201 327.687 322.405 327.664 322.633C327.664 322.519 327.687 322.405 327.709 322.314C327.709 322.383 327.687 322.474 327.664 322.542C327.527 323.179 327.869 323.907 328.529 324.067C329.166 324.203 329.894 323.884 330.053 323.202C330.372 321.836 329.917 320.471 328.984 319.447C328.529 318.947 327.937 318.582 327.323 318.332C327.095 318.241 326.867 318.173 326.64 318.15C326.412 318.127 326.207 318.082 325.98 318.082C325.752 318.082 325.525 318.127 325.32 318.15C325.047 318.196 324.706 318.491 324.569 318.719C324.41 318.992 324.342 319.379 324.455 319.675C324.546 319.971 324.728 320.266 325.024 320.426C325.115 320.471 325.229 320.517 325.32 320.562C325.548 320.63 325.752 320.63 325.98 320.562L325.934 320.539Z" fill="black"/>
<path d="M276.054 365.277C275.303 366.824 275.326 368.622 276.145 370.147C276.965 371.671 278.535 372.559 280.219 372.763C281.152 372.877 282.085 372.65 282.926 372.263C283.518 371.99 283.7 371.08 283.382 370.556C282.995 369.942 282.312 369.828 281.675 370.101C281.561 370.147 281.584 370.147 281.766 370.056C281.72 370.056 281.675 370.101 281.629 370.101C281.538 370.124 281.425 370.169 281.334 370.192C281.265 370.192 281.174 370.238 281.106 370.238C281.061 370.238 281.015 370.238 280.947 370.26C281.152 370.238 281.174 370.238 281.038 370.26C280.856 370.26 280.674 370.26 280.492 370.26C280.401 370.26 280.264 370.215 280.196 370.238C280.264 370.238 280.31 370.238 280.378 370.26C280.332 370.26 280.287 370.26 280.219 370.238C280.037 370.215 279.877 370.169 279.695 370.101C279.65 370.101 279.604 370.078 279.559 370.056C279.445 370.01 279.468 370.01 279.65 370.101C279.581 370.033 279.445 370.01 279.377 369.964C279.217 369.873 279.081 369.782 278.921 369.691C278.717 369.555 279.104 369.851 278.921 369.691C278.853 369.623 278.762 369.555 278.694 369.487C278.626 369.418 278.58 369.35 278.512 369.282C278.307 369.054 278.626 369.464 278.512 369.282C278.421 369.123 278.33 368.986 278.239 368.827C278.216 368.781 278.193 368.736 278.171 368.69C278.125 368.576 278.125 368.599 278.216 368.781C278.216 368.736 278.148 368.576 278.125 368.531C278.057 368.349 278.034 368.167 277.989 367.962C277.943 367.689 277.989 368.258 277.989 367.985C277.989 367.871 277.989 367.78 277.989 367.689C277.989 367.53 278.057 367.302 278.011 367.143C277.989 367.348 277.989 367.37 278.011 367.234C278.011 367.188 278.011 367.143 278.034 367.075C278.034 367.006 278.057 366.915 278.08 366.847C278.102 366.756 278.148 366.642 278.171 366.551C278.216 366.437 278.216 366.46 278.125 366.642C278.125 366.597 278.171 366.551 278.193 366.506C278.466 365.914 278.375 365.14 277.738 364.799C277.192 364.503 276.35 364.617 276.032 365.254L276.054 365.277Z" fill="black"/>
<path d="M335.992 323.543C331.646 325.75 327.573 328.527 323.909 331.758C322.817 332.714 321.793 334.625 323.044 335.399C323.682 335.808 324.524 335.513 325.229 335.217C327.732 334.147 330.235 333.1 332.716 332.031C329.962 333.806 327.459 335.968 325.32 338.471C324.501 339.427 323.773 341.019 324.774 341.793C325.57 342.407 326.708 341.839 327.55 341.292C329.848 339.745 332.124 338.198 334.422 336.673C331.76 338.812 329.416 341.338 327.459 344.114C326.754 345.115 326.321 346.868 327.482 347.232C327.891 347.368 328.347 347.232 328.756 347.05C330.85 346.185 332.738 344.82 334.195 343.067C332.329 344.205 331.032 346.185 330.736 348.347C330.622 349.166 330.736 350.167 331.418 350.622C332.283 351.214 333.444 350.599 334.263 349.917C340.68 344.66 343.138 335.103 340.088 327.412C339.224 325.25 337.198 322.951 335.014 323.748L335.992 323.52V323.543Z" fill="white"/>
<path d="M335.378 322.474C332.647 323.884 330.008 325.477 327.527 327.298C325.479 328.777 322.658 330.484 321.588 332.873C320.655 334.989 321.998 337.219 324.455 336.764C325.912 336.491 327.323 335.672 328.665 335.103C330.235 334.443 331.783 333.783 333.353 333.123C332.943 332.418 332.511 331.69 332.101 330.984C329.917 332.395 327.869 334.033 326.048 335.899C324.706 337.265 322.658 339.199 323.135 341.383C323.636 343.591 326.071 343.614 327.709 342.703C330.258 341.292 332.647 339.404 335.082 337.765C334.581 337.105 334.081 336.468 333.58 335.808C331.669 337.379 329.894 339.108 328.301 341.042C327.072 342.521 325.388 344.319 325.593 346.39C325.798 348.597 327.937 348.779 329.621 348.074C331.737 347.163 333.603 345.73 335.105 343.978C335.97 342.976 334.855 341.201 333.603 342.021C331.145 343.614 328.301 347.527 329.848 350.599C331.737 354.422 336.083 350.235 337.631 348.369C341.954 343.158 343.707 335.899 342.023 329.323C341.203 326.092 338.814 321.381 334.718 322.587C333.193 323.043 333.831 325.432 335.378 324.977C338.404 324.089 339.679 329.664 339.975 331.69C340.43 334.602 340.111 337.606 339.224 340.405C338.359 343.158 336.857 345.707 334.832 347.755C334.286 348.301 333.694 348.984 332.989 349.348C331.965 349.849 331.874 349.189 332.033 348.301C332.329 346.595 333.421 345.093 334.855 344.16C334.354 343.5 333.853 342.863 333.353 342.203C332.352 343.386 331.214 344.387 329.894 345.161C329.644 345.32 328.21 346.185 328.051 346.094C327.891 346.026 328.415 345.024 328.574 344.751C330.326 341.998 332.829 339.609 335.332 337.561C336.425 336.673 334.991 334.83 333.831 335.604C332.26 336.673 330.69 337.72 329.12 338.789C328.346 339.313 327.596 339.859 326.822 340.337C326.162 340.746 325.297 341.11 325.821 340.018C326.503 338.63 328.051 337.379 329.188 336.355C330.508 335.171 331.919 334.102 333.398 333.123C334.764 332.236 333.58 330.37 332.147 330.984C329.962 331.917 327.778 332.85 325.593 333.76C325.183 333.942 324.66 334.284 324.228 334.307C323.636 334.307 323.727 334.329 323.932 333.829C324.296 332.964 325.206 332.327 325.912 331.735C329.211 328.959 332.852 326.615 336.675 324.635C338.086 323.907 336.834 321.768 335.423 322.496L335.378 322.474Z" fill="black"/>
<path d="M153.834 441.167C152.537 439.369 153.311 436.661 153.971 434.727C154.653 432.724 155.95 430.722 158.044 430.016C163.05 428.355 167.852 433.475 171.037 436.57C174.542 439.983 177.75 445.263 173.859 449.677C170.901 453.045 165.212 454.729 161.526 451.543C159.705 449.973 158.613 447.561 158.84 445.172C158.954 443.92 159.477 442.441 160.775 441.986C161.753 441.644 163.164 442.373 162.413 443.51C161.526 444.853 163.687 446.082 164.552 444.762C166.19 442.282 163.915 439.21 161.116 439.414C157.725 439.665 156.155 443.215 156.337 446.241C156.496 449.222 158.021 452.044 160.433 453.841C163.005 455.753 166.372 456.14 169.399 455.275C172.448 454.433 175.315 452.408 176.908 449.654C178.683 446.605 178.342 443.01 176.794 439.961C175.156 436.729 172.243 434.272 169.581 431.905C166.964 429.607 164.051 427.536 160.479 427.286C156.792 427.013 153.743 429.197 152.218 432.451C150.899 435.273 149.67 439.665 151.672 442.418C152.605 443.692 154.744 442.464 153.811 441.167H153.834Z" fill="black"/>
<path d="M175.452 466.402C183.94 465.174 191.176 457.937 192.405 449.45C192.496 448.79 192.246 448.13 191.54 447.925C190.948 447.766 190.106 448.13 190.015 448.79C188.9 456.527 182.529 462.875 174.792 464.013C174.132 464.104 173.768 464.946 173.927 465.538C174.132 466.243 174.792 466.494 175.452 466.402Z" fill="black"/>
<path d="M202.144 440.325C200.733 452.681 197.707 465.06 197.821 477.553C197.821 480.306 197.753 484.084 200.961 485.062C202.895 485.654 205.216 485.312 207.196 485.199C209.494 485.085 211.815 484.88 214.091 484.63C223.307 483.674 232.523 482.263 241.648 480.693C259.852 477.575 277.92 473.525 295.692 468.542C304.681 466.016 313.578 463.262 322.407 460.281C330.099 457.687 337.927 454.843 344.23 449.541C347.279 446.969 349.236 443.943 348.212 439.847C347.529 437.162 346.278 434.522 345.231 431.951C342.819 426.034 340.339 420.14 337.472 414.429C336.948 413.405 336.425 412.381 335.856 411.402C335.059 410.014 332.898 411.266 333.717 412.654C336.539 417.478 338.7 422.735 340.885 427.877C342 430.517 343.092 433.179 344.162 435.842C345.322 438.755 347.143 442.168 345.14 445.103C343.024 448.198 339.178 450.405 335.947 452.158C332.42 454.046 328.711 455.503 324.933 456.822C316.741 459.712 308.435 462.306 300.107 464.719C283.222 469.634 266.065 473.707 248.77 476.938C240.055 478.554 231.294 479.965 222.51 481.148C218.119 481.74 213.704 482.286 209.29 482.604C207.219 482.764 205.125 482.9 203.032 482.878C202.076 482.878 201.098 482.809 200.665 481.808C200.347 481.08 200.369 480.17 200.324 479.396C199.937 472.797 200.961 466.038 201.871 459.53C202.759 453.136 203.874 446.764 204.602 440.347C204.784 438.755 202.304 438.777 202.121 440.347L202.144 440.325Z" fill="black"/>
<path d="M198.139 549.301C199.254 555.399 206.149 556.97 211.36 556.219C214.842 555.741 218.255 554.762 221.669 553.966C225.196 553.147 228.723 552.305 232.273 551.463C246.563 548.072 260.854 544.613 275.099 541.063C303.429 534.009 331.692 526.636 359.886 518.968C363.822 517.898 367.782 516.874 371.719 515.714C374.609 514.872 377.499 513.689 379.41 511.254C382.755 506.976 382.619 500.536 378.955 496.508C377.885 495.325 376.133 497.077 377.203 498.26C380.252 501.628 380.002 507.408 376.725 510.548C374.586 512.596 371.446 513.233 368.692 513.984C365.461 514.872 362.23 515.759 358.975 516.647C345.754 520.242 332.534 523.769 319.267 527.251C292.939 534.123 266.542 540.745 240.078 547.071C232.659 548.846 225.264 550.598 217.846 552.327C214.25 553.169 210.404 554.421 206.695 553.852C203.828 553.42 201.075 551.622 200.529 548.641C200.233 547.071 197.843 547.731 198.139 549.301Z" fill="black"/>
<path d="M327.391 259.327C334.741 277.349 339.36 296.419 340.953 315.806C341.09 317.376 343.57 317.399 343.434 315.806C341.818 296.191 337.221 276.894 329.78 258.667C329.189 257.211 326.776 257.848 327.391 259.327Z" fill="black"/>
<path d="M194.635 491.365C194.43 508.296 195.75 525.203 198.594 541.883C198.867 543.453 201.257 542.793 200.984 541.223C198.185 524.748 196.91 508.045 197.115 491.365C197.115 489.772 194.658 489.772 194.635 491.365Z" fill="black"/>
<path d="M349.623 450.974C359.067 462.966 366.462 476.529 371.468 490.933C371.992 492.435 374.381 491.798 373.858 490.273C368.692 475.436 361.092 461.556 351.375 449.222C350.397 447.971 348.645 449.745 349.623 450.974Z" fill="black"/>
<path d="M170.673 275.233C165.917 275.529 161.116 272.684 159.091 268.384C157.065 264.06 157.953 258.553 161.207 255.094C162.163 254.093 163.278 253.251 164.552 252.751C168.694 251.112 173.563 253.388 176.362 256.869C178.683 259.759 179.98 263.582 179.298 267.223C178.615 270.864 175.748 274.164 172.107 274.778C168.466 275.415 164.393 272.889 163.778 269.248L170.673 275.233Z" fill="black"/>
<path d="M171.538 267.951C168.784 271.001 165.326 273.435 161.343 274.573C159.409 275.119 157.361 275.347 155.359 275.142C153.265 274.915 151.308 274.3 149.192 274.71C145.619 275.392 142.434 278.078 140.09 280.717C137.655 283.425 135.812 286.611 134.31 289.91C132.535 293.802 131.215 297.898 129.964 301.994C129.645 303.018 131.238 303.45 131.556 302.426C133.718 295.417 136.039 288.022 140.863 282.356C143.253 279.557 146.825 276.28 150.739 276.212C152.81 276.166 154.813 276.894 156.883 276.894C158.681 276.894 160.501 276.598 162.208 276.075C166.281 274.824 169.877 272.32 172.721 269.157C173.427 268.361 172.266 267.2 171.561 267.997L171.538 267.951Z" fill="black"/>
<path d="M207.128 238.233C224.331 230.245 243.468 226.627 262.401 227.583C267.817 227.856 273.187 228.516 278.489 229.563C280.059 229.859 280.719 227.469 279.149 227.173C259.943 223.441 239.873 224.465 221.168 230.2C215.934 231.793 210.837 233.772 205.876 236.071C204.42 236.731 205.694 238.87 207.128 238.21V238.233Z" fill="black"/>
<path d="M345.527 396.93C351.625 406.965 364.118 412.222 375.564 409.559C377.112 409.195 376.452 406.806 374.904 407.17C364.573 409.582 353.173 404.758 347.666 395.678C346.847 394.313 344.685 395.564 345.527 396.93Z" fill="black"/>
<path d="M165.963 392.583C167.305 397.157 168.762 402.141 167.738 406.897C166.828 411.152 163.847 414.27 160.502 416.886C154.494 421.574 146.302 425.738 145.028 434.09C144.8 435.66 147.19 436.32 147.417 434.75C148.737 425.989 158.408 422.279 164.279 416.955C167.465 414.065 169.786 410.469 170.377 406.146C171.015 401.322 169.718 396.497 168.375 391.924C167.92 390.399 165.53 391.036 165.986 392.583H165.963Z" fill="black"/>
<path d="M169.649 417.979C175.884 420.596 181.505 424.555 186.147 429.47C187.239 430.631 188.991 428.879 187.899 427.718C182.961 422.462 176.954 418.366 170.309 415.589C169.695 415.339 168.944 415.862 168.785 416.454C168.58 417.159 169.035 417.728 169.649 417.979Z" fill="black"/>
<path d="M356.404 358.405C356.791 358.109 357.223 359.087 357.292 359.315C357.565 360.089 357.292 360.68 356.837 361.317C355.881 362.66 354.629 363.798 354.493 365.55C354.356 367.37 355.585 368.849 356.472 370.329C357.064 371.33 357.724 373.332 356.313 373.992C355.357 374.447 356.177 375.858 357.155 375.426C358.953 374.584 359.044 372.308 358.452 370.67C357.724 368.622 355.198 366.688 356.563 364.412C357.587 362.683 359.522 361.34 358.93 359.065C358.498 357.358 356.837 355.993 355.221 357.244C354.379 357.904 355.562 359.065 356.381 358.405H356.404Z" fill="white"/>
<path d="M0.66659 529.708C30.2943 543.635 60.8095 555.65 91.9846 565.662C107.663 570.691 123.524 575.22 139.498 579.202C155.723 583.252 172.152 587.144 188.764 589.396C205.216 591.604 221.532 591.285 237.825 588.145C254.277 584.982 270.229 579.68 286.135 574.56C319.654 563.774 353.173 552.987 386.669 542.201C420.347 531.37 454.003 520.538 487.681 509.684C491.8 508.364 495.896 507.044 500.015 505.724C501.539 505.246 500.879 502.834 499.355 503.335C466.154 514.03 432.954 524.702 399.754 535.397C366.553 546.092 333.353 556.765 300.152 567.46C268.454 577.654 236.096 590.216 202.235 588.259C185.373 587.28 168.762 583.594 152.378 579.793C136.494 576.107 120.725 571.897 105.092 567.164C73.6664 557.675 42.8326 546.161 12.9091 532.667C9.22269 531.006 5.55898 529.322 1.89534 527.592C0.46174 526.91 -0.812543 529.049 0.643812 529.731L0.66659 529.708Z" fill="black"/>
<path d="M4.62599 524.679C4.83079 537.127 5.80933 549.551 7.516 561.908C7.56151 562.272 8.01663 562.727 8.38072 562.772C10.0874 563.023 11.7713 563.273 13.4779 563.523C14.3427 563.66 14.9571 563.205 15.0481 562.317C16.2996 550.666 17.4373 538.993 18.5068 527.296C18.5523 526.727 18.0746 526.272 17.5967 526.09C14.4792 525.021 11.3843 523.974 8.26683 522.905C6.74221 522.381 6.1051 524.793 7.60697 525.294C10.7245 526.363 13.8192 527.41 16.9367 528.48C16.6409 528.07 16.3224 527.683 16.0266 527.274C14.9798 538.947 13.8192 550.621 12.5677 562.294C13.091 561.885 13.6144 561.498 14.1378 561.088C12.4311 560.838 10.7472 560.588 9.04058 560.337C9.3364 560.633 9.60948 560.906 9.9053 561.202C8.24414 549.073 7.31121 536.876 7.10641 524.634C7.08366 523.041 4.60324 523.041 4.62599 524.634V524.679Z" fill="black"/>
<path d="M3.4882 537.491C7.76624 537.059 12.0898 537.741 15.981 539.584C16.5954 539.857 17.3236 539.744 17.6876 539.129C18.0062 538.583 17.8469 537.718 17.2325 537.423C12.9545 535.42 8.1986 534.533 3.4882 535.01C2.82828 535.079 2.25945 535.534 2.25945 536.239C2.25945 536.854 2.82828 537.536 3.4882 537.491Z" fill="black"/>
<path d="M2.32759 541.382C6.85594 541.428 11.3616 541.951 15.7762 542.952C17.3236 543.294 17.9834 540.904 16.4361 540.563C11.8167 539.516 7.0835 538.97 2.32759 538.902C0.734697 538.902 0.734697 541.359 2.32759 541.382Z" fill="black"/>
<path d="M218.015 31.7652C220.882 25.1205 224.364 18.5214 228.983 12.9236C231.168 10.2612 233.648 7.75807 236.606 5.96038C239.678 4.09442 244.184 2.13744 247.597 4.25371C250.282 5.91487 250.851 9.44196 251.284 12.3092C251.739 15.4494 251.671 19.5682 253.741 22.1396C256.358 25.3936 260.636 23.6869 263.526 21.8437C267.258 19.4772 271.036 17.4064 275.223 15.9728C277.225 15.2901 279.705 14.3344 281.753 15.4267C283.233 16.2231 284.097 17.8615 284.598 19.4089C285.781 23.0498 285.531 26.7817 284.916 30.4909C285.44 30.0813 285.986 29.6717 286.509 29.2848H216.604C214.465 29.2848 214.465 32.5844 216.604 32.5844H286.509C287.169 32.5844 287.988 32.0838 288.102 31.3783C288.717 27.6464 289.012 24.0966 288.262 20.3419C287.579 17.0196 285.918 13.5607 282.618 12.1954C278.522 10.5115 273.539 12.9236 269.807 14.5847C267.622 15.5632 265.483 16.701 263.458 17.9753C261.82 18.9993 260.067 20.4557 258.088 20.6832C255.949 20.9108 255.607 18.4987 255.289 16.883C254.947 15.0853 254.765 13.2421 254.492 11.4217C253.992 8.12214 253.15 4.54953 250.487 2.27397C243.865 -3.36941 234.263 2.66081 229.279 7.68979C223.067 13.9703 218.675 22.0485 215.193 30.104C214.351 32.0382 217.196 33.7221 218.038 31.7652H218.015Z" fill="black"/>
<path d="M384.644 242.26C386.623 237.709 388.99 233.158 392.13 229.29C393.655 227.401 395.407 225.626 397.501 224.352C399.458 223.168 402.484 221.78 404.669 223.168C406.512 224.352 406.808 226.946 407.081 228.926C407.377 231.042 407.422 233.636 408.742 235.434C410.426 237.709 413.27 237.209 415.455 236.025C418.072 234.614 420.438 232.953 423.214 231.884C424.671 231.338 426.673 230.359 428.243 230.883C429.313 231.247 429.927 232.316 430.291 233.34C431.179 235.82 430.997 238.483 430.587 241.031C431.111 240.622 431.657 240.212 432.18 239.825H383.233C381.094 239.825 381.094 243.125 383.233 243.125H432.18C432.84 243.125 433.659 242.624 433.773 241.919C434.524 237.436 434.865 230.245 429.813 227.993C426.833 226.65 423.374 228.243 420.598 229.449C419.096 230.086 417.662 230.837 416.274 231.679C415.114 232.384 413.589 233.818 412.133 233.818C410.358 233.818 410.335 228.448 410.13 227.173C409.743 224.761 408.924 222.326 406.921 220.779C402.143 217.138 395.566 221.098 391.971 224.625C387.465 229.062 384.28 234.887 381.799 240.645C380.957 242.579 383.802 244.263 384.644 242.306V242.26Z" fill="black"/>
</svg>
