<svg width="439" height="492" viewBox="0 0 439 492" fill="none" xmlns="http://www.w3.org/2000/svg">
<path d="M194.748 88.404C185.509 86.1967 176.088 86.3787 168.511 92.0904C160.933 97.8248 154.743 105.721 148.099 112.502C144.64 116.052 141.067 116.689 138.86 121.126C136.653 125.564 136.107 148.092 146.551 144.542C157.065 145.839 160.842 138.739 168.42 131.344C173.517 135.44 172.379 149.161 176.748 154.031C178.614 156.125 179.888 154.85 182.164 156.511C184.439 158.15 185.509 156.83 185.031 159.583C168.192 159.014 151.239 155.465 136.107 148.069C134.81 152.165 132.193 155.942 130.896 160.038C130.532 161.153 128.415 165.454 133.239 165.386C134.423 165.386 130.805 165.659 131.829 166.251C151.33 177.697 196.932 185.183 195.612 186.071C198.434 190.827 202.894 194.49 205.716 199.246C206.672 200.862 209.448 200.703 211.154 201.476C212.952 202.296 218.3 204.275 220.234 203.866C233.546 200.953 244.878 194.65 258.054 191.145C249.771 170.142 246.517 152.393 243.058 132.39C241.92 125.814 238.643 121.559 234.889 116.052C231.134 110.545 229.609 98.9626 223.033 100.055C219.301 100.669 209.243 109.567 205.898 111.319C202.553 113.071 199.913 112.661 196.25 111.774C192.586 110.864 188.399 108.52 190.037 105.107C190.697 103.764 195.772 101.079 196.636 99.85C199.322 96.0498 195.817 93.0233 194.497 88.5405L194.702 88.3357L194.748 88.404Z" fill="#FCC786"/>
<mask id="mask0_2_1801" style="mask-type:luminance" maskUnits="userSpaceOnUse" x="130" y="87" width="129" height="117">
<path d="M194.748 88.404C185.509 86.1967 176.088 86.3787 168.511 92.0904C160.933 97.8248 154.743 105.721 148.099 112.502C144.64 116.052 141.067 116.689 138.86 121.126C136.653 125.564 136.107 148.092 146.551 144.542C157.065 145.839 160.842 138.739 168.42 131.344C173.517 135.44 172.379 149.161 176.748 154.031C178.614 156.125 179.888 154.85 182.164 156.511C184.439 158.15 185.509 156.83 185.031 159.583C168.192 159.014 151.239 155.465 136.107 148.069C134.81 152.165 132.193 155.942 130.896 160.038C130.532 161.153 128.415 165.454 133.239 165.386C134.423 165.386 130.805 165.659 131.829 166.251C151.33 177.697 196.932 185.183 195.612 186.071C198.434 190.827 202.894 194.49 205.716 199.246C206.672 200.862 209.448 200.703 211.154 201.476C212.952 202.296 218.3 204.275 220.234 203.866C233.546 200.953 244.878 194.65 258.054 191.145C249.771 170.142 246.517 152.393 243.058 132.39C241.92 125.814 238.643 121.559 234.889 116.052C231.134 110.545 229.609 98.9626 223.033 100.055C219.301 100.669 209.243 109.567 205.898 111.319C202.553 113.071 199.913 112.661 196.25 111.774C192.586 110.864 188.399 108.52 190.037 105.107C190.697 103.764 195.772 101.079 196.636 99.85C199.322 96.0498 195.817 93.0233 194.497 88.5405L194.702 88.3357L194.748 88.404Z" fill="white"/>
</mask>
<g mask="url(#mask0_2_1801)">
<path d="M169.034 79.2562L182.824 92.4317C187.079 96.4822 191.289 100.646 196.159 103.969C200.937 107.246 206.308 109.476 211.769 111.342C217.526 113.321 223.351 115.096 229.2 116.757C235.844 118.646 242.603 120.216 249.498 120.899C250.544 121.013 250.544 119.352 249.498 119.238C237.483 118.032 225.764 114.186 214.317 110.454C208.902 108.679 203.509 106.631 198.662 103.627C193.746 100.578 189.537 96.5505 185.35 92.5682C180.298 87.7441 175.246 82.9199 170.194 78.0957C169.421 77.3675 168.26 78.528 169.034 79.2562Z" fill="white"/>
<path d="M160.728 88.8591C181.709 108.702 208.469 122.241 236.846 127.544C244.787 129.023 252.843 129.865 260.944 130.047C262.013 130.069 262.013 128.408 260.944 128.385C232.499 127.771 204.419 118.714 180.821 102.831C174.108 98.3254 167.782 93.2509 161.911 87.6758C161.138 86.9476 159.977 88.1081 160.751 88.8363L160.728 88.8591Z" fill="white"/>
<path d="M147.234 92.773C158.748 104.469 172.493 113.754 187.352 120.671C202.394 127.68 218.436 132.368 234.752 135.258C243.991 136.896 253.32 137.943 262.696 138.512C263.765 138.58 263.765 136.919 262.696 136.851C246.243 135.872 229.86 133.346 213.999 128.795C198.389 124.335 183.302 117.895 169.694 108.998C162.002 103.969 154.857 98.1661 148.417 91.6125C147.666 90.8616 146.506 92.0221 147.257 92.773H147.234Z" fill="white"/>
<path d="M136.607 104.902C151.535 116.939 168.306 126.52 186.192 133.392C204.146 140.287 223.147 144.451 242.352 145.611C253.23 146.271 264.175 145.953 275.007 144.633C276.053 144.496 276.053 142.858 275.007 142.972C256.119 145.247 236.937 144.496 218.277 140.878C199.549 137.237 181.368 130.729 164.597 121.604C155.153 116.462 146.165 110.477 137.791 103.718C136.971 103.059 135.788 104.219 136.63 104.879L136.607 104.902Z" fill="white"/>
<path d="M135.287 115.051C146.984 130.092 164.71 138.671 182.323 144.769C203.122 151.983 224.831 156.625 246.767 158.719C259.305 159.925 271.935 160.266 284.518 159.765C285.588 159.72 285.588 158.059 284.518 158.104C262.537 158.969 240.464 157.262 218.891 152.961C208.151 150.822 197.547 148.046 187.147 144.656C178.045 141.698 169.079 138.261 160.66 133.688C151.421 128.681 142.956 122.241 136.471 113.913C135.811 113.071 134.65 114.254 135.31 115.073L135.287 115.051Z" fill="white"/>
<path d="M130.418 130.047C144.39 142.221 160.887 151.164 178.341 157.24C197.365 163.884 217.458 167.07 237.551 168.094C249.52 168.708 261.535 168.549 273.505 167.957C274.574 167.912 274.574 166.251 273.505 166.296C252.592 167.343 231.521 167.024 210.813 163.657C192.176 160.63 173.881 155.101 157.156 146.271C148.008 141.447 139.406 135.667 131.601 128.863C130.805 128.158 129.621 129.341 130.441 130.024L130.418 130.047Z" fill="white"/>
<path d="M124.228 151.733C141.705 164.089 162.913 169.141 183.78 172.167C194.93 173.783 206.125 174.943 217.344 176.104C229.655 177.378 242.011 178.379 254.413 178.539C268.112 178.721 281.856 177.788 295.305 175.034C296.351 174.83 295.896 173.237 294.872 173.441C270.933 178.357 246.312 177.242 222.145 174.921C210.813 173.828 199.458 172.622 188.171 171.12C177.681 169.732 167.213 167.935 157.042 165.045C145.687 161.813 134.764 157.149 125.093 150.322C124.228 149.707 123.386 151.141 124.251 151.755L124.228 151.733Z" fill="white"/>
<path d="M151.125 175.876C168.988 180.701 187.375 183.59 205.852 184.523C224.421 185.456 243.081 184.387 261.444 181.383C271.798 179.676 282.061 177.333 292.119 174.374C293.143 174.079 292.71 172.486 291.686 172.782C273.983 177.97 255.733 181.247 237.323 182.544C218.937 183.841 200.391 183.204 182.118 180.587C171.81 179.108 161.593 176.991 151.558 174.283C150.534 174.01 150.101 175.603 151.125 175.876Z" fill="white"/>
<path d="M182.71 193.717C209.88 197.085 237.824 200.452 264.812 193.921C271.935 192.192 278.852 189.78 285.429 186.594C286.384 186.139 285.542 184.705 284.587 185.161C260.352 196.902 232.681 197.198 206.399 194.763C198.48 194.035 190.583 193.057 182.687 192.078C181.641 191.942 181.641 193.603 182.687 193.739L182.71 193.717Z" fill="white"/>
</g>
<path d="M170.445 38.5465C171.492 45.0319 174.632 62.2351 175.679 68.7204C176.225 72.0882 176.839 75.6153 178.978 78.2777C182.482 82.6241 188.763 83.2385 194.338 83.5115C195.976 88.4722 196.978 93.615 197.342 98.826C197.41 99.7135 197.41 100.715 196.841 101.397C196.363 101.966 195.59 102.194 194.884 102.376C190.948 103.423 190.948 108.952 194.861 110.067C197.046 110.682 199.413 110.886 201.665 110.636C207.241 110.045 212.315 107.246 216.934 104.105C217.594 103.65 218.277 103.15 218.664 102.444C219.119 101.557 219.005 100.487 218.891 99.5087C217.822 91.1346 216.138 82.8289 213.908 74.6824C217.867 74.5686 221.895 72.0427 222.942 68.2198C223.989 64.3969 221.121 59.7547 217.162 59.6409C216.365 59.6409 215.433 59.732 214.864 59.1403C214.568 58.8217 214.454 58.3894 214.34 57.957C213.202 53.2239 209.971 37.7956 208.833 33.0397C194.52 26.0082 182.778 28.079 171.127 37.5908L170.468 38.501L170.445 38.5465Z" fill="white"/>
<path d="M169.261 38.8879C170.399 45.9876 171.719 53.0646 172.971 60.1415C173.517 63.259 174.063 66.3766 174.564 69.4941C175.314 74.0452 176.521 78.528 180.48 81.3497C184.439 84.1714 189.65 84.5355 194.338 84.7631C193.928 84.4672 193.542 84.1486 193.132 83.8528C194.27 87.3344 195.112 90.8843 195.635 94.5024C195.863 96.1181 196.09 97.802 196.113 99.4176C196.113 100.874 195.135 101.033 193.974 101.352C192.108 101.852 190.401 102.467 189.605 104.424C188.854 106.267 189.355 108.474 190.925 109.726C193.132 111.478 196.75 111.979 199.481 112.024C202.689 112.07 205.875 111.273 208.833 110.044C211.769 108.838 214.5 107.246 217.116 105.471C218.186 104.742 219.278 104.014 219.802 102.808C220.439 101.329 220.097 99.6907 219.893 98.1661C218.8 90.1334 217.185 82.2144 215.046 74.3865C214.636 74.9099 214.249 75.4333 213.84 75.9566C217.936 75.7746 222.054 73.5446 223.693 69.6534C225.172 66.1263 223.875 61.8254 220.735 59.6409C220.006 59.1403 219.164 58.7534 218.3 58.5714C217.913 58.4804 217.503 58.4576 217.116 58.4349C216.252 58.3894 215.774 58.5714 215.501 57.6612C215.137 56.5007 214.932 55.2491 214.682 54.0431C213.862 50.4022 213.089 46.7613 212.292 43.0976C211.541 39.6388 210.813 36.18 209.994 32.7439C209.88 32.2205 209.334 31.8109 208.788 31.8336C196.113 32.2432 183.984 25.9399 171.264 28.4203C169.694 28.7161 170.354 31.1054 171.924 30.8096C184.326 28.3975 196.386 34.7008 208.788 34.314C208.378 34.0181 207.991 33.6996 207.582 33.4038C209.015 39.4112 210.244 45.4642 211.564 51.5172C211.883 52.9736 212.201 54.4299 212.52 55.8863C212.793 57.0695 212.929 58.5942 213.589 59.6182C214.75 61.3703 216.752 60.5284 218.413 61.1883C220.052 61.8482 221.19 63.4639 221.645 65.125C222.874 69.8354 218.027 73.2715 213.84 73.4763C213.043 73.5218 212.429 74.25 212.634 75.0464C214.317 81.2359 215.706 87.5165 216.73 93.8653C216.98 95.3444 217.185 96.8235 217.389 98.3026C217.594 99.85 218.118 101.579 216.752 102.694C214.568 104.469 211.905 105.903 209.38 107.109C206.649 108.406 203.668 109.362 200.641 109.521C199.253 109.589 197.842 109.521 196.454 109.248C195.18 108.998 193.428 108.656 192.404 107.792C190.993 106.608 191.812 104.606 193.337 104.083C194.793 103.605 196.545 103.514 197.66 102.308C198.525 101.375 198.593 100.055 198.525 98.8487C198.434 97.1876 198.229 95.5037 198.002 93.8425C197.478 90.2244 196.636 86.6745 195.499 83.1929C195.317 82.6468 194.861 82.3054 194.293 82.2827C190.242 82.0779 185.85 81.8276 182.323 79.6203C178.318 77.1399 177.499 72.475 176.816 68.1742C175.747 61.5524 174.518 54.9533 173.357 48.3542C172.766 44.9636 172.151 41.5958 171.605 38.2052C171.355 36.635 168.966 37.2949 169.216 38.8651L169.261 38.8879Z" fill="black"/>
<path d="M214.795 60.3919C206.74 55.9773 199.367 39.9119 192.927 33.3355C194.27 36.1572 192.427 39.7981 189.559 41.0724C186.692 42.3467 183.256 41.5958 180.594 39.9346C181.777 43.439 178.705 47.626 175.019 47.5805C175.019 49.6967 174.199 51.813 172.743 53.3376C174.154 55.8863 169.671 50.0381 168.624 43.8941C167.828 39.2975 167.441 34.5188 168.67 30.0132C169.899 25.5076 173.016 21.3206 177.431 19.8187C178.864 19.3408 180.389 19.136 181.823 18.6127C185.828 17.1336 188.422 13.3106 191.972 10.9441C198.184 6.8253 207.377 8.09958 212.201 13.7657C214.022 15.882 215.364 18.6127 217.89 19.8187C219.688 20.6834 221.759 20.6152 223.761 20.5696C232.112 20.4559 241.078 21.6391 247.29 27.2143C255.232 34.3368 258.008 58.7762 250.795 66.6269C250.249 67.2413 249.634 67.8329 249.293 68.5611C248.542 70.1995 249.293 72.1793 250.499 73.5218C251.705 74.8644 253.321 75.7519 254.754 76.8441C259.942 80.8263 262.537 87.9033 261.126 94.2976C259.715 100.692 254.436 106.062 248.064 107.519C248.86 110.363 247.768 113.663 245.424 115.483C243.081 117.304 239.644 117.554 237.073 116.097C232.863 113.708 231.908 108.087 228.722 104.469C227.015 102.512 224.694 101.193 222.555 99.7135C221.394 98.8943 220.234 97.984 219.551 96.7552C219.051 95.8223 218.823 94.7755 218.618 93.7287C217.64 88.9046 216.661 84.0804 215.683 79.2562C215.569 78.6646 216.07 77.9364 215.683 77.4585C213.294 74.4093 216.047 74.7961 216.798 74.4776C220.188 73.044 222.236 72.4068 222.76 68.7659C223.442 64.101 220.234 59.2996 215.774 60.8242L214.773 60.3919H214.795Z" fill="black"/>
<path d="M203.349 80.576C200.232 81.5318 197.023 82.1689 193.792 82.442C193.132 82.4875 192.563 82.9654 192.563 83.6708C192.563 84.308 193.132 84.9679 193.792 84.8996C197.251 84.6038 200.687 83.9666 204.009 82.9426C205.534 82.4875 204.874 80.0754 203.349 80.5533V80.576Z" fill="black"/>
<path d="M195.499 57.6839C195.499 57.6839 195.544 57.7067 195.567 57.7295C195.476 57.6612 195.408 57.5929 195.317 57.5247C195.362 57.5474 195.385 57.5929 195.408 57.6157C195.339 57.5247 195.271 57.4564 195.203 57.3654C195.226 57.4109 195.271 57.4564 195.294 57.5019L195.18 57.2061C195.18 57.2061 195.226 57.3199 195.226 57.3654C195.226 57.2516 195.203 57.1378 195.18 57.0468C195.18 57.1151 195.18 57.2061 195.18 57.2744C195.18 57.1606 195.203 57.0468 195.226 56.9558C195.226 57.0468 195.18 57.1378 195.157 57.2288C195.203 57.1378 195.248 57.024 195.271 56.933C195.226 57.0013 195.203 57.0923 195.135 57.1606C195.203 57.0696 195.271 57.0013 195.339 56.9103C195.294 56.9558 195.248 57.024 195.203 57.0695C195.294 57.0013 195.362 56.933 195.453 56.8647C195.408 56.9103 195.362 56.933 195.294 56.9558C195.385 56.9103 195.499 56.8648 195.59 56.8193C195.544 56.8193 195.499 56.8647 195.43 56.8647C195.544 56.8647 195.658 56.842 195.749 56.8193C195.703 56.8193 195.658 56.8193 195.59 56.8193C195.703 56.8193 195.817 56.842 195.908 56.8647C195.908 56.8647 195.885 56.8647 195.863 56.8647C196.159 57.1606 196.432 57.4336 196.727 57.7295C196.727 57.7067 196.727 57.6612 196.727 57.6384L196.773 57.957C196.773 57.957 196.773 57.775 196.773 57.7067C196.773 57.8205 196.75 57.9343 196.727 58.0253C196.727 57.9343 196.773 57.8432 196.796 57.7522C196.75 57.8432 196.705 57.957 196.682 58.048C196.727 57.957 196.773 57.866 196.841 57.7977C196.773 57.8888 196.705 57.957 196.636 58.048C196.682 57.9798 196.75 57.9115 196.818 57.866C196.727 57.9343 196.659 58.0025 196.568 58.0708C196.636 58.0253 196.705 57.9798 196.773 57.957C196.909 57.8888 197.023 57.775 197.114 57.6384C197.228 57.5246 197.296 57.3881 197.342 57.2061C197.387 57.0468 197.41 56.8875 197.342 56.7055C197.342 56.5462 197.296 56.3869 197.205 56.2504C197.023 55.9773 196.773 55.7497 196.454 55.6815C196.341 55.6815 196.227 55.6587 196.136 55.636C195.908 55.636 195.703 55.7042 195.499 55.7952C195.43 55.818 195.385 55.8408 195.339 55.8863C195.203 55.9773 195.066 56.0683 194.952 56.1821C194.839 56.2958 194.748 56.4324 194.634 56.5689C194.588 56.6145 194.566 56.6827 194.543 56.7282C194.475 56.8647 194.406 57.024 194.361 57.1833C194.315 57.2971 194.315 57.4109 194.293 57.5247C194.293 57.6385 194.247 57.7522 194.27 57.866C194.27 58.0253 194.293 58.2073 194.338 58.3666C194.429 58.7535 194.793 59.1403 195.203 59.2313C195.339 59.2541 195.476 59.2768 195.635 59.2996C195.726 59.2996 195.817 59.2996 195.908 59.2768C195.999 59.2768 196.09 59.2769 196.159 59.2313C196.295 59.1858 196.409 59.1403 196.545 59.072C196.864 58.9127 197.091 58.6397 197.296 58.3666C197.365 58.2528 197.41 58.1391 197.456 58.0253C197.501 57.9115 197.547 57.7977 197.592 57.6612C197.66 57.2971 197.683 56.9558 197.592 56.5917C197.547 56.4552 197.501 56.3186 197.433 56.2048C197.433 56.1593 197.387 56.1366 197.365 56.1138C197.274 56 197.205 55.8863 197.092 55.7725C196.978 55.6815 196.864 55.5905 196.75 55.4994C196.614 55.4084 196.454 55.3629 196.295 55.3629C196.136 55.3174 195.976 55.3401 195.794 55.3629C195.635 55.4084 195.499 55.4767 195.362 55.5904C195.226 55.6815 195.112 55.7952 195.043 55.9318C194.884 56.2276 194.816 56.5689 194.93 56.8875C195.021 57.2061 195.226 57.4564 195.499 57.6384V57.6839Z" fill="black"/>
<path d="M177.977 57.2971C177.977 57.2971 178.022 57.3199 178.045 57.3426C177.954 57.2744 177.886 57.2061 177.795 57.1378C177.84 57.1606 177.863 57.2061 177.886 57.2288C177.818 57.1378 177.749 57.0696 177.681 56.9785C177.704 57.024 177.749 57.0695 177.772 57.1151C177.727 57.024 177.681 56.9103 177.658 56.8193C177.658 56.8648 177.704 56.933 177.704 56.9785L177.658 56.66C177.658 56.66 177.658 56.8193 177.658 56.8875L177.704 56.5689C177.704 56.5689 177.658 56.751 177.635 56.842L177.749 56.5462C177.749 56.5462 177.681 56.7055 177.613 56.7737C177.681 56.6827 177.749 56.6144 177.818 56.5234C177.772 56.5689 177.727 56.6372 177.681 56.6827C177.772 56.6144 177.84 56.5462 177.931 56.4779C177.886 56.5234 177.84 56.5462 177.772 56.5689C177.863 56.5234 177.977 56.4779 178.068 56.4324C178.022 56.4324 177.977 56.4779 177.909 56.4779C178.022 56.4779 178.136 56.4551 178.227 56.4324C178.182 56.4324 178.136 56.4324 178.068 56.4324L178.386 56.4779C178.386 56.4779 178.364 56.4779 178.341 56.4779C178.637 56.7737 178.91 57.0468 179.206 57.3426C179.206 57.3199 179.206 57.2743 179.206 57.2516C179.206 57.3654 179.228 57.4791 179.251 57.5702C179.251 57.4791 179.251 57.3881 179.251 57.3198L179.206 57.6384C179.206 57.6384 179.251 57.4564 179.274 57.3654C179.228 57.4564 179.183 57.5702 179.16 57.6612C179.206 57.5702 179.251 57.4792 179.319 57.4109C179.251 57.5019 179.183 57.5702 179.115 57.6612C179.16 57.5929 179.228 57.5247 179.297 57.4792C179.206 57.5474 179.137 57.6157 179.046 57.6839C179.115 57.6384 179.183 57.5929 179.251 57.5702C179.388 57.5019 179.501 57.3881 179.592 57.2516C179.706 57.1378 179.775 57.0013 179.82 56.8193C179.866 56.66 179.888 56.5007 179.82 56.3186C179.82 56.1593 179.775 56 179.683 55.8635C179.524 55.5904 179.251 55.3629 178.933 55.2946C178.819 55.2946 178.705 55.2719 178.614 55.2491C178.386 55.2491 178.182 55.3174 178 55.4084C177.931 55.4311 177.886 55.4539 177.84 55.4994C177.704 55.5905 177.567 55.6815 177.453 55.7952C177.34 55.909 177.249 56.0455 177.135 56.1821C177.089 56.2276 177.067 56.2959 177.044 56.3414C176.976 56.4779 176.907 56.6372 176.862 56.7965C176.816 56.9103 176.816 57.0241 176.794 57.1378C176.794 57.2516 176.748 57.3654 176.771 57.4792C176.771 57.6384 176.794 57.8205 176.839 57.9798C176.93 58.3666 177.294 58.7535 177.704 58.8445C177.84 58.8673 177.977 58.89 178.136 58.9128C178.227 58.9128 178.318 58.9127 178.409 58.89C178.5 58.89 178.591 58.89 178.659 58.8445C178.796 58.799 178.91 58.7535 179.046 58.6852C179.365 58.5259 179.592 58.2528 179.797 57.9798C179.866 57.866 179.911 57.7522 179.957 57.6384C180.002 57.5246 180.048 57.4109 180.093 57.2744C180.161 56.9103 180.184 56.5689 180.093 56.2048C180.048 56.0683 180.002 55.9318 179.934 55.818C179.934 55.7725 179.888 55.7497 179.866 55.727C179.775 55.6132 179.706 55.4994 179.592 55.3856C179.479 55.2946 179.365 55.2036 179.251 55.1126C179.115 55.0216 178.955 54.976 178.796 54.976C178.637 54.9305 178.477 54.9533 178.295 54.976C178.136 55.0215 178 55.0898 177.863 55.2036C177.727 55.2946 177.613 55.4084 177.544 55.5449C177.385 55.8407 177.317 56.1821 177.431 56.5006C177.522 56.8192 177.727 57.0695 178 57.2516L177.977 57.2971Z" fill="black"/>
<path d="M188.285 59.0038C187.147 59.4589 185.987 59.914 184.849 60.3691C183.666 60.8243 182.505 61.3021 182.073 62.5992C181.686 63.6915 182.096 64.9658 182.778 65.876C183.12 66.3539 183.529 66.7634 183.916 67.173C184.007 67.2641 184.075 67.3551 184.144 67.4461C184.144 67.4461 184.394 67.7419 184.235 67.5599C184.394 67.7874 184.53 68.015 184.644 68.2653C184.917 68.857 185.828 69.039 186.351 68.7204C186.965 68.3336 187.079 67.6509 186.806 67.0138C186.419 66.1491 185.714 65.5119 185.099 64.8292C185.008 64.7382 184.94 64.6472 184.872 64.5562C184.735 64.3969 184.872 64.6017 184.826 64.4879C184.712 64.3059 184.599 64.1238 184.508 63.9418C184.576 64.101 184.508 63.9418 184.508 63.8507C184.508 63.8052 184.417 63.4866 184.439 63.6232C184.462 63.7825 184.439 63.4867 184.439 63.4639C184.439 63.2136 184.348 63.6004 184.439 63.3729C184.53 63.1681 184.417 63.4639 184.462 63.3273C184.508 63.2136 184.348 63.4184 184.508 63.2819C184.712 63.0998 184.371 63.3501 184.599 63.2136C184.69 63.1681 184.781 63.0998 184.895 63.0543C184.917 63.0543 185.19 62.9178 185.054 62.986C184.917 63.0543 185.19 62.9405 185.213 62.9178C185.486 62.804 185.759 62.713 186.032 62.5992C187.034 62.2123 188.012 61.8027 189.013 61.4159C189.605 61.1883 190.106 60.5739 189.878 59.8913C189.696 59.2996 188.991 58.7762 188.353 59.0265L188.285 59.0038Z" fill="black"/>
<path d="M193.451 51.813C193.769 51.722 194.088 51.631 194.406 51.5855C194.429 51.5855 194.657 51.54 194.52 51.5855C194.384 51.5855 194.611 51.5855 194.657 51.5855C194.839 51.5855 194.998 51.5627 195.18 51.5627C195.521 51.5627 195.84 51.5855 196.181 51.6082C195.999 51.5855 196.386 51.6082 196.181 51.6082C196.25 51.6082 196.341 51.631 196.409 51.6537C196.591 51.6765 196.75 51.722 196.932 51.7675C197.228 51.8358 197.524 51.9268 197.82 52.0406C197.842 52.0406 198.115 52.1771 198.002 52.1088C197.888 52.0633 198.093 52.1544 198.116 52.1771C198.252 52.2454 198.389 52.3136 198.525 52.3819C198.821 52.5412 199.094 52.7233 199.367 52.9053C199.253 52.837 199.322 52.8825 199.39 52.9053C199.458 52.9736 199.549 53.0191 199.617 53.0873C199.754 53.2011 199.868 53.3149 200.004 53.4514C200.459 53.9065 201.301 53.952 201.756 53.4514C202.211 52.9508 202.234 52.1999 201.756 51.6993C199.458 49.3782 195.908 48.468 192.768 49.4237C192.154 49.6058 191.698 50.2884 191.903 50.9483C192.108 51.5627 192.768 52.0178 193.428 51.813H193.451Z" fill="black"/>
<path d="M179.41 50.0836C177.249 49.5602 174.791 50.607 173.79 52.6322C173.494 53.2011 173.608 53.9976 174.245 54.3389C174.814 54.6347 175.633 54.5209 175.952 53.8838C176.02 53.7473 176.088 53.6107 176.179 53.4742C176.202 53.4287 176.361 53.2239 176.225 53.4059C176.088 53.588 176.225 53.4059 176.27 53.3604C176.384 53.2466 176.498 53.1328 176.612 53.0191C176.657 52.9736 176.703 52.9508 176.748 52.9053C176.452 53.1784 176.657 52.9736 176.748 52.9053C176.862 52.837 176.976 52.746 177.112 52.7005C177.18 52.655 177.249 52.6322 177.317 52.5867C177.499 52.4957 176.998 52.7005 177.294 52.5867C177.567 52.473 177.863 52.4047 178.159 52.3819C178.045 52.3819 177.931 52.4047 177.84 52.4274C178.159 52.3819 178.455 52.3819 178.773 52.4274C178.66 52.4274 178.546 52.4047 178.455 52.3819C178.569 52.3819 178.682 52.4274 178.796 52.4502C179.433 52.6095 180.161 52.2454 180.321 51.5855C180.457 50.9483 180.139 50.2202 179.456 50.0609L179.41 50.0836Z" fill="black"/>
<path d="M217.776 63.4184C215.797 64.3741 214.477 66.6724 214.659 68.8797C214.704 69.5168 215.182 70.154 215.888 70.1313C216.525 70.1085 217.185 69.5851 217.116 68.8797C217.094 68.5839 217.116 68.288 217.116 67.9922C217.116 68.106 217.094 68.2198 217.071 68.3108C217.116 67.9695 217.207 67.6281 217.321 67.2868C217.321 67.2413 217.389 67.1048 217.321 67.2868C217.23 67.4916 217.321 67.2868 217.321 67.2641C217.367 67.1958 217.389 67.1048 217.435 67.0365C217.526 66.8772 217.617 66.7179 217.708 66.5814C217.731 66.5359 217.754 66.5131 217.776 66.4676C217.867 66.3538 217.594 66.6724 217.708 66.5586C217.754 66.4904 217.822 66.4221 217.867 66.3538C217.981 66.2173 218.118 66.1035 218.254 65.967C218.277 65.9442 218.322 65.9215 218.345 65.876C218.482 65.7622 218.254 65.9442 218.254 65.9442C218.254 65.9442 218.436 65.8077 218.459 65.8077C218.618 65.6939 218.778 65.6029 218.96 65.5346C219.551 65.2616 219.756 64.3741 219.415 63.828C219.028 63.2363 218.345 63.077 217.708 63.3729L217.776 63.4184Z" fill="black"/>
<path d="M192.563 73.4536C194.543 72.8847 196.477 72.0882 198.047 70.7229C199.526 69.4258 200.505 67.6054 200.596 65.6484C200.641 64.9885 200.004 64.3741 199.367 64.4196C198.662 64.4424 198.161 64.9657 198.138 65.6484C198.138 65.7622 198.138 65.876 198.116 65.9897C198.116 65.8077 198.116 65.9214 198.116 66.0352C198.07 66.2173 198.047 66.3993 197.979 66.5586C197.956 66.6497 197.934 66.7407 197.888 66.8089C197.888 66.8317 197.729 67.1502 197.842 66.9227C197.751 67.082 197.683 67.264 197.592 67.4233C197.501 67.5826 197.41 67.7419 197.296 67.9012C197.228 67.9922 197.16 68.0832 197.092 68.1743C197.205 68.0377 197.092 68.1743 197.046 68.2198C196.796 68.5156 196.523 68.7887 196.227 69.039C196.227 69.039 195.999 69.221 196.09 69.1528C196.181 69.0845 195.931 69.2665 195.908 69.2893C195.749 69.4031 195.567 69.5168 195.385 69.6306C195.021 69.8582 194.634 70.063 194.247 70.245C194.156 70.2905 194.065 70.336 193.974 70.3815C194.179 70.2905 193.815 70.4498 193.815 70.4498C193.633 70.5181 193.428 70.6091 193.223 70.6774C192.791 70.8367 192.358 70.9732 191.926 71.087C191.312 71.269 190.857 71.9744 191.061 72.6116C191.266 73.2487 191.926 73.6811 192.586 73.4763L192.563 73.4536Z" fill="black"/>
<path d="M198.366 65.7849C198.366 65.7849 198.525 65.7849 198.593 65.8077C198.48 65.8077 198.366 65.7849 198.275 65.7622C198.73 65.8304 199.162 65.9442 199.572 66.1263L199.276 66.0125C199.663 66.1718 200.027 66.3993 200.346 66.6496C200.255 66.5814 200.186 66.5131 200.095 66.4448C200.118 66.4448 200.141 66.4904 200.163 66.4904C200.277 66.6041 200.414 66.6951 200.573 66.7406C200.71 66.8089 200.869 66.8544 201.051 66.8544C201.347 66.8544 201.711 66.7179 201.938 66.4904C202.166 66.2628 202.325 65.9442 202.303 65.6029C202.303 65.307 202.189 64.9202 201.938 64.7154C201.665 64.5106 201.392 64.2831 201.096 64.1238C200.801 63.9417 200.482 63.8052 200.163 63.6914C199.595 63.4639 199.003 63.3501 198.411 63.3046C198.115 63.2818 197.729 63.4639 197.524 63.6687C197.319 63.8735 197.137 64.2376 197.16 64.5561C197.16 64.8747 197.274 65.216 197.524 65.4436C197.615 65.5119 197.683 65.5801 197.774 65.6484C197.956 65.7622 198.184 65.8077 198.411 65.8077L198.366 65.7849Z" fill="black"/>
<path d="M156.359 335.643C156.473 340.171 156.496 344.7 156.564 349.228C156.587 351.344 156.609 353.461 156.655 355.6C156.655 355.918 156.746 356.419 156.655 356.715C156.405 357.693 154.721 357.807 153.901 358.035C151.762 358.649 149.601 359.195 147.439 359.764C143.297 360.811 139.11 361.835 135.014 363.086C133.376 363.587 131.214 363.974 129.758 364.907C128.961 365.407 128.62 366.363 128.461 367.251C128.097 369.207 128.165 371.802 129.212 373.554C129.781 374.487 130.532 374.737 131.578 374.76C133.945 374.828 136.311 374.851 138.678 374.896C148.872 375.169 159.067 375.738 169.239 376.58C169.944 376.649 170.422 375.966 170.468 375.329C170.968 368.57 170.968 361.766 170.991 355.008C171.014 347.863 171.014 340.718 170.695 333.595C170.65 332.776 170.741 331.797 170.217 331.092C169.421 330.045 168.078 330.432 166.986 330.591C163.527 331.115 160.091 331.638 156.632 332.161C155.062 332.389 155.722 334.801 157.292 334.551C159.204 334.255 161.115 333.982 163.004 333.686C163.914 333.55 164.824 333.413 165.734 333.276C166.531 333.163 168.078 332.662 168.829 332.912C168.579 332.73 168.329 332.526 168.078 332.344C168.511 333.026 168.26 334.687 168.306 335.484C168.351 336.735 168.374 338.01 168.397 339.261C168.465 342.288 168.488 345.337 168.511 348.363C168.533 354.712 168.511 361.061 168.351 367.41C168.283 370.049 168.192 372.689 168.01 375.306C168.42 374.896 168.829 374.487 169.239 374.054C160.523 373.326 151.785 372.826 143.047 372.507C141.045 372.439 139.042 372.371 137.04 372.325C135.947 372.302 134.855 372.28 133.763 372.257C133.217 372.257 132.671 372.257 132.124 372.234C131.76 372.234 131.396 372.234 131.032 372.234C131.465 372.462 131.556 372.484 131.351 372.28C131.351 372.211 131.1 371.642 131.1 371.597C130.964 371.142 130.873 370.641 130.827 370.163C130.736 369.162 130.827 368.206 131.009 367.228C131.032 367.091 131.1 366.977 131.169 366.864C130.873 367.273 131.624 366.795 131.783 366.727C132.739 366.386 133.717 366.067 134.696 365.749C136.653 365.134 138.632 364.565 140.612 364.042C144.594 362.972 148.599 362.04 152.582 360.947C154.175 360.515 156.132 360.219 157.611 359.4C158.999 358.649 159.158 357.306 159.135 355.873C159.112 354.075 159.067 352.255 159.044 350.457C158.976 345.519 158.953 340.581 158.839 335.643C158.794 334.05 156.314 334.05 156.359 335.643Z" fill="black"/>
<path d="M130.076 370.618C143.002 371.324 155.927 371.597 168.852 371.46C170.445 371.46 170.445 368.957 168.852 368.98C155.927 369.117 142.979 368.843 130.076 368.138C128.484 368.047 128.484 370.527 130.076 370.618Z" fill="black"/>
<path d="M135.72 365.612C135.72 365.612 135.925 365.68 136.016 365.726C135.925 365.68 135.811 365.635 135.72 365.612C136.198 365.817 136.653 366.09 137.062 366.409C136.971 366.34 136.903 366.272 136.812 366.204C137.222 366.522 137.586 366.886 137.904 367.296C137.836 367.205 137.768 367.137 137.7 367.046C138.018 367.455 138.291 367.91 138.496 368.388C138.45 368.297 138.405 368.183 138.382 368.092C138.382 368.092 138.382 368.115 138.382 368.138C138.519 368.457 138.655 368.707 138.951 368.889C139.224 369.048 139.611 369.117 139.907 369.003C140.203 368.912 140.498 368.73 140.658 368.434C140.794 368.161 140.908 367.774 140.772 367.478C140.362 366.5 139.816 365.612 139.019 364.861C138.246 364.133 137.335 363.587 136.334 363.223C136.038 363.109 135.629 363.2 135.378 363.337C135.128 363.496 134.878 363.792 134.81 364.088C134.741 364.406 134.764 364.77 134.923 365.043C135.105 365.316 135.356 365.498 135.674 365.612H135.72Z" fill="black"/>
<path d="M162.207 370.095C162.389 369.776 162.594 369.458 162.822 369.162C162.753 369.253 162.776 369.23 162.822 369.162C162.89 369.094 162.935 369.025 163.004 368.957C163.117 368.821 163.254 368.684 163.368 368.548C163.618 368.297 163.868 368.047 164.141 367.842C164.141 367.842 164.392 367.637 164.278 367.728C164.164 367.819 164.392 367.637 164.415 367.615C164.574 367.501 164.71 367.41 164.87 367.296C165.165 367.114 165.461 366.932 165.78 366.773C165.871 366.727 165.939 366.682 166.03 366.659C166.053 366.659 166.326 366.522 166.189 366.591C166.053 366.659 166.349 366.522 166.349 366.522C166.417 366.5 166.485 366.477 166.554 366.454C166.895 366.34 167.259 366.227 167.623 366.136C167.782 366.09 167.942 366.067 168.124 366.044C168.215 366.044 168.306 366.022 168.397 365.999C168.169 366.022 168.42 365.999 168.511 365.999C169.148 365.931 169.785 365.476 169.739 364.747C169.717 364.133 169.193 363.428 168.511 363.496C165.029 363.837 161.843 365.794 160.045 368.843C159.727 369.412 159.909 370.232 160.501 370.55C161.092 370.869 161.843 370.709 162.207 370.095Z" fill="black"/>
<path d="M148.19 358.831C148.463 358.945 148.736 359.081 148.986 359.241C149.1 359.309 149.214 359.4 149.35 359.491C149.168 359.332 149.464 359.582 149.35 359.491C149.419 359.536 149.487 359.605 149.555 359.65C149.76 359.855 149.965 360.06 150.147 360.265C150.056 360.128 150.306 360.447 150.147 360.265C150.192 360.333 150.238 360.378 150.283 360.447C150.374 360.583 150.465 360.72 150.534 360.856C150.602 360.97 150.67 361.107 150.738 361.243C150.761 361.311 150.807 361.38 150.829 361.448C150.761 361.266 150.943 361.698 150.829 361.448C150.943 361.744 151.034 362.017 151.103 362.313C151.103 362.381 151.216 362.677 151.194 362.745C151.194 362.563 151.171 362.54 151.194 362.631C151.194 362.654 151.194 362.699 151.194 362.722C151.194 362.79 151.194 362.859 151.194 362.927C151.194 363.246 151.194 363.564 151.171 363.883C151.103 364.52 151.785 365.157 152.422 365.134C153.151 365.111 153.583 364.588 153.674 363.883C153.992 360.993 152.195 357.898 149.51 356.737C149.191 356.601 148.895 356.51 148.554 356.601C148.258 356.669 147.962 356.897 147.803 357.17C147.53 357.693 147.621 358.603 148.258 358.876L148.19 358.831Z" fill="black"/>
<path d="M143.07 360.219C143.206 360.287 143.343 360.378 143.479 360.469C143.548 360.515 143.616 360.56 143.684 360.606C143.73 360.651 143.912 360.788 143.684 360.606C143.912 360.788 144.139 360.993 144.344 361.22C144.435 361.334 144.526 361.425 144.617 361.539C144.64 361.584 144.822 361.835 144.663 361.584C144.708 361.63 144.731 361.675 144.776 361.744C144.959 361.994 145.118 362.267 145.277 362.563C145.3 362.608 145.345 362.677 145.368 362.722C145.368 362.722 145.505 362.995 145.414 362.836C145.345 362.677 145.436 362.927 145.459 362.95C145.482 363.018 145.505 363.109 145.55 363.177C145.641 363.45 145.732 363.746 145.778 364.042C145.778 364.11 145.8 364.201 145.823 364.27C145.823 364.019 145.846 364.429 145.823 364.27C145.823 364.429 145.846 364.588 145.846 364.747C145.846 365.066 145.846 365.385 145.8 365.703C145.732 366.34 146.415 366.977 147.029 366.955C147.757 366.932 148.19 366.409 148.258 365.703C148.622 362.699 146.938 359.559 144.299 358.103C143.73 357.784 142.91 357.944 142.592 358.558C142.296 359.15 142.433 359.923 143.047 360.265L143.07 360.219Z" fill="black"/>
<path d="M154.379 355.804C154.539 355.85 154.698 355.896 154.857 355.941C154.925 355.964 155.017 355.987 155.085 356.032C155.312 356.1 154.926 355.964 155.062 356.032C155.358 356.169 155.631 356.305 155.904 356.487C155.972 356.533 156.018 356.555 156.086 356.601C156.109 356.624 156.154 356.646 156.177 356.669C156.041 356.578 156.018 356.555 156.086 356.601C156.2 356.692 156.314 356.806 156.427 356.897C156.541 357.011 156.678 357.124 156.769 357.261C156.814 357.306 156.86 357.375 156.905 357.42C156.928 357.443 157.11 357.693 156.996 357.534C156.882 357.375 157.019 357.579 157.042 357.602C157.087 357.67 157.133 357.739 157.178 357.807C157.269 357.944 157.338 358.057 157.406 358.194C157.474 358.33 157.542 358.467 157.611 358.603C157.52 358.376 157.724 358.854 157.611 358.603C157.633 358.672 157.679 358.763 157.702 358.831C157.793 359.127 157.861 359.423 157.929 359.718C157.906 359.423 157.997 360.014 157.929 359.718C157.929 359.809 157.929 359.878 157.929 359.969C157.929 360.128 157.929 360.31 157.929 360.469C157.929 361.129 158.521 361.744 159.181 361.721C159.863 361.698 160.41 361.175 160.41 360.469C160.501 357.238 158.111 354.121 154.971 353.392C154.334 353.256 153.606 353.597 153.446 354.257C153.31 354.894 153.628 355.622 154.311 355.782L154.379 355.804Z" fill="black"/>
<path d="M157.315 350.434C161.183 351.049 165.097 351.413 169.011 351.504C170.604 351.549 170.604 349.069 169.011 349.023C165.325 348.932 161.638 348.614 157.975 348.045C157.315 347.931 156.632 348.204 156.45 348.91C156.291 349.501 156.655 350.32 157.315 350.434Z" fill="black"/>
<path d="M164.141 334.505C164.073 339.284 164.005 344.063 163.937 348.819C163.937 350.411 166.394 350.411 166.417 348.819C166.485 344.04 166.554 339.261 166.622 334.505C166.622 332.912 164.164 332.912 164.141 334.505Z" fill="black"/>
<path d="M394.018 308.382C398.319 306.971 402.642 305.651 406.966 304.286C408.991 303.649 411.017 303.012 413.042 302.374C413.36 302.261 413.77 302.079 414.089 302.033C415.113 301.942 415.795 303.694 416.273 304.422C417.411 306.197 418.503 307.995 419.573 309.793C421.734 313.388 423.851 317.029 426.172 320.533C427.196 322.081 428.265 324.106 429.631 325.38C430.313 326.017 431.315 326.086 432.202 325.995C434.204 325.79 436.708 324.971 438.118 323.446C439.006 322.468 438.778 321.535 438.437 320.351C437.823 318.19 437.231 316.028 436.639 313.866C433.977 304.058 431.61 294.182 429.517 284.261C429.38 283.578 428.607 283.26 427.992 283.396C421.257 284.875 414.635 286.878 408.013 288.858C401.254 290.86 394.496 292.885 387.829 295.229C387.1 295.48 386.259 295.662 385.735 296.253C384.825 297.3 385.599 298.529 386.076 299.576C387.578 302.739 389.057 305.879 390.559 309.042C391.242 310.475 393.381 309.224 392.698 307.79C391.47 305.219 390.264 302.648 389.035 300.076C388.784 299.53 388.557 298.825 388.215 298.324C388.124 298.187 387.874 297.482 387.51 297.96C387.556 297.914 387.806 297.846 387.874 297.823C388.42 297.619 388.989 297.437 389.558 297.232C392.448 296.23 395.383 295.32 398.296 294.387C405.35 292.18 412.45 290.064 419.573 288.107C422.576 287.288 425.58 286.468 428.629 285.786C428.129 285.49 427.605 285.217 427.105 284.921C428.902 293.363 430.882 301.76 433.067 310.111C433.613 312.205 434.182 314.276 434.751 316.369C434.978 317.234 435.228 318.099 435.479 318.963C435.615 319.487 435.775 320.01 435.911 320.511C436.002 320.852 436.116 321.193 436.207 321.557C436.343 322.172 436.389 322.263 436.343 321.808C435.593 322.695 432.68 323.969 431.451 323.583C431.132 323.492 431.019 323.15 430.768 322.809C430.222 322.058 429.699 321.307 429.175 320.556C427.947 318.758 426.763 316.915 425.626 315.049C423.6 311.75 421.666 308.405 419.618 305.105C418.662 303.558 417.752 301.669 416.478 300.372C415.408 299.28 414.111 299.416 412.792 299.849C411.017 300.417 409.264 300.964 407.489 301.532C402.779 303.012 398.046 304.468 393.358 305.993C391.856 306.493 392.494 308.883 394.018 308.382Z" fill="black"/>
<path d="M435.092 323.537C432.065 310.953 428.607 298.483 424.761 286.15C424.283 284.625 421.894 285.285 422.372 286.81C426.217 299.166 429.676 311.636 432.703 324.197C433.067 325.744 435.479 325.084 435.092 323.537Z" fill="black"/>
<path d="M428.675 319.578C428.675 319.418 428.698 319.259 428.72 319.1L428.675 319.418C428.72 319.054 428.811 318.69 428.925 318.349C428.948 318.258 428.993 318.167 429.016 318.099C429.016 318.076 429.039 317.985 429.062 317.962C429.062 317.962 428.948 318.235 429.016 318.076C429.107 317.894 429.175 317.734 429.266 317.552C429.358 317.393 429.449 317.234 429.562 317.097C429.608 317.029 429.676 316.938 429.722 316.87C429.813 316.733 429.562 317.075 429.653 316.961C429.676 316.915 429.722 316.892 429.744 316.847C429.995 316.551 430.245 316.301 430.541 316.051C430.768 315.868 430.905 315.459 430.905 315.163C430.905 314.867 430.768 314.503 430.541 314.276C430.313 314.048 429.995 313.889 429.653 313.911C429.312 313.911 429.039 314.048 428.766 314.276C427.196 315.573 426.285 317.53 426.172 319.532C426.126 320.192 426.763 320.806 427.401 320.761C428.106 320.738 428.607 320.215 428.629 319.532L428.675 319.578Z" fill="black"/>
<path d="M425.398 292.885C425.057 292.794 424.715 292.703 424.374 292.567C424.283 292.544 424.192 292.499 424.101 292.453C424.397 292.567 424.101 292.453 424.033 292.43C423.873 292.362 423.737 292.294 423.6 292.225C423.282 292.066 422.963 291.884 422.667 291.679C422.508 291.566 422.349 291.452 422.189 291.338C422.28 291.406 422.326 291.429 422.189 291.338C422.121 291.27 422.03 291.224 421.962 291.156C421.689 290.928 421.439 290.678 421.188 290.405C421.074 290.269 420.938 290.132 420.824 289.995C420.756 289.927 420.71 289.836 420.642 289.768C420.71 289.859 420.756 289.904 420.642 289.768C420.437 289.472 420.232 289.176 420.05 288.858C419.959 288.698 419.868 288.539 419.8 288.38C419.755 288.289 419.709 288.198 419.664 288.107C419.641 288.038 419.527 287.765 419.641 288.038C419.391 287.447 418.799 286.946 418.116 287.174C417.547 287.356 416.978 288.061 417.252 288.698C418.571 291.93 421.348 294.456 424.761 295.297C425.398 295.457 426.126 295.093 426.285 294.433C426.422 293.796 426.103 293.067 425.421 292.908L425.398 292.885Z" fill="black"/>
<path d="M418.64 309.224C418.662 308.974 418.594 309.497 418.64 309.269C418.64 309.201 418.662 309.133 418.685 309.065C418.708 308.905 418.753 308.746 418.799 308.609C418.844 308.473 418.89 308.336 418.935 308.2C419.026 307.927 418.867 308.336 418.935 308.223C418.958 308.154 419.004 308.086 419.027 308.018C419.163 307.745 419.322 307.472 419.482 307.221C419.527 307.153 419.573 307.108 419.618 307.039C419.436 307.244 419.755 306.857 419.618 307.039C419.709 306.926 419.8 306.812 419.914 306.721C420.119 306.516 420.346 306.334 420.551 306.129C420.301 306.357 420.46 306.197 420.551 306.129C420.619 306.084 420.665 306.038 420.733 305.993C420.847 305.902 420.983 305.833 421.097 305.765C421.211 305.697 421.348 305.628 421.484 305.56C421.53 305.56 421.575 305.515 421.621 305.492C421.575 305.515 421.507 305.537 421.461 305.56C421.53 305.56 421.598 305.515 421.666 305.492C421.962 305.378 422.258 305.31 422.576 305.242C423.214 305.128 423.646 304.309 423.441 303.717C423.214 303.034 422.599 302.716 421.916 302.852C420.483 303.125 419.118 303.922 418.116 304.991C417.024 306.175 416.387 307.608 416.205 309.178C416.137 309.816 416.819 310.453 417.434 310.43C418.162 310.407 418.594 309.884 418.662 309.178L418.64 309.224Z" fill="black"/>
<path d="M421.393 314.071C421.461 313.752 421.552 313.456 421.666 313.161C421.666 313.115 421.689 313.092 421.712 313.047C421.757 312.933 421.757 312.956 421.666 313.138C421.712 313.092 421.734 313.001 421.757 312.933C421.825 312.796 421.894 312.66 421.962 312.523C422.03 312.387 422.121 312.273 422.189 312.137C422.235 312.068 422.28 312.023 422.326 311.955C422.326 311.932 422.372 311.886 422.394 311.864C422.44 311.795 422.417 311.818 422.326 311.955C422.44 311.864 422.531 311.704 422.622 311.613C422.736 311.499 422.849 311.363 422.963 311.249C423.077 311.135 423.191 311.044 423.305 310.953C423.35 310.931 423.555 310.771 423.396 310.885C423.213 310.999 423.487 310.817 423.509 310.794C423.76 310.612 424.01 310.453 424.283 310.316C424.42 310.248 424.556 310.18 424.693 310.111C424.374 310.271 424.602 310.157 424.693 310.111C424.761 310.089 424.829 310.066 424.897 310.043C425.216 309.929 425.535 309.861 425.853 309.816C426.49 309.702 426.923 308.883 426.718 308.291C426.49 307.608 425.876 307.312 425.193 307.426C422.235 307.927 419.664 310.43 419.049 313.365C418.913 314.003 419.231 314.731 419.914 314.89C420.528 315.027 421.302 314.708 421.439 314.025L421.393 314.071Z" fill="black"/>
<path d="M413.929 304.513C413.929 304.195 413.929 303.876 413.929 303.558C413.884 303.831 413.952 303.262 413.929 303.558C413.929 303.489 413.952 303.421 413.975 303.353C413.998 303.194 414.043 303.034 414.089 302.898C414.134 302.738 414.202 302.602 414.248 302.443C414.134 302.67 414.293 302.306 414.248 302.443C414.293 302.374 414.316 302.283 414.362 302.215C414.498 301.942 414.657 301.669 414.839 301.396C414.839 301.373 415.022 301.168 414.908 301.305C414.794 301.464 414.953 301.259 414.976 301.237C415.09 301.1 415.204 300.986 415.317 300.85C415.408 300.759 415.522 300.645 415.636 300.554C415.681 300.508 415.818 300.44 415.841 300.395L415.727 300.486C415.727 300.486 415.818 300.417 415.863 300.395C416.114 300.213 416.364 300.076 416.637 299.94C416.683 299.917 416.774 299.849 416.842 299.849C416.683 299.917 416.66 299.917 416.774 299.871C416.796 299.871 416.819 299.871 416.865 299.849C417.024 299.78 417.183 299.735 417.365 299.689C418.002 299.53 418.435 298.802 418.23 298.165C418.025 297.527 417.365 297.118 416.705 297.3C413.588 298.142 411.267 301.282 411.449 304.536C411.494 305.173 411.995 305.811 412.678 305.788C413.315 305.765 413.952 305.242 413.906 304.536L413.929 304.513Z" fill="black"/>
<path d="M407.876 302.898C407.353 299.12 406.602 295.389 405.601 291.725C405.191 290.177 402.779 290.837 403.211 292.385C404.213 296.048 404.963 299.78 405.487 303.558C405.578 304.218 406.42 304.582 407.012 304.422C407.717 304.218 407.967 303.558 407.876 302.898Z" fill="black"/>
<path d="M390.673 301.259C395.27 299.962 399.866 298.643 404.44 297.345C405.965 296.913 405.328 294.524 403.78 294.956C399.184 296.253 394.587 297.573 390.013 298.87C388.489 299.302 389.126 301.692 390.673 301.259Z" fill="black"/>
<path d="M219.665 102.968C225.673 103.332 229.336 108.497 232.772 112.798C237.096 118.191 239.553 124.813 241.738 131.298C244.105 138.261 246.016 145.384 247.04 152.688C247.95 159.128 248.724 166.729 245.879 172.827C240.668 184 225.604 184.25 215.068 184.41C201.188 184.614 187.307 183.158 173.767 180.132C158.453 176.718 143.616 171.28 129.735 163.975C129.894 164.544 130.031 165.113 130.19 165.682C133.262 160.152 135.629 154.281 137.222 148.16C136.721 148.456 136.198 148.729 135.697 149.025C155.745 154.145 175.883 159.606 196.5 161.859C201.916 162.451 207.377 162.792 212.816 162.61C213.385 162.61 213.84 162.246 214.022 161.7C214.841 159.037 214.864 156.102 214.818 153.348C214.75 149.912 214.431 146.499 213.976 143.086C213.612 140.309 213.18 137.51 212.543 134.757C212.292 133.71 211.86 130.866 210.153 131.435C208.651 131.935 209.289 134.325 210.813 133.824C210.222 133.915 209.812 133.756 209.562 133.346C209.562 133.369 209.607 133.414 209.63 133.437C209.584 133.232 209.584 133.574 209.63 133.437C209.698 133.71 209.812 133.983 209.88 134.256C210.13 135.098 210.313 135.986 210.472 136.851C210.995 139.49 211.405 142.13 211.723 144.792C212.065 147.773 212.315 150.777 212.361 153.781C212.383 156.193 212.361 158.696 211.655 161.017C212.065 160.721 212.452 160.403 212.861 160.107C202.94 160.425 193.018 159.128 183.279 157.444C172.811 155.624 162.458 153.212 152.127 150.64C146.87 149.321 141.636 147.978 136.38 146.635C135.743 146.476 135.037 146.84 134.855 147.5C133.308 153.417 131.032 159.083 128.074 164.43C127.755 164.999 127.915 165.818 128.529 166.137C154.652 179.881 184.121 187.118 213.635 186.913C224.808 186.844 239.713 186.708 246.744 176.377C250.658 170.62 250.59 163.133 249.975 156.466C249.27 148.774 247.518 141.22 245.197 133.847C242.785 126.224 240.1 118.282 235.184 111.865C231.179 106.631 226.788 100.897 219.688 100.487C218.095 100.396 218.095 102.877 219.688 102.968H219.665Z" fill="black"/>
<path d="M194.247 86.1057C188.786 86.2422 183.302 86.1512 177.863 86.9704C175.36 87.3345 172.811 87.9033 170.559 89.0639C167.6 90.5885 164.892 92.7958 162.389 94.9803C156.791 99.8727 151.694 105.425 146.642 110.886C144.026 113.708 141.431 116.575 138.86 119.488C137.768 120.74 136.835 122.128 135.037 122.15C132.989 122.196 130.759 121.582 128.757 121.263C119.882 119.943 111.03 118.623 102.155 117.303C101.382 117.19 100.585 117.622 100.585 118.51C100.608 120.876 100.631 123.243 100.676 125.587C100.699 127.817 100.449 130.274 100.813 132.481C101.245 135.098 104.09 135.03 106.138 135.736C110.12 137.146 113.829 139.354 117.584 141.242C127.391 146.112 138.086 149.616 149.032 146.613C157.338 144.337 164.346 138.944 170.217 132.8C171.309 131.639 169.557 129.887 168.465 131.048C163.345 136.418 157.36 141.242 150.261 143.654C145.163 145.384 139.725 145.725 134.423 144.769C125.275 143.086 117.629 138.011 109.232 134.347C108.299 133.938 107.366 133.551 106.411 133.232C105.591 132.959 104.476 132.914 103.725 132.527C103.088 132.208 103.475 132.618 103.248 131.958C103.066 131.435 103.248 130.524 103.225 129.956C103.225 128.681 103.202 127.407 103.179 126.133L103.088 118.51C102.565 118.919 102.042 119.306 101.518 119.716C109.483 120.899 117.47 122.082 125.434 123.265C127.323 123.539 129.189 123.834 131.078 124.107C132.921 124.381 135.037 124.972 136.858 124.403C138.132 123.994 139.065 123.015 139.93 122.037C141.318 120.467 142.728 118.874 144.139 117.303C149.237 111.637 154.47 106.062 159.909 100.715C164.346 96.3456 169.352 91.4077 175.588 89.9286C181.663 88.4722 188.058 88.7453 194.247 88.6087C195.84 88.5632 195.84 86.0829 194.247 86.1284V86.1057Z" fill="black"/>
<path d="M168.101 111.501C168.806 117.713 168.397 123.971 168.875 130.183C169.489 138.33 172.083 145.998 175.36 153.417C175.997 154.873 178.136 153.621 177.499 152.165C174.336 144.974 171.833 137.488 171.31 129.614C170.9 123.584 171.241 117.531 170.581 111.501C170.399 109.931 167.919 109.908 168.101 111.501Z" fill="black"/>
<path d="M196.523 186.025C197.683 188.096 198.912 190.144 200.163 192.192C201.415 194.24 202.53 196.402 203.827 198.45C206.467 202.591 212.292 202.773 216.73 202.933C226.037 203.251 234.638 199.997 243.172 196.698C248.428 194.672 253.73 192.738 259.214 191.418C260.011 191.236 260.329 190.281 259.965 189.598C258.418 186.822 256.848 184.068 255.391 181.224C254.754 179.95 254.162 178.721 253.776 177.333C253.389 175.899 253.161 174.42 252.865 172.964C252.228 169.823 251.455 166.729 250.635 163.657C250.226 162.109 247.836 162.769 248.246 164.317C249.088 167.48 249.884 170.643 250.522 173.851C250.817 175.285 251.022 176.741 251.409 178.129C251.819 179.586 252.456 180.951 253.138 182.271C254.595 185.161 256.233 188.005 257.803 190.827C258.054 190.212 258.304 189.621 258.554 189.006C249.657 191.145 241.419 195.059 232.749 197.881C228.676 199.201 224.489 200.179 220.211 200.407C217.913 200.521 215.615 200.452 213.316 200.179C211.109 199.906 208.06 199.747 206.49 197.949C205.648 196.971 205.079 195.674 204.442 194.559C203.827 193.512 203.213 192.465 202.598 191.441C201.256 189.234 199.913 187.049 198.662 184.797C197.888 183.408 195.749 184.66 196.523 186.048V186.025Z" fill="black"/>
<path d="M205.852 198.746C185.805 199.997 160.432 206.346 140.635 209.691C136.516 210.396 132.079 211.284 129.234 214.356C126.549 217.246 125.867 221.456 125.662 225.415C124.843 241.754 136.585 314.549 137.995 334.096L176.02 335.825C176.02 335.825 168.966 247.374 168.693 247.056C168.966 247.397 212.929 243.62 232.476 246.464C234.57 246.76 305.613 331.843 310.801 333.14C315.238 334.255 319.881 333.299 324.341 332.275C341.794 328.247 382.686 314.253 399.48 307.995C393.244 299.94 388.42 286.195 384.438 276.82C372.673 280.188 324.545 291.543 324.545 291.543C323.931 290.542 287.955 214.72 259.624 189.803L249.247 194.468C241.01 198.154 232.203 200.407 223.192 201.089L205.875 198.768L205.852 198.746Z" fill="black"/>
<path d="M133.695 94.2294L81.2202 80.4623C77.1925 79.4155 73.2558 82.4192 73.2103 86.5835L72.7779 126.201C72.7552 129.136 74.7121 131.708 77.5566 132.459L130.031 146.226C134.059 147.273 137.995 144.269 138.041 140.105L138.473 100.487C138.496 97.5517 136.539 94.9803 133.695 94.2294Z" fill="white"/>
<path d="M133.899 147.341L184.713 160.676C185.463 157.808 183.757 154.873 180.89 154.122L137.404 142.699L133.922 147.341H133.899Z" fill="white"/>
<path d="M133.695 94.2294L81.2202 80.4623C77.1925 79.4155 73.2558 82.4192 73.2103 86.5835L72.7779 126.201C72.7552 129.136 74.7121 131.708 77.5566 132.459L130.031 146.226C134.059 147.273 137.995 144.269 138.041 140.105L138.473 100.487C138.496 97.5517 136.539 94.9803 133.695 94.2294Z" fill="white"/>
<path d="M134.036 93.0461C128.324 91.5442 122.635 90.0651 116.924 88.5633C107.594 86.1284 98.2869 83.6708 88.9571 81.236C86.5906 80.6216 84.224 79.9844 81.8574 79.37C76.8967 78.0957 72.118 81.418 71.9587 86.629C71.7084 94.0246 71.7994 101.466 71.7312 108.861C71.6856 113.299 71.6401 117.759 71.5946 122.196C71.5719 125.2 71.185 128.34 73.142 130.911C74.9397 133.255 77.5793 133.733 80.2417 134.438C83.7916 135.371 87.3642 136.304 90.9368 137.237C100.449 139.741 109.938 142.221 119.45 144.724C122.476 145.52 125.48 146.317 128.506 147.091C129.03 147.227 129.576 147.386 130.122 147.5C133.49 148.183 137.017 146.522 138.541 143.427C139.725 141.015 139.361 137.897 139.383 135.28C139.429 130.684 139.474 126.11 139.52 121.513C139.588 114.459 139.952 107.337 139.748 100.282C139.656 96.8235 137.358 93.9791 134.059 93.0233C132.534 92.5682 131.874 94.9576 133.399 95.4127C135.811 96.1181 137.267 98.1661 137.267 100.669C137.267 101.579 137.267 102.49 137.244 103.4C137.199 107.428 137.153 111.478 137.108 115.506C137.017 123.47 136.949 131.435 136.858 139.399C136.858 140.924 136.562 142.357 135.492 143.518C134.104 145.02 132.102 145.429 130.167 144.951C128.028 144.405 125.889 143.836 123.75 143.268C114.898 140.947 106.047 138.625 97.1946 136.304C90.8686 134.643 84.5425 133.028 78.2165 131.321C76.3505 130.82 74.8259 129.614 74.257 127.703C73.984 126.793 74.0522 125.86 74.0522 124.927C74.0977 121.513 74.1205 118.077 74.166 114.664C74.257 106.017 74.348 97.3697 74.4391 88.6998C74.4391 87.9944 74.4391 87.2889 74.4391 86.5835C74.5528 83.5343 77.1925 81.0767 80.31 81.509C81.9939 81.7366 83.7006 82.351 85.339 82.7833C93.7586 84.9906 102.178 87.1979 110.575 89.4052C117.766 91.2939 124.979 93.1826 132.17 95.0714C132.557 95.1851 132.966 95.2762 133.353 95.3899C134.901 95.7995 135.561 93.4102 134.013 93.0006L134.036 93.0461Z" fill="black"/>
<path d="M133.899 147.341L184.713 160.676C185.464 157.808 183.757 154.873 180.89 154.122L137.404 142.699L133.922 147.341H133.899Z" fill="white"/>
<path d="M133.558 148.547C139.27 150.049 144.981 151.551 150.693 153.052C159.818 155.442 168.92 157.831 178.045 160.221C180.139 160.767 182.255 161.336 184.348 161.882C184.986 162.041 185.691 161.677 185.873 161.017C186.692 157.922 185.099 154.6 182.187 153.303C181.504 152.984 180.776 152.825 180.048 152.643L170.991 150.254C162.094 147.933 153.219 145.589 144.321 143.268C142.114 142.676 139.884 142.107 137.677 141.515C137.085 141.356 136.607 141.629 136.266 142.084C135.105 143.632 133.945 145.179 132.784 146.726C131.829 148.001 133.99 149.252 134.923 147.978L138.405 143.336C137.927 143.518 137.472 143.723 136.994 143.905C142.478 145.338 147.985 146.795 153.469 148.228L177.385 154.509C178.341 154.759 179.274 154.987 180.23 155.26C182.483 155.874 184.075 157.968 183.461 160.357C183.962 160.061 184.485 159.788 184.986 159.492C179.274 157.99 173.562 156.489 167.851 154.987C158.726 152.597 149.623 150.208 140.498 147.819C138.405 147.273 136.289 146.726 134.195 146.158C132.648 145.748 131.988 148.137 133.535 148.547H133.558Z" fill="black"/>
<path d="M106.251 113.094C104.021 110.818 101.791 108.52 99.5612 106.244L97.0353 115.392L106.251 113.094Z" fill="white"/>
<path d="M107.116 112.229C104.886 109.953 102.656 107.655 100.426 105.38C99.766 104.72 98.6055 105.038 98.3552 105.926C97.627 108.588 96.8761 111.273 96.1479 113.936C96.0341 114.323 95.9431 114.687 95.8293 115.073C95.579 116.006 96.4437 116.826 97.3539 116.598C100.039 115.915 102.747 115.255 105.432 114.573C105.819 114.482 106.183 114.391 106.57 114.3C107.23 114.14 107.617 113.412 107.435 112.775C107.253 112.115 106.57 111.751 105.91 111.91C103.225 112.593 100.517 113.253 97.8318 113.936C97.4449 114.027 97.0808 114.118 96.694 114.209C97.1946 114.709 97.718 115.233 98.2186 115.733C98.9468 113.071 99.6977 110.386 100.426 107.701C100.54 107.314 100.631 106.95 100.744 106.563C100.062 106.745 99.3564 106.927 98.6738 107.109L105.364 113.958C106.479 115.096 108.231 113.344 107.116 112.206V112.229Z" fill="black"/>
<path d="M82.6538 86.2649C80.7879 85.9919 78.9902 87.9716 79.4225 89.7921L82.6538 86.2649Z" fill="white"/>
<path d="M82.9724 85.0589C82.7448 85.0361 82.5401 84.9906 82.3125 84.9906C82.0849 84.9906 81.8801 85.0134 81.6526 85.0589C81.425 85.1044 81.1975 85.1499 80.9699 85.2409C80.3328 85.4912 79.7639 85.8553 79.286 86.356C78.353 87.38 77.8979 88.7453 78.2165 90.1106C78.353 90.7478 79.1267 91.1801 79.7411 90.9753C80.401 90.7705 80.7651 90.1334 80.6058 89.4507C80.6058 89.3825 80.5831 89.2914 80.5603 89.2232L80.6058 89.5417C80.5831 89.3142 80.5831 89.1094 80.6058 88.8818C80.6058 88.9956 80.5831 89.1094 80.5603 89.2004C80.6058 88.9501 80.6741 88.6998 80.7651 88.4722C80.7196 88.5632 80.6741 88.677 80.6513 88.7681C80.7651 88.5177 80.9016 88.2902 81.0609 88.0626C80.9927 88.1537 80.9244 88.2219 80.8561 88.3129C81.0382 88.0854 81.243 87.8806 81.4705 87.6985C81.3795 87.7668 81.3112 87.8351 81.2202 87.9033C81.425 87.744 81.6526 87.6303 81.8801 87.5165L81.5843 87.6303C81.8119 87.5393 82.0622 87.471 82.3125 87.4255C82.1987 87.4255 82.0849 87.4482 81.9939 87.471C82.1987 87.4482 82.4035 87.4482 82.6083 87.471C82.4945 87.471 82.3807 87.4482 82.2897 87.4255C82.2897 87.4255 82.3125 87.4255 82.3352 87.4255C82.6766 87.471 82.9724 87.4937 83.291 87.3117C83.5413 87.1524 83.7916 86.8566 83.8599 86.5608C83.9281 86.2422 83.9054 85.8781 83.7461 85.605C83.5868 85.3547 83.3137 85.0817 82.9952 85.0361L82.9724 85.0589Z" fill="black"/>
<path d="M131.055 132.891C131.76 134.347 131.465 136.213 130.327 137.374C129.189 138.534 127.323 138.853 125.867 138.17L131.055 132.891Z" fill="white"/>
<path d="M129.985 133.528C129.985 133.528 130.031 133.619 130.054 133.665C129.985 133.483 129.963 133.46 130.008 133.574C130.031 133.665 130.076 133.756 130.099 133.87C130.099 133.938 130.145 134.029 130.145 134.097C130.145 134.143 130.145 134.188 130.167 134.256C130.167 134.393 130.167 134.347 130.167 134.165C130.122 134.302 130.19 134.552 130.19 134.712C130.19 134.825 130.19 134.916 130.19 135.007C130.19 135.258 130.236 134.734 130.19 134.985C130.145 135.167 130.122 135.326 130.076 135.508C130.076 135.576 129.963 135.736 129.985 135.804C130.054 135.622 130.076 135.599 130.031 135.713C130.031 135.758 129.985 135.804 129.963 135.849C129.872 136.009 129.781 136.168 129.69 136.304C129.553 136.509 129.849 136.122 129.69 136.304C129.621 136.373 129.553 136.464 129.485 136.532C129.417 136.6 129.348 136.646 129.28 136.714C129.052 136.919 129.462 136.6 129.28 136.714C129.121 136.805 128.984 136.919 128.825 136.987C128.734 137.033 128.62 137.055 128.552 137.124C128.734 137.055 128.757 137.033 128.643 137.078C128.597 137.078 128.575 137.101 128.529 137.124C128.347 137.192 128.165 137.237 127.983 137.26C127.937 137.26 127.915 137.26 127.869 137.26C127.778 137.26 127.824 137.26 128.006 137.26C127.915 137.26 127.778 137.26 127.71 137.283C127.528 137.283 127.346 137.283 127.164 137.283C127.027 137.283 127.073 137.283 127.255 137.283C127.209 137.283 127.164 137.283 127.095 137.26C127.027 137.26 126.936 137.237 126.868 137.215C126.777 137.192 126.663 137.169 126.572 137.124C126.527 137.124 126.481 137.078 126.436 137.078C126.618 137.146 126.64 137.169 126.527 137.101C125.935 136.828 125.161 136.919 124.82 137.556C124.524 138.102 124.638 138.967 125.275 139.263C126.845 139.991 128.62 139.945 130.145 139.103C131.669 138.261 132.534 136.691 132.693 134.985C132.784 134.052 132.557 133.119 132.17 132.277C131.897 131.685 131.009 131.48 130.463 131.822C129.872 132.208 129.712 132.891 130.008 133.528H129.985Z" fill="black"/>
<path d="M104.135 153.94C108.095 154.281 112.145 153.371 115.376 151.05C119.222 151.164 128.757 151.892 132.466 150.868C131.487 149.093 124.16 146.499 122.226 145.839C120.656 145.316 118.926 145.247 117.47 144.428C114.079 142.539 113.897 137.875 112.35 134.325C111.394 132.14 109.801 130.251 107.799 128.932C105.91 132.982 105.66 137.761 107.116 141.993C105.933 136.805 104.135 131.731 101.814 126.952C101.154 125.587 100.039 124.016 98.5372 124.244C97.1036 129.933 98.1731 136.213 101.404 141.106C99.9025 136.782 98.2641 132.504 96.5347 128.272C96.0341 127.043 94.7598 125.564 93.6903 126.36C93.1669 126.747 93.0986 127.498 93.0759 128.135C93.0076 133.187 94.0771 138.239 96.2161 142.812C95.3742 139.49 94.0999 136.304 92.3704 133.346C91.8698 132.481 90.55 131.662 90.1176 132.55C90.0266 134.916 90.4362 138.284 90.8913 141.242C91.9608 147.955 97.3539 153.326 104.135 153.94Z" fill="white"/>
<path d="M104.135 155.191C107.139 155.419 110.165 155.009 112.941 153.826C113.965 153.394 115.149 152.37 116.082 152.324C117.106 152.256 118.198 152.415 119.222 152.461C123.614 152.666 128.483 153.189 132.784 152.051C133.535 151.846 133.945 150.913 133.535 150.231C132.329 148.297 129.553 147.364 127.573 146.522C124.979 145.429 122.408 144.61 119.7 143.928C115.991 142.972 115.354 139.467 114.375 136.259C113.306 132.8 111.485 129.933 108.436 127.862C107.912 127.521 107.002 127.726 106.729 128.317C104.727 132.777 104.385 137.692 105.91 142.335C106.411 143.859 108.663 143.245 108.299 141.675C107.389 137.715 106.138 133.87 104.567 130.115C103.475 127.521 102.064 122.833 98.5144 122.992C97.991 123.015 97.4449 123.356 97.3084 123.903C95.852 130.001 96.8988 136.441 100.312 141.72C101.04 142.835 103.066 142.153 102.588 140.764C101.359 137.283 100.062 133.824 98.6965 130.388C97.9228 128.431 96.5347 123.903 93.4855 125.063C92.1884 125.564 91.8698 126.906 91.8243 128.135C91.756 129.865 91.9153 131.617 92.1656 133.323C92.6435 136.851 93.6675 140.196 95.1466 143.427C95.7382 144.724 97.7635 143.791 97.4222 142.471C96.8305 140.15 96.0341 137.92 95.0328 135.736C94.2591 134.074 93.3717 131.617 91.4147 131.025C90.732 130.82 89.9583 130.911 89.4349 131.412C88.775 132.026 88.8661 132.914 88.8888 133.71C88.9343 136.009 89.2302 138.33 89.5715 140.605C90.7093 148.251 96.2844 154.35 104.158 155.146C105.751 155.305 105.728 152.825 104.158 152.666C98.4461 152.074 93.7585 147.728 92.3704 142.221C91.9836 140.628 91.8015 138.99 91.6195 137.351C91.5285 136.486 91.4374 135.644 91.3919 134.78C91.3919 134.416 91.3464 134.052 91.3464 133.688C91.3464 133.483 91.3464 133.278 91.3464 133.073C91.3919 132.641 91.2099 132.732 90.7548 133.392C90.7548 133.437 91.3692 134.029 91.4374 134.143C91.665 134.484 91.8243 134.848 92.0291 135.212C92.5069 136.122 92.962 137.055 93.3489 138.011C94.0316 139.672 94.5777 141.379 95.0328 143.108L97.3084 142.153C96.2389 139.809 95.4424 137.328 94.9418 134.803C94.6915 133.596 94.5322 132.368 94.4412 131.139C94.3957 130.456 93.9633 128.067 94.4867 127.612C94.919 127.248 97.2401 133.255 97.5132 133.961C98.4689 136.418 99.3564 138.899 100.244 141.402C100.995 141.083 101.746 140.765 102.519 140.446C99.4701 135.736 98.4689 130.001 99.766 124.54C99.3564 124.836 98.9695 125.154 98.5599 125.45C99.9935 125.382 100.699 127.384 101.2 128.454C101.905 129.933 102.542 131.457 103.134 132.982C104.294 136.009 105.227 139.126 105.955 142.289C106.752 142.062 107.548 141.857 108.345 141.629C107.048 137.647 107.184 133.369 108.914 129.523C108.345 129.683 107.776 129.819 107.207 129.978C110.279 132.072 111.462 135.098 112.486 138.534C113.351 141.402 114.489 144.428 117.424 145.748C118.949 146.431 120.656 146.59 122.226 147.113C123.25 147.455 124.251 147.841 125.252 148.228C126.527 148.729 127.778 149.252 129.007 149.867C129.758 150.254 130.941 150.709 131.419 151.46C131.669 150.845 131.92 150.254 132.17 149.639C130.258 150.14 128.21 150.14 126.253 150.14C123.864 150.14 121.498 150.049 119.108 149.935C118.152 149.889 117.197 149.844 116.264 149.798C115.831 149.798 115.376 149.707 114.944 149.867C114.352 150.094 113.806 150.595 113.26 150.914C110.484 152.438 107.321 152.916 104.181 152.666C102.588 152.552 102.588 155.032 104.181 155.146L104.135 155.191Z" fill="black"/>
<path d="M211.587 14.4939C216.616 20.0918 223.443 24.074 230.793 25.6896C235.958 26.8274 241.374 26.8502 246.403 28.4658C257.212 31.9247 264.539 42.2102 268.294 52.928C270.797 60.0733 272.276 67.9922 277.601 73.3398C282.106 77.8454 288.614 79.6886 293.803 83.3977C299.173 87.2434 303.041 93.1599 304.407 99.6225C305.795 106.199 303.815 114.254 297.648 116.917C291.846 119.443 284.518 116.279 279.057 119.488C276.577 120.944 274.938 123.493 272.64 125.245C265.973 130.365 256.324 127.316 248.929 123.288C238.37 117.554 228.676 110.181 220.302 101.534C219.255 100.464 218.209 99.3039 217.845 97.8703C217.572 96.8235 217.685 95.7313 217.799 94.639C218.414 88.5405 219.21 82.0096 223.215 77.3447C225.308 74.8871 228.13 73.1805 230.497 70.9732C234.843 66.8999 237.528 61.0973 237.824 55.1581L211.587 14.4484V14.4939Z" fill="black"/>
<path d="M199.936 19.7277C206.421 14.7897 215.91 15.2676 221.85 20.8427C223.306 22.208 224.671 23.6416 226.56 24.4153C228.562 25.2345 230.747 25.2118 232.863 24.9387C235.071 24.6656 237.21 24.1195 239.417 23.8692C241.419 23.6416 243.467 23.6189 245.493 23.8009C253.571 24.4608 261.376 28.17 266.951 34.0409C273.436 40.8448 275.575 50.1974 279.717 58.3666C283.608 66.0807 290.913 73.9542 300.333 73.1577C301.38 73.0667 301.403 71.4055 300.333 71.4966C291.208 72.293 284.473 64.3286 280.832 56.8875C276.85 48.7183 274.574 39.616 268.134 32.8576C262.673 27.1232 255.164 23.3913 247.336 22.3218C243.263 21.7757 239.326 22.117 235.321 22.8679C232.954 23.3003 230.428 23.8009 228.062 23.1638C225.741 22.5494 224.262 20.7517 222.532 19.2043C216.161 13.4926 205.898 13.1058 199.094 18.2941C198.252 18.9312 199.094 20.3648 199.936 19.7277Z" fill="black"/>
<path d="M170.559 34.1092C172.015 43.348 165.78 52.6095 169.444 61.7117C170.786 65.034 173.426 67.1276 176.338 69.039C179.115 70.8595 182.369 72.6799 183.165 76.1615C183.415 77.2083 185.008 76.7532 184.758 75.7292C183.097 68.6522 173.835 67.7647 171.082 61.3476C169.33 57.2744 169.899 52.5867 170.718 48.377C171.696 43.4845 172.925 38.6603 172.151 33.6541C171.992 32.6074 170.399 33.0397 170.559 34.0865V34.1092Z" fill="black"/>
<path d="M216.57 20.2966C215.023 17.657 215.41 14.3119 216.434 11.4447C218.8 4.89109 225.217 -0.54751 232.158 0.0441343C239.326 0.658534 244.947 8.09962 244.127 15.2449C243.308 22.3901 236.686 28.2383 229.518 28.7389C223.966 29.1257 217.617 25.6441 217.185 20.0918L216.57 20.3193V20.2966Z" fill="black"/>
<path d="M109.528 155.965C110.279 155.829 111.167 156.443 111.826 156.739C112.646 157.103 113.465 157.49 114.284 157.854C115.922 158.605 117.538 159.401 119.154 160.198C122.385 161.791 125.548 163.475 128.688 165.25C130.076 166.023 131.328 163.884 129.94 163.11C126.458 161.153 122.931 159.31 119.359 157.558C117.629 156.716 115.877 155.897 114.125 155.078C112.464 154.327 110.757 153.257 108.868 153.576C107.298 153.849 107.958 156.238 109.528 155.965Z" fill="black"/>
<path d="M160.774 228.646C162.435 228.646 164.028 229.488 164.87 230.945C165.803 232.583 165.666 234.608 165.689 236.429C165.757 239.979 166.872 243.256 169.193 245.963C169.876 246.783 171.059 245.599 170.354 244.803C169.079 243.324 168.169 241.572 167.691 239.66C167.213 237.703 167.396 235.723 167.236 233.721C167.1 231.946 166.622 230.217 165.348 228.92C164.141 227.668 162.458 226.985 160.728 226.985C159.659 226.985 159.659 228.646 160.728 228.646H160.774Z" fill="white"/>
<path d="M239.394 247.101C247.7 245.099 256.529 242.914 263.128 237.18C268.794 232.265 272.549 224.619 270.751 217.064C270.501 216.04 268.908 216.472 269.158 217.496C270.888 224.755 266.883 232.06 261.308 236.543C254.959 241.663 246.699 243.642 238.939 245.508C237.915 245.759 238.347 247.352 239.371 247.101H239.394Z" fill="white"/>
<path d="M284.132 411.738C283.859 416.63 279.671 420.385 274.779 420.112C269.887 419.839 266.132 415.652 266.405 410.759C266.678 405.867 270.865 402.112 275.758 402.385C280.65 402.658 284.405 406.845 284.132 411.738Z" fill="white"/>
<path d="M275.302 422.342C275.098 422.342 274.893 422.342 274.665 422.342C268.567 422 263.879 416.767 264.22 410.668C264.38 407.71 265.7 405.002 267.884 403.022C270.091 401.043 272.936 400.041 275.894 400.223C278.852 400.383 281.56 401.702 283.54 403.91C285.52 406.117 286.498 408.961 286.339 411.92C286.18 414.878 284.86 417.586 282.675 419.566C280.627 421.409 278.033 422.387 275.302 422.387V422.342ZM275.28 404.592C273.641 404.592 272.071 405.184 270.842 406.299C269.522 407.482 268.726 409.121 268.635 410.896C268.43 414.559 271.252 417.722 274.916 417.927C276.69 418.041 278.397 417.427 279.74 416.243C281.06 415.06 281.856 413.422 281.947 411.647C282.038 409.872 281.446 408.165 280.263 406.822C279.08 405.503 277.441 404.706 275.667 404.615C275.53 404.615 275.416 404.615 275.28 404.615V404.592Z" fill="black"/>
<path d="M285.292 391.076C285.019 395.968 280.832 399.723 275.94 399.45C271.047 399.177 267.293 394.99 267.566 390.097C267.839 385.205 272.026 381.45 276.918 381.723C281.811 381.996 285.565 386.183 285.292 391.076Z" fill="black"/>
<path d="M149.783 403.546C149.51 408.438 145.323 412.193 140.43 411.92C135.538 411.647 131.783 407.46 132.056 402.567C132.329 397.675 136.516 393.92 141.409 394.193C146.301 394.466 150.056 398.653 149.783 403.546Z" fill="white"/>
<path d="M140.954 414.127C140.749 414.127 140.544 414.127 140.316 414.127C137.358 413.968 134.65 412.648 132.671 410.463C130.691 408.256 129.712 405.412 129.872 402.453C130.213 396.355 135.447 391.667 141.545 392.009C147.644 392.35 152.331 397.584 151.99 403.682C151.831 406.64 150.511 409.348 148.326 411.328C146.278 413.171 143.684 414.15 140.954 414.15V414.127ZM140.954 396.378C137.449 396.378 134.491 399.131 134.309 402.681C134.218 404.456 134.81 406.163 135.993 407.505C137.176 408.825 138.815 409.621 140.59 409.712C142.364 409.826 144.071 409.212 145.414 408.029C146.734 406.845 147.53 405.207 147.621 403.432C147.826 399.768 145.004 396.605 141.34 396.4C141.227 396.4 141.09 396.4 140.976 396.4L140.954 396.378Z" fill="black"/>
<path d="M150.852 384.34C150.579 389.232 146.392 392.987 141.5 392.714C136.607 392.441 132.853 388.254 133.126 383.361C133.399 378.469 137.586 374.714 142.478 374.987C147.371 375.261 151.125 379.447 150.852 384.34Z" fill="black"/>
<path d="M88.2289 360.993C96.6485 374.896 113.556 380.472 128.961 381.791C133.035 382.133 137.131 382.36 141.204 382.611C160.501 383.817 179.82 384.932 199.117 386.047C225.308 387.549 148.144 383.27 174.336 384.704C198.366 386.024 222.396 387.321 246.448 388.504C255.642 388.959 264.835 389.323 274.005 389.801C289.911 390.643 307.866 392.327 322.293 384.112C325.797 382.11 328.96 379.607 331.645 376.603C333.238 374.805 333.716 372.257 331.986 370.345C330.53 368.707 327.322 368.206 325.729 370.004C320.586 375.784 314.351 378.81 306.955 380.312C299.287 381.86 291.732 381.746 283.745 381.427C273.459 380.995 263.151 380.449 252.865 379.948C230.019 378.833 207.195 377.604 184.371 376.376C158.225 374.965 235.457 379.243 209.334 377.741C188.831 376.558 168.306 375.397 147.803 374.145C132.329 373.19 115.786 373.463 102.952 364.201C100.289 362.267 97.8091 359.718 96.1479 356.965C94.9191 354.917 92.416 353.893 90.1859 355.031C88.1607 356.055 87.0229 358.945 88.2517 360.993H88.2289Z" fill="#FCC786"/>
<path d="M324.363 295.411C321.587 295.343 319.152 297.346 318.31 299.962C317.309 303.08 319.289 305.287 321.018 307.608C321.951 308.837 322.748 310.248 322.042 311.795C321.36 313.32 319.812 314.276 318.811 315.573C317.377 317.393 316.717 320.693 319.13 321.99C320.063 322.49 320.905 321.08 319.972 320.556C318.788 319.919 319.13 318.372 319.63 317.348C320.199 316.187 321.291 315.391 322.156 314.458C323.726 312.728 324.523 310.635 323.476 308.405C322.452 306.22 319.903 304.559 319.676 302.056C319.448 299.462 321.769 297.027 324.341 297.072C325.41 297.095 325.41 295.434 324.341 295.411H324.363Z" fill="white"/>
<path d="M171.765 418.359C153.173 418.109 134.582 417.927 115.968 417.904C109.164 417.904 102.36 417.836 95.5563 418.086C93.8041 418.155 91.574 417.995 90.2542 419.338C88.5248 421.09 88.9799 424.64 88.9799 426.893C89.0027 434.129 89.435 441.365 89.435 448.624C89.435 449.148 89.435 449.671 89.435 450.194C89.435 450.832 89.1392 451.605 89.4805 450.399C89.7081 449.58 90.9369 448.556 91.483 448.351C90.6638 448.624 92.4388 448.283 91.574 448.351C89.435 448.488 87.296 448.511 85.157 448.511C71.3444 448.511 57.509 447.691 43.6964 447.896C41.8987 447.919 39.5776 447.737 38.2123 449.125C36.3691 450.991 36.938 454.928 36.9607 457.294C37.0745 465.964 37.5979 474.634 37.4841 483.304C37.4841 484.851 37.4158 486.399 37.2793 487.923C38.3715 486.831 39.4866 485.716 40.5789 484.624C28.1088 484.692 15.6615 484.555 3.19147 484.624C-1.06382 484.624 -1.06382 491.268 3.19147 491.246C15.6615 491.177 28.1088 491.314 40.5789 491.246C42.4903 491.246 43.7191 489.721 43.8784 487.946C44.2197 484.305 44.1287 480.596 44.0605 476.932C43.9922 472.427 43.8329 467.921 43.6964 463.415C43.6053 460.07 43.446 456.68 43.5826 453.312C43.5826 453.084 43.6053 452.857 43.6281 452.629C43.6736 451.947 43.6736 452.402 43.5826 452.88C43.6053 452.743 43.6281 452.629 43.6736 452.493C43.3095 453.471 42.5586 454.268 41.5573 454.586C42.3083 454.336 40.5333 454.632 41.2615 454.609C41.5801 454.609 41.9214 454.564 42.24 454.541C48.0427 454.313 53.8681 454.564 59.6708 454.677C67.2256 454.837 74.7804 455.019 82.3353 455.087C84.9067 455.087 87.4781 455.132 90.0267 455.041C92.2795 454.95 95.0101 454.882 95.7838 452.265C96.3982 450.195 96.0341 447.555 95.9886 445.439C95.9204 441.638 95.7838 437.838 95.6928 434.038C95.6018 430.761 95.5108 427.462 95.6018 424.162C95.6018 423.684 95.6473 423.229 95.67 422.751C95.7156 421.75 95.3742 423.525 95.6928 422.66C95.2832 423.753 94.4868 424.481 93.5538 424.799C93.6221 424.799 93.6903 424.777 93.7586 424.754C93.0077 424.959 92.9621 424.845 93.6903 424.777C99.2654 424.321 104.932 424.503 110.529 424.503C129.121 424.458 147.712 424.663 166.303 424.89C168.124 424.89 169.944 424.936 171.765 424.959C176.02 425.004 176.02 418.405 171.765 418.337V418.359Z" fill="black"/>
</svg>
