<svg width="278" height="445" viewBox="0 0 278 445" fill="none" xmlns="http://www.w3.org/2000/svg">
<g clip-path="url(#clip0_2_2844)">
<path d="M260.879 191.617C262.355 192.627 263.682 193.936 264.748 195.507C269.234 202.183 267.458 211.252 260.785 215.74C254.112 220.228 245.047 218.451 240.561 211.776C239.495 210.186 238.785 208.484 238.411 206.727L229.084 212.991C229.738 214.637 230.58 216.245 231.608 217.778C239.421 229.41 255.159 232.495 266.785 224.679C278.411 216.862 281.495 201.117 273.682 189.485C272.654 187.952 271.477 186.568 270.206 185.334L260.879 191.599V191.617Z" fill="black"/>
<path d="M125.177 432C146.324 420.171 153.882 393.431 142.059 372.274C130.235 351.118 103.507 343.556 82.3595 355.385C61.2121 367.214 53.6538 393.954 65.4775 415.111C77.3012 436.267 104.029 443.829 125.177 432Z" fill="#FCC786"/>
<path d="M249.701 245.005C246.28 241.938 246 236.665 249.065 233.243C252.131 229.821 257.402 229.54 260.822 232.607C264.243 235.674 264.523 240.947 261.458 244.369C258.392 247.792 253.121 248.072 249.701 245.005Z" fill="#FCC786"/>
<path d="M82.3925 156.162C104.299 152.871 180.355 161.473 183.346 163.362C185.626 164.802 211.215 204.221 231.495 233.467C222.299 238.255 213.103 243.06 203.906 247.848C185.383 224.548 163.477 197.826 161.29 197.171C159.252 196.573 98.8785 192.272 98.8785 192.272L82.8785 239.9C82.8785 239.9 114.168 313.409 111.346 314.251C97.757 315.765 87.9439 315.896 74.3551 317.411C62.299 289.96 43.4392 242.892 43.0654 236.067C42.7663 230.513 58.0186 183.445 64.3177 157.677L82.3551 156.144L82.3925 156.162Z" fill="black"/>
<path d="M218.71 237.002C220.467 240.087 222.262 243.135 224.037 246.202C224.934 247.735 225.813 249.269 226.71 250.802C227.028 251.344 227.308 251.98 227.738 252.448C228.766 253.588 230.093 253.214 231.383 252.878C234.729 252.018 238.019 250.97 241.327 249.979C242.916 249.512 244.486 249.044 246.093 248.633C246.86 248.427 247.607 248.24 248.374 248.053C249.215 247.848 250.43 247.361 251.308 247.418C252.448 247.511 253.159 249.867 253.533 250.952C253.607 251.157 253.42 251.494 253.645 251.157C253.495 251.382 252.878 251.606 252.654 251.756C252.28 251.98 251.906 252.223 251.551 252.448C250.075 253.383 248.598 254.318 247.121 255.253C240.505 259.498 234 263.911 227.607 268.511C228.075 268.642 228.542 268.754 229.009 268.885C223.477 261.05 218.654 252.616 213.888 244.295C213.271 243.229 212.673 242.182 212.075 241.097C211.738 240.48 210.785 239.32 210.785 238.61C210.691 238.853 210.579 239.096 210.486 239.339C210.916 238.834 212 238.61 212.617 238.367C213.383 238.049 214.149 237.731 214.916 237.413C216.374 236.815 217.85 236.216 219.308 235.599C220.505 235.113 219.981 233.131 218.766 233.636C216.392 234.608 214.019 235.581 211.645 236.553C210.019 237.226 208.019 237.75 209.084 239.881C210.149 242.051 211.42 244.126 212.635 246.221C215.869 251.831 219.215 257.403 222.654 262.901C224.131 265.257 225.626 267.613 227.234 269.895C227.533 270.306 228.149 270.605 228.635 270.269C234.542 266.024 240.561 261.91 246.673 257.964C248.131 257.011 249.607 256.076 251.084 255.141C251.832 254.673 252.561 254.206 253.308 253.757C253.906 253.383 254.691 253.065 255.14 252.541C256.262 251.27 255.103 248.988 254.392 247.792C253.981 247.1 253.495 246.389 252.86 245.903C251.906 245.155 251.047 245.417 249.925 245.66C246.411 246.389 242.972 247.399 239.551 248.427C237.906 248.932 236.243 249.437 234.598 249.905C233.776 250.148 232.934 250.372 232.112 250.615C231.383 250.821 229.794 251.588 229.159 250.971C228.766 250.597 228.505 249.83 228.243 249.362C227.776 248.558 227.308 247.754 226.86 246.969C224.748 243.322 222.579 239.676 220.505 236.011C219.85 234.87 218.093 235.898 218.748 237.039L218.71 237.002Z" fill="black"/>
<path d="M252.71 247.754C243.906 253.701 234.916 259.367 225.738 264.734C224.598 265.388 225.626 267.165 226.766 266.491C235.944 261.125 244.935 255.458 253.738 249.512C254.822 248.783 253.794 247.006 252.71 247.754Z" fill="black"/>
<path d="M246.205 246.95C245.663 247.623 245.233 248.39 245.009 249.231C244.766 250.092 244.747 250.952 244.878 251.831C244.916 252.074 245.159 252.317 245.346 252.448C245.57 252.579 245.888 252.635 246.131 252.541C246.374 252.466 246.617 252.317 246.747 252.074C246.878 251.812 246.897 251.569 246.841 251.288C246.897 251.625 246.841 251.326 246.841 251.251C246.841 251.176 246.841 251.083 246.841 251.008C246.841 250.84 246.841 250.671 246.841 250.503C246.841 250.428 246.878 250.335 246.86 250.26C246.86 250.316 246.86 250.353 246.841 250.41C246.841 250.372 246.841 250.335 246.86 250.279C246.897 250.11 246.916 249.942 246.972 249.792C247.009 249.624 247.065 249.475 247.121 249.306C247.121 249.269 247.14 249.25 247.159 249.213C247.196 249.138 247.159 249.175 247.121 249.306C247.159 249.269 247.196 249.138 247.233 249.082C247.308 248.932 247.383 248.783 247.476 248.652C247.514 248.577 247.57 248.502 247.626 248.446C247.645 248.409 247.682 248.371 247.701 248.353C247.607 248.483 247.589 248.502 247.663 248.409C247.832 248.184 247.962 247.979 247.962 247.679C247.962 247.436 247.85 247.137 247.663 246.95C247.29 246.613 246.579 246.501 246.224 246.95H246.205Z" fill="black"/>
<path d="M231.888 260.937C229.327 259.554 226.28 259.498 223.663 260.732C223.159 260.956 223.047 261.685 223.289 262.134C223.589 262.639 224.187 262.733 224.691 262.508C226.598 261.611 228.99 261.704 230.86 262.714C231.346 262.976 231.962 262.826 232.261 262.34C232.542 261.872 232.374 261.199 231.888 260.937Z" fill="black"/>
<path d="M234.224 247.866C232.822 249.811 232.822 252.747 234.28 254.673C234.598 255.103 235.177 255.365 235.682 255.047C236.093 254.785 236.392 254.112 236.056 253.645C235.906 253.458 235.776 253.252 235.663 253.046C235.607 252.934 235.551 252.822 235.495 252.71C235.589 252.897 235.477 252.616 235.439 252.56C235.364 252.336 235.308 252.092 235.271 251.868C235.252 251.756 235.252 251.7 235.271 251.849C235.271 251.793 235.271 251.737 235.271 251.681C235.271 251.55 235.271 251.419 235.271 251.307C235.271 251.195 235.271 251.083 235.271 250.97C235.271 250.914 235.271 250.858 235.271 250.802C235.271 250.69 235.29 250.634 235.271 250.783C235.308 250.54 235.364 250.316 235.42 250.092C235.458 249.979 235.495 249.886 235.533 249.774C235.57 249.662 235.458 249.923 235.533 249.736C235.551 249.68 235.589 249.643 235.607 249.587C235.72 249.362 235.85 249.138 236 248.932C236.318 248.502 236.093 247.773 235.626 247.53C235.103 247.249 234.561 247.436 234.224 247.904V247.866Z" fill="black"/>
<path d="M238.43 246.67C237.103 248.97 237.383 251.849 238.991 253.906C239.327 254.336 240.093 254.28 240.43 253.906C240.841 253.458 240.785 252.915 240.43 252.466C240.467 252.523 240.486 252.541 240.43 252.466C240.392 252.41 240.355 252.373 240.336 252.317C240.28 252.223 240.205 252.111 240.149 252.018C240.093 251.906 240.037 251.775 239.962 251.662C239.888 251.532 240.019 251.812 239.962 251.662C239.944 251.606 239.925 251.55 239.906 251.494C239.832 251.27 239.757 251.045 239.719 250.802C239.719 250.746 239.701 250.69 239.682 250.634C239.682 250.615 239.645 250.428 239.682 250.54C239.682 250.671 239.682 250.466 239.682 250.447C239.682 250.372 239.682 250.297 239.682 250.223C239.682 249.979 239.682 249.736 239.682 249.493C239.682 249.437 239.682 249.381 239.682 249.306C239.682 249.194 239.682 249.213 239.682 249.306C239.701 249.194 239.719 249.063 239.757 248.951C239.813 248.708 239.906 248.465 239.981 248.222C239.925 248.353 240.019 248.072 239.981 248.222C240 248.166 240.037 248.109 240.056 248.053C240.112 247.941 240.187 247.81 240.243 247.698C240.505 247.231 240.355 246.557 239.869 246.296C239.383 246.034 238.766 246.165 238.467 246.67H238.43Z" fill="black"/>
<path d="M228.916 247.922C227.009 249.774 226.617 252.971 228.037 255.234C228.318 255.683 228.953 255.907 229.439 255.608C229.888 255.309 230.112 254.692 229.813 254.206C229.738 254.093 229.682 253.981 229.626 253.869C229.589 253.813 229.57 253.738 229.533 253.682C229.477 253.588 229.495 253.607 229.533 253.682C229.439 253.439 229.364 253.214 229.308 252.953C229.308 252.878 229.271 252.822 229.271 252.747C229.271 252.728 229.234 252.541 229.271 252.672C229.29 252.822 229.271 252.579 229.271 252.56C229.271 252.504 229.271 252.448 229.271 252.392C229.271 252.13 229.271 251.849 229.29 251.588C229.29 251.438 229.252 251.756 229.29 251.606C229.29 251.531 229.308 251.475 229.327 251.401C229.346 251.27 229.383 251.157 229.42 251.027C229.458 250.896 229.495 250.783 229.533 250.671C229.551 250.615 229.57 250.559 229.589 250.522C229.533 250.653 229.57 250.578 229.589 250.503C229.701 250.279 229.832 250.054 229.962 249.849C229.962 249.849 230.075 249.68 230 249.774C229.925 249.886 230.056 249.699 230.075 249.68C230.168 249.568 230.262 249.475 230.374 249.381C230.748 249.007 230.766 248.315 230.374 247.941C229.963 247.567 229.346 247.548 228.934 247.941L228.916 247.922Z" fill="black"/>
<path d="M224.561 245.379C222.224 247.324 219.757 249.119 217.196 250.746C216.729 251.045 216.542 251.644 216.822 252.149C217.084 252.616 217.757 252.803 218.224 252.523C220.935 250.802 223.533 248.895 226 246.838C226.43 246.483 226.355 245.753 226 245.398C225.589 244.987 224.991 245.043 224.561 245.398V245.379Z" fill="black"/>
<path d="M212.729 239.489C214.785 242.817 216.86 246.165 218.916 249.493C219.607 250.615 221.364 249.587 220.673 248.465C218.617 245.136 216.542 241.789 214.486 238.46C213.794 237.338 212.037 238.367 212.729 239.489Z" fill="black"/>
<path d="M92.5608 317.673C93.5514 321.263 94.4673 324.872 95.4019 328.463C95.8505 330.146 96.2804 331.829 96.7477 333.512C96.8225 333.755 96.9907 334.129 96.972 334.39C96.9533 335.195 95.4767 335.718 94.8598 336.073C93.3645 336.934 91.8505 337.756 90.3178 338.579C87.2711 340.206 84.2056 341.814 81.2524 343.591C80.486 344.058 79.7197 344.526 78.972 344.993C78.3739 345.367 77.6262 345.741 77.1402 346.246C76.6169 346.788 76.5234 347.611 76.5795 348.341C76.6729 349.986 77.2524 352.099 78.4673 353.277C79.2524 354.044 80.0187 353.838 81.0094 353.614C82.8038 353.202 84.5982 352.791 86.4112 352.398C94.5608 350.603 102.748 349.032 110.991 347.705C111.57 347.611 111.794 346.938 111.701 346.452C110.766 340.973 109.402 335.55 108.075 330.146C106.673 324.442 105.252 318.739 103.589 313.129C103.421 312.549 103.29 311.838 102.879 311.39C102.131 310.586 101.103 311.072 100.262 311.427C97.6075 312.53 94.972 313.634 92.3178 314.737C91.1215 315.242 91.6449 317.205 92.8598 316.7C94.3926 316.065 95.9253 315.429 97.458 314.793C98.1496 314.494 98.8598 314.213 99.5514 313.914C100.206 313.634 101.271 312.942 101.981 312.998C101.738 312.904 101.495 312.792 101.252 312.699C101.682 313.035 101.832 314.456 101.981 314.98C102.262 315.971 102.542 316.944 102.804 317.935C103.458 320.328 104.075 322.722 104.692 325.134C106 330.239 107.252 335.363 108.393 340.524C108.879 342.674 109.346 344.844 109.701 347.013C109.944 346.601 110.168 346.171 110.411 345.76C103.421 346.901 96.4486 348.191 89.514 349.668C87.7757 350.042 86.0561 350.416 84.3178 350.79C83.5888 350.958 82.8785 351.108 82.1496 351.276C81.7197 351.37 81.2897 351.482 80.8598 351.576C80.5795 351.65 80.2804 351.706 80 351.781C79.6636 351.837 79.6449 351.875 79.944 351.912C79.0094 351.389 78.3552 348.696 78.5982 347.742C78.6355 347.593 78.7477 347.48 78.5608 347.723C78.7103 347.518 79.0841 347.387 79.2897 347.237C79.9253 346.826 80.5608 346.414 81.1963 346.022C82.729 345.087 84.2804 344.189 85.8505 343.329C88.6355 341.796 91.458 340.337 94.243 338.785C95.5327 338.074 97.1402 337.401 98.243 336.391C99.1589 335.531 99.0655 334.465 98.7851 333.362C98.3926 331.885 98 330.407 97.6075 328.949C96.5795 325.022 95.5701 321.076 94.5047 317.168C94.1496 315.896 92.1869 316.439 92.5421 317.71L92.5608 317.673Z" fill="black"/>
<path d="M78.5607 350.734C88.9906 348.733 99.3645 346.396 109.645 343.703C110.916 343.366 110.374 341.403 109.103 341.74C98.8224 344.414 88.4486 346.77 78.0187 348.771C76.729 349.014 77.271 350.977 78.5607 350.734Z" fill="black"/>
<path d="M82.0747 345.648C82.0747 345.648 82.1869 345.648 82.243 345.666L81.9813 345.629C82.299 345.666 82.6168 345.741 82.9159 345.853C82.9906 345.872 83.0654 345.91 83.1402 345.947C83.271 346.003 83.0654 345.91 83.0467 345.91C83.0654 345.91 83.1215 345.947 83.1402 345.947C83.2897 346.022 83.4392 346.097 83.5701 346.171C83.7009 346.246 83.8318 346.34 83.9626 346.433C84 346.452 84.0187 346.471 84.0561 346.489C84.1495 346.564 83.8504 346.321 84 346.452C84.0561 346.489 84.1121 346.545 84.1682 346.601C84.299 346.714 84.4112 346.826 84.5233 346.938C84.5794 346.994 84.6168 347.05 84.6729 347.106C84.7103 347.144 84.7289 347.181 84.7663 347.219C84.8411 347.312 84.5981 347.013 84.729 347.162C84.8972 347.387 85.0654 347.555 85.3458 347.63C85.5888 347.705 85.9065 347.667 86.1308 347.536C86.3551 347.406 86.542 347.181 86.5981 346.919C86.6542 346.676 86.6542 346.358 86.5046 346.134C85.9813 345.442 85.3645 344.844 84.5981 344.395C83.8318 343.965 82.9906 343.722 82.1308 343.628C81.8878 343.609 81.5701 343.759 81.4018 343.927C81.2336 344.096 81.0841 344.395 81.1028 344.657C81.1028 344.918 81.1962 345.199 81.4018 345.386C81.6075 345.573 81.8318 345.648 82.1308 345.685L82.0747 345.648Z" fill="black"/>
<path d="M104.056 343.946C104.094 343.796 104.15 343.647 104.206 343.497C104.224 343.422 104.262 343.348 104.28 343.273C104.355 343.067 104.206 343.441 104.28 343.236C104.393 342.974 104.523 342.731 104.673 342.487C104.822 342.226 104.991 341.964 105.178 341.721C105.308 341.553 105.065 341.852 105.215 341.683C105.252 341.627 105.29 341.59 105.346 341.534C105.439 341.422 105.551 341.309 105.664 341.197C105.869 340.992 106.075 340.786 106.299 340.58C106.355 340.524 106.411 340.487 106.486 340.431C106.654 340.3 106.337 340.543 106.523 340.393C106.636 340.318 106.748 340.225 106.879 340.15C107.122 339.982 107.383 339.832 107.645 339.701C107.776 339.626 107.925 339.552 108.056 339.496C107.925 339.533 107.944 339.533 108.056 339.496C108.131 339.458 108.224 339.439 108.318 339.402C108.823 339.215 109.215 338.691 109.028 338.149C108.86 337.663 108.318 337.252 107.776 337.439C105.065 338.411 102.935 340.618 102.112 343.385C101.963 343.89 102.299 344.526 102.822 344.638C103.365 344.769 103.907 344.47 104.075 343.927L104.056 343.946Z" fill="black"/>
<path d="M90.6729 337.775C90.9159 337.813 91.1589 337.869 91.4018 337.962C91.4579 337.962 91.514 338 91.5701 338.018C91.6075 338.018 91.6448 338.037 91.6822 338.056C91.6448 338.037 91.5888 338.018 91.5514 338C91.6635 338.056 91.7757 338.112 91.8878 338.168C92.1121 338.28 92.299 338.411 92.5047 338.561C92.3177 338.411 92.6729 338.673 92.5047 338.561C92.542 338.598 92.5981 338.635 92.6355 338.673C92.729 338.748 92.8224 338.841 92.9159 338.935C92.9906 339.009 93.0841 339.103 93.1589 339.196C93.1962 339.234 93.2336 339.29 93.271 339.327C93.1775 339.196 93.1589 339.178 93.2149 339.252C93.2149 339.271 93.2523 339.309 93.271 339.327C93.4205 339.533 93.5327 339.739 93.6448 339.944C93.6635 340 93.7009 340.057 93.7196 340.094C93.7196 340.131 93.757 340.169 93.7757 340.206C93.7196 340.057 93.7009 340.019 93.7383 340.094C93.7757 340.206 93.8318 340.337 93.8691 340.449C93.9439 340.692 94 340.935 94.0374 341.197C94.0747 341.422 94.3177 341.702 94.5047 341.814C94.729 341.945 95.0467 342.001 95.2897 341.908C95.5327 341.833 95.7757 341.683 95.9065 341.44C96.0374 341.179 96.0561 340.935 96 340.655C95.6822 338.28 93.6075 336.186 91.2523 335.812C90.9719 335.774 90.729 335.774 90.4673 335.924C90.2617 336.055 90.0561 336.298 90 336.541C89.8878 337.027 90.1495 337.7 90.7103 337.794L90.6729 337.775Z" fill="black"/>
<path d="M86.8598 339.888C86.9907 339.926 87.1028 339.963 87.2336 340C87.2897 340.019 87.3645 340.038 87.4206 340.075C87.215 339.982 87.6075 340.15 87.4206 340.075C87.6449 340.187 87.8505 340.281 88.0561 340.412C88.1682 340.487 88.2804 340.561 88.3738 340.636C88.2056 340.487 88.5608 340.767 88.3738 340.636C88.4299 340.674 88.4673 340.711 88.5234 340.767C88.7103 340.935 88.8972 341.104 89.0467 341.291C89.0841 341.328 89.1215 341.366 89.1589 341.422C89.1776 341.459 89.215 341.496 89.2337 341.515C89.215 341.478 89.1776 341.44 89.1589 341.403C89.2337 341.515 89.3084 341.609 89.3832 341.721C89.514 341.927 89.6449 342.151 89.757 342.375C89.757 342.394 89.7944 342.525 89.8318 342.525C89.7757 342.375 89.757 342.357 89.8131 342.469C89.8131 342.488 89.8131 342.506 89.8318 342.525C89.8692 342.656 89.9252 342.768 89.9626 342.899C90 343.03 90.0374 343.142 90.0561 343.273C90.0561 343.329 90.0748 343.385 90.0935 343.441C90.0935 343.516 90.1308 343.778 90.0935 343.46C90.1308 343.74 90.1869 343.965 90.3925 344.189C90.5608 344.357 90.8598 344.507 91.1215 344.488C91.6262 344.47 92.2056 344.04 92.1308 343.46C91.9626 342.114 91.4393 340.917 90.5608 339.907C89.757 338.972 88.6355 338.261 87.4206 337.943C86.8972 337.813 86.2991 338.112 86.1682 338.654C86.0561 339.196 86.3365 339.757 86.8785 339.907L86.8598 339.888Z" fill="black"/>
<path d="M95.0094 334.129C95.1402 334.129 95.2897 334.129 95.4206 334.129C95.458 334.129 95.6262 334.147 95.6262 334.147C95.6262 334.147 95.3645 334.11 95.5888 334.147C95.8505 334.185 96.0935 334.26 96.3365 334.353C96.3926 334.372 96.4673 334.409 96.5234 334.428C96.486 334.428 96.4486 334.39 96.4112 334.372C96.4486 334.372 96.486 334.409 96.5421 334.428C96.6542 334.484 96.7664 334.54 96.8785 334.596C96.9907 334.652 97.1028 334.727 97.1963 334.783C97.2524 334.821 97.3084 334.858 97.3645 334.895C97.3832 334.914 97.4206 334.933 97.4393 334.951C97.4954 334.989 97.4767 334.97 97.3645 334.895C97.4393 334.895 97.5888 335.082 97.6449 335.138C97.7383 335.232 97.8318 335.307 97.9066 335.4C98 335.494 98.0748 335.606 98.1683 335.718C97.9813 335.531 98.1309 335.681 98.1683 335.718C98.2056 335.774 98.243 335.83 98.2804 335.886C98.3552 335.999 98.4112 336.092 98.4673 336.204C98.5047 336.279 98.6355 336.466 98.6355 336.541C98.5795 336.41 98.5608 336.391 98.5982 336.447C98.5982 336.485 98.6169 336.504 98.6355 336.541C98.6542 336.597 98.6729 336.672 98.6916 336.728C98.729 336.859 98.7664 336.99 98.8038 337.121C98.9159 337.644 99.5514 338 100.056 337.831C100.598 337.644 100.897 337.139 100.766 336.578C100.206 333.979 97.6449 331.997 94.9907 332.034C94.4673 332.034 93.944 332.502 93.9626 333.044C93.9813 333.586 94.4112 334.073 94.9907 334.073L95.0094 334.129Z" fill="black"/>
<path d="M96.2805 329.248C99.4767 328.968 102.673 328.481 105.813 327.789C106.355 327.677 106.673 327.041 106.523 326.537C106.374 325.976 105.813 325.714 105.271 325.826C102.299 326.48 99.3085 326.948 96.2805 327.228C95.7384 327.285 95.2711 327.659 95.2711 328.238C95.2711 328.743 95.7384 329.304 96.2805 329.267V329.248Z" fill="black"/>
<path d="M98.5421 315.204C99.4393 319.019 100.337 322.853 101.215 326.667C101.514 327.939 103.477 327.397 103.178 326.125C102.28 322.31 101.383 318.477 100.505 314.662C100.206 313.391 98.2431 313.933 98.5421 315.204Z" fill="black"/>
<path d="M106.598 70.8163C114.075 68.5723 121.794 68.2544 128.28 72.5928C134.766 76.9311 140.224 83.1021 146 88.3567C149.009 91.1056 151.963 91.4609 153.981 94.9952C156 98.5294 157.514 116.986 148.785 114.574C140.224 116.126 136.804 110.497 130.224 104.794C126.224 108.403 127.832 119.585 124.486 123.812C123.047 125.625 121.944 124.634 120.15 126.093C118.355 127.552 117.421 126.504 117.944 128.748C131.738 127.477 145.458 123.756 157.514 116.967C158.785 120.277 161.103 123.232 162.374 126.542C162.729 127.439 164.654 130.88 160.71 131.048C159.738 131.086 162.71 131.142 161.907 131.703C146.449 142.025 109.421 150.347 110.542 151.001C108.449 155.04 112.187 166.503 110.093 170.542C109.383 171.926 68.2243 170.15 57.2523 167.906C63.0467 150.291 67.1776 125.812 69.0654 109.226C69.6822 103.784 72.1682 100.138 74.9906 95.444C77.8131 90.7503 78.5047 81.176 83.9439 81.7557C87.028 82.0923 95.7009 88.899 98.5233 90.1893C101.346 91.4796 103.495 91.0121 106.449 90.0958C109.402 89.1795 112.729 87.0477 111.215 84.3363C110.617 83.2517 106.318 81.3069 105.551 80.3345C103.159 77.3425 105.907 74.6871 106.766 70.9472L106.598 70.7789V70.8163Z" fill="#FCC786"/>
<mask id="mask0_2_2844" style="mask-type:luminance" maskUnits="userSpaceOnUse" x="57" y="69" width="107" height="103">
<path d="M106.598 70.8163C114.075 68.5723 121.794 68.2544 128.28 72.5928C134.766 76.9311 140.224 83.1021 146 88.3567C149.009 91.1056 151.963 91.4609 153.981 94.9952C156 98.5294 157.514 116.986 148.785 114.574C140.224 116.126 136.804 110.497 130.224 104.794C126.224 108.403 127.832 119.585 124.486 123.812C123.047 125.625 121.944 124.634 120.15 126.093C118.355 127.552 117.421 126.504 117.944 128.748C131.738 127.477 145.458 123.756 157.514 116.967C158.785 120.277 161.103 123.232 162.374 126.542C162.729 127.439 164.654 130.88 160.71 131.048C159.738 131.086 162.71 131.142 161.907 131.703C146.449 142.025 109.421 150.347 110.542 151.001C108.449 155.04 112.187 166.503 110.093 170.542C109.383 171.926 68.2243 170.15 57.2523 167.906C63.0467 150.291 67.1776 125.812 69.0654 109.226C69.6822 103.784 72.1682 100.138 74.9906 95.444C77.8131 90.7503 78.5047 81.176 83.9439 81.7557C87.028 82.0923 95.7009 88.899 98.5233 90.1893C101.346 91.4796 103.495 91.0121 106.449 90.0958C109.402 89.1795 112.729 87.0477 111.215 84.3363C110.617 83.2517 106.318 81.3069 105.551 80.3345C103.159 77.3425 105.907 74.6871 106.766 70.9472L106.598 70.7789V70.8163Z" fill="white"/>
</mask>
<g mask="url(#mask0_2_2844)">
<path d="M126.262 61.1672C122.748 64.9258 119.234 68.7032 115.72 72.4619C112.374 76.0522 109.065 79.7735 105.121 82.7468C101.346 85.6078 97.028 87.6648 92.6355 89.4226C88.2056 91.1991 83.7196 92.8634 79.2149 94.4342C73.9252 96.2854 68.542 97.8562 63.0093 98.7538C62.1495 98.8847 62.5046 100.194 63.3645 100.063C73.271 98.4733 82.7663 94.7521 92.056 91.1056C96.3738 89.4039 100.654 87.5152 104.467 84.8598C108.43 82.1297 111.757 78.6515 115.028 75.1546C119.084 70.8163 123.14 66.4592 127.196 62.1208C127.794 61.4851 126.841 60.5127 126.243 61.1672H126.262Z" fill="white"/>
<path d="M133.514 68.6284C117.514 85.6452 96.5794 97.8375 73.9252 103.522C67.4766 105.149 60.8785 106.234 54.243 106.757C53.3831 106.832 53.3644 108.179 54.243 108.122C77.8878 106.234 100.841 97.3513 119.664 82.9338C124.953 78.8946 129.907 74.4253 134.467 69.5821C135.065 68.9463 134.112 67.9739 133.514 68.6284Z" fill="white"/>
<path d="M144.766 71.1903C135.981 81.2321 125.271 89.4039 113.551 95.7244C101.701 102.12 88.8972 106.683 75.8131 109.805C68.3738 111.582 60.8224 112.891 53.2149 113.788C52.3551 113.882 52.3551 115.247 53.2149 115.154C66.8037 113.545 80.2803 110.684 93.1962 106.14C105.963 101.652 118.224 95.5562 129.103 87.4591C135.159 82.9525 140.748 77.8474 145.72 72.1627C146.299 71.5082 145.346 70.5358 144.766 71.209V71.1903Z" fill="white"/>
<path d="M154.056 80.6524C142.449 91.1804 129.178 99.801 114.897 106.234C100.579 112.685 85.2337 116.949 69.6262 118.744C60.9346 119.754 52.1496 119.978 43.4206 119.436C42.5421 119.38 42.5421 120.745 43.4206 120.801C59.2337 121.792 75.1776 120.184 90.5047 116.238C105.776 112.293 120.467 106.028 133.832 97.6505C141.346 92.9382 148.449 87.5713 155.028 81.6061C155.682 81.0264 154.71 80.054 154.075 80.6524H154.056Z" fill="white"/>
<path d="M155.533 89.0486C146.636 102.008 132.299 109.805 118.056 115.584C101.533 122.297 84.1869 127.047 66.5608 129.721C56.5608 131.235 46.4673 132.077 36.3552 132.264C35.4767 132.264 35.4767 133.648 36.3552 133.629C54.5795 133.292 72.7477 130.805 90.3739 126.205C99.1963 123.905 107.869 121.063 116.355 117.734C123.738 114.817 131.028 111.526 137.776 107.3C145.14 102.681 151.794 96.94 156.729 89.7405C157.234 89.0112 156.056 88.338 155.551 89.0486H155.533Z" fill="white"/>
<path d="M160.336 100.979C149.495 111.582 136.393 119.679 122.393 125.438C107.178 131.684 90.9533 135.2 74.6355 136.939C65.0467 137.967 55.4206 138.397 45.7757 138.472C44.8972 138.472 44.8972 139.837 45.7757 139.837C63.1402 139.706 80.5794 138.397 97.5514 134.601C112.785 131.198 127.626 125.7 141.009 117.603C148.336 113.171 155.178 107.935 161.29 101.951C161.907 101.334 160.953 100.381 160.336 100.998V100.979Z" fill="white"/>
<path d="M166.579 118.37C153.14 129.104 136.336 134.171 119.738 137.593C110.878 139.426 101.925 140.885 92.9906 142.343C82.972 143.97 72.8972 145.429 62.7663 146.195C51.3832 147.056 39.9065 147.018 28.5794 145.373C27.7196 145.242 27.3645 146.551 28.2243 146.682C48.5233 149.617 69.0467 147.486 89.1776 144.325C98.5047 142.867 107.85 141.315 117.121 139.501C125.664 137.836 134.187 135.817 142.393 132.9C151.421 129.683 160.019 125.326 167.514 119.342C168.206 118.8 167.234 117.846 166.561 118.389L166.579 118.37Z" fill="white"/>
<path d="M146.131 139.202C131.72 144.007 116.822 147.261 101.72 148.888C86.7103 150.496 71.514 150.515 56.5047 148.944C47.9813 148.047 39.514 146.625 31.1776 144.681C30.3178 144.475 29.9626 145.803 30.8224 145.99C45.6635 149.43 60.8785 151.244 76.1122 151.45C91.3458 151.637 106.598 150.216 121.533 147.186C130 145.466 138.336 143.241 146.523 140.511C147.346 140.23 146.991 138.921 146.168 139.202H146.131Z" fill="white"/>
<path d="M121.607 156.611C121.963 156.555 122.392 156.518 122.467 156.48C122.467 156.48 122.542 156.48 122.561 156.48C122.318 156.742 121.869 155.096 122.243 155.246C122.243 155.246 122.392 155.227 122.149 155.265C121.196 155.452 120.243 155.77 119.308 155.975C114.935 156.929 110.523 157.677 106.093 158.313C91.7009 160.37 76.9906 161.267 62.5046 159.977C53.9439 159.21 45.3644 157.621 37.3644 154.442C36.5607 154.124 36.2056 155.433 37.0093 155.751C52.1495 161.772 69.2149 162.464 85.3084 161.679C97.0093 161.118 108.86 159.753 120.318 157.153C121.084 156.985 122.299 156.892 122.953 156.424C123.589 155.957 123.234 155.171 122.505 155.134C122.093 155.115 121.626 155.246 121.234 155.321C120.374 155.47 120.748 156.779 121.589 156.63L121.607 156.611Z" fill="white"/>
<path d="M121.215 166.26C121.57 166.204 122 166.167 122.075 166.129C122.075 166.129 122.15 166.129 122.168 166.129C121.925 166.391 121.477 164.746 121.851 164.895C121.851 164.895 122 164.876 121.757 164.914C120.804 165.101 119.85 165.419 118.916 165.624C114.542 166.578 110.131 167.326 105.701 167.962C91.3084 170.019 76.5982 170.916 62.1122 169.626C53.5514 168.86 44.972 167.27 36.972 164.091C36.1683 163.773 35.8131 165.082 36.6168 165.4C51.757 171.421 68.8225 172.113 84.9159 171.328C96.6169 170.767 108.467 169.402 119.925 166.803C120.692 166.634 121.907 166.541 122.561 166.073C123.196 165.606 122.841 164.82 122.112 164.783C121.701 164.764 121.234 164.895 120.841 164.97C119.981 165.12 120.355 166.429 121.196 166.279L121.215 166.26Z" fill="white"/>
</g>
<path d="M124.131 28.7604C123.589 34.1459 121.832 48.3952 121.271 53.762C120.991 56.5483 120.654 59.4842 119.028 61.7656C116.374 65.5055 111.234 66.3096 106.673 66.7958C105.57 70.9285 104.991 75.2107 104.953 79.493C104.953 80.241 104.991 81.0451 105.495 81.5874C105.906 82.0362 106.561 82.1671 107.159 82.298C110.43 82.9712 110.71 87.5152 107.551 88.5998C105.776 89.2169 103.869 89.4787 102 89.4039C97.4018 89.1795 93.1027 87.1412 89.1588 84.7664C88.5981 84.4298 87.9999 84.0558 87.6635 83.4761C87.2523 82.7655 87.2897 81.8866 87.3457 81.0638C87.8317 74.1449 88.8037 67.2446 90.2429 60.4566C86.9906 60.5688 83.57 58.6801 82.5233 55.5759C81.4953 52.4904 83.6074 48.5448 86.8598 48.2643C87.514 48.2082 88.2803 48.2643 88.7102 47.7407C88.9345 47.4602 89.0093 47.1049 89.0841 46.7496C89.7943 42.8039 91.7009 29.9945 92.4112 26.0489C103.813 19.5974 113.533 20.7381 123.551 27.9937L124.131 28.7043V28.7604Z" fill="white"/>
<path d="M123.121 28.7603C122.561 34.2581 121.869 39.7185 121.234 45.2162C120.935 47.7594 120.635 50.3213 120.374 52.8644C120.019 56.193 119.813 59.9143 117.196 62.3639C114.449 64.9258 110.28 65.412 106.71 65.8047C106.262 65.8608 105.85 66.0852 105.72 66.5527C105.084 68.9837 104.617 71.4708 104.318 73.9766C104.168 75.2481 104.056 76.5384 104 77.8287C103.963 78.8759 103.832 80.054 104.112 81.0825C104.561 82.7655 106.075 83.1582 107.57 83.4574C108.748 83.7005 110.131 84.1119 109.925 85.6265C109.813 86.5054 109.084 86.8794 108.355 87.2347C107.271 87.7396 106.056 88.0762 104.878 88.2819C102.467 88.6746 100 88.338 97.6822 87.6461C95.3644 86.9542 93.1775 85.907 91.0654 84.729C90.1682 84.2241 88.7476 83.6818 88.4299 82.6159C88.1121 81.55 88.4859 79.9979 88.5794 78.9133C89.1028 72.8172 90 66.7771 91.271 60.7932C91.4018 60.1574 90.9906 59.5029 90.2803 59.5029C87.2336 59.5403 83.5327 57.6516 83.3271 54.2482C83.2523 52.8083 83.8317 51.3123 84.8972 50.3213C85.3831 49.8725 85.9626 49.5359 86.6168 49.405C87.3644 49.2554 88.1308 49.3676 88.8411 49.0123C90.0186 48.4139 90.1121 47.1236 90.3177 45.9642C90.5046 44.8609 90.6915 43.7389 90.8598 42.6169C91.3084 39.7933 91.757 36.9509 92.1869 34.1272C92.5981 31.5466 92.9906 28.966 93.4392 26.3855C93.1028 26.6286 92.785 26.8904 92.4486 27.1335C102.635 26.8717 112.243 21.0934 122.523 22.4959C123.813 22.6642 124.355 20.7007 123.065 20.5324C112.486 19.1112 102.878 24.8334 92.4672 25.0952C92.056 25.0952 91.57 25.3944 91.4766 25.8432C90.5046 31.3596 89.7196 36.9135 88.8411 42.4486C88.6542 43.608 88.4673 44.7674 88.2616 45.9268C88.2243 46.1325 88.2056 46.3382 88.1495 46.5252C87.9626 47.1236 87.7944 47.2171 87.1962 47.2732C86.4299 47.348 85.7383 47.4602 85.0467 47.7781C82.2056 49.0871 80.7102 52.6587 81.514 55.632C82.542 59.4281 86.5794 61.5786 90.299 61.5225C89.9626 61.0924 89.6448 60.6623 89.3084 60.2322C88.0747 66.1039 87.1775 72.0318 86.6168 78.0157C86.4112 80.2784 85.6635 83.2704 87.6448 84.9534C89.5514 86.5802 92.2429 87.7209 94.5607 88.6746C99.3084 90.6194 104.635 91.2178 109.402 88.9738C111.14 88.151 112.299 86.6363 111.925 84.6542C111.626 83.0647 110.411 81.9801 108.878 81.6248C108.224 81.4752 107.495 81.4378 106.86 81.1947C105.458 80.6898 106.037 78.1466 106.093 76.9498C106.299 73.6026 106.841 70.3114 107.701 67.0763C107.364 67.3194 107.047 67.5812 106.71 67.8243C110.168 67.4503 113.813 66.9828 116.841 65.1502C120.168 63.1306 121.551 59.7647 122.056 56.0434C122.897 50.0221 123.439 43.9446 124.131 37.9046C124.486 34.8565 124.86 31.8084 125.159 28.7416C125.29 27.4327 123.252 27.4514 123.121 28.7416V28.7603Z" fill="black"/>
<path d="M88.8224 48.7879C95.2336 44.7861 100.486 31.2474 105.458 25.544C104.486 27.9376 106.168 30.836 108.598 31.7336C111.009 32.6312 113.794 31.8645 115.907 30.3872C115.103 33.3044 117.813 36.6143 120.841 36.3899C120.935 38.129 121.701 39.812 122.972 41.0087C121.944 43.1592 125.327 38.1477 125.907 33.0613C126.336 29.2465 126.43 25.3009 125.215 21.6731C123.981 18.0453 121.234 14.7542 117.533 13.7257C116.336 13.3891 115.065 13.3143 113.869 12.9403C110.523 11.9118 108.206 8.90112 105.178 7.12464C99.8878 4.03916 92.4112 5.53515 88.7103 10.3971C87.3271 12.2297 86.3364 14.5111 84.3364 15.6331C82.8972 16.4185 81.1963 16.4559 79.5701 16.5307C72.7103 16.8299 65.4206 18.2323 60.5794 23.0943C54.4112 29.3026 53.3084 49.4985 59.5888 55.5946C60.0748 56.0621 60.5981 56.5109 60.9159 57.1093C61.6075 58.4183 61.0841 60.0826 60.1682 61.242C59.2336 62.4014 57.9626 63.2054 56.8411 64.1778C52.785 67.6934 50.9907 73.64 52.4486 78.8011C53.8878 83.981 58.5047 88.1323 63.7944 89.0299C63.2897 91.4048 64.3364 94.0415 66.3364 95.4253C68.3364 96.809 71.1776 96.8465 73.2149 95.5188C76.542 93.3683 77.0654 88.712 79.4953 85.5704C80.8037 83.8875 82.6355 82.6907 84.3178 81.363C85.2336 80.6337 86.1308 79.8483 86.6355 78.7824C87.0093 77.997 87.1402 77.1181 87.2523 76.2579C87.8318 72.2562 88.3925 68.2544 88.972 64.2339C89.0467 63.7477 88.5981 63.168 88.8785 62.7567C90.6916 60.1387 88.4486 60.5875 87.8131 60.3631C84.9533 59.3533 83.2523 58.9232 82.6355 55.9686C81.8505 52.1725 84.2617 48.0773 87.9813 49.1245L88.785 48.7318L88.8224 48.7879Z" fill="black"/>
<path d="M98.6728 66.7771C101.439 67.4503 104.299 67.843 107.14 67.9178C108.449 67.9552 108.449 65.9169 107.14 65.8795C104.467 65.8047 101.813 65.4494 99.2149 64.8136C97.9439 64.4957 97.4018 66.4592 98.6728 66.7771Z" fill="black"/>
<path d="M102.449 46.226C102.449 46.226 102.262 46.3569 102.187 46.4317C102.112 46.5065 102.037 46.6 101.981 46.6935C101.906 46.8057 101.85 46.9553 101.813 47.0862C101.813 47.1236 101.813 47.1423 101.794 47.1797C101.776 47.2919 101.757 47.4041 101.757 47.535C101.757 47.5537 101.757 47.5911 101.757 47.6098C101.757 47.722 101.776 47.8529 101.813 47.9651C101.832 48.1147 101.906 48.2456 101.963 48.3765C101.981 48.4326 102.019 48.4887 102.056 48.5448C102.131 48.657 102.224 48.7879 102.318 48.8814C102.392 48.9562 102.486 49.031 102.579 49.0871C102.598 49.0871 102.635 49.1245 102.654 49.1245C102.766 49.1806 102.86 49.218 102.972 49.2554C103.084 49.2928 103.215 49.2928 103.327 49.3115C103.477 49.3115 103.645 49.3115 103.794 49.2554C103.963 49.1993 104.112 49.1245 104.243 48.9936C104.374 48.8627 104.449 48.7131 104.505 48.5448C104.523 48.4139 104.561 48.2643 104.561 48.1334C104.561 48.0025 104.542 47.8529 104.505 47.722C104.505 47.6659 104.486 47.6285 104.467 47.5724C104.411 47.4415 104.374 47.3106 104.299 47.1984C104.224 47.0862 104.149 46.974 104.056 46.8805C104.019 46.8431 103.981 46.8057 103.944 46.7683C103.85 46.6748 103.738 46.6 103.626 46.5252C103.514 46.4504 103.383 46.413 103.252 46.3569C103.121 46.3195 102.991 46.3008 102.841 46.3569C102.71 46.3569 102.579 46.3943 102.467 46.4691C102.355 46.5252 102.262 46.6187 102.187 46.7309C102.093 46.8244 102.037 46.9366 102 47.0862C102 47.1797 101.981 47.2732 101.963 47.348C101.963 47.535 102.019 47.7033 102.093 47.8716C102.149 47.9464 102.206 48.0025 102.262 48.0773C102.392 48.2082 102.542 48.283 102.71 48.3391C102.71 48.3391 102.729 48.3391 102.748 48.3391C102.673 48.3017 102.579 48.2643 102.505 48.2456C102.561 48.2643 102.635 48.3017 102.692 48.3578C102.617 48.3017 102.561 48.2456 102.486 48.1895C102.542 48.2269 102.598 48.283 102.635 48.3578C102.579 48.283 102.523 48.2269 102.467 48.1521C102.523 48.2082 102.561 48.283 102.579 48.3578L102.486 48.1147C102.486 48.1147 102.542 48.2643 102.542 48.3391C102.542 48.2456 102.523 48.1521 102.505 48.0773C102.505 48.1521 102.505 48.2082 102.505 48.283L102.542 48.0212C102.542 48.0212 102.542 48.0399 102.542 48.0586C102.785 47.8155 103.009 47.5911 103.252 47.348C103.234 47.348 103.215 47.348 103.178 47.348C103.271 47.348 103.364 47.3293 103.439 47.3106C103.402 47.3106 103.364 47.3106 103.308 47.3106L103.57 47.348C103.57 47.348 103.477 47.348 103.439 47.3106C103.514 47.348 103.607 47.3854 103.682 47.4041C103.645 47.3854 103.589 47.3667 103.551 47.3293C103.626 47.3854 103.682 47.4415 103.757 47.4976C103.701 47.4602 103.664 47.4041 103.626 47.3667C103.682 47.4415 103.738 47.4976 103.794 47.5724C103.757 47.5163 103.72 47.4602 103.682 47.3854C103.72 47.4602 103.757 47.5537 103.776 47.6285C103.738 47.5537 103.72 47.4976 103.72 47.4228C103.72 47.5163 103.738 47.6098 103.757 47.6846C103.757 47.6285 103.757 47.5724 103.757 47.4976L103.72 47.7594C103.72 47.7594 103.738 47.6659 103.757 47.6285C103.72 47.7033 103.682 47.7968 103.664 47.8716C103.664 47.8342 103.701 47.7968 103.72 47.7594C103.664 47.8342 103.607 47.8903 103.551 47.9651C103.57 47.9277 103.607 47.909 103.626 47.8903C103.551 47.9464 103.495 48.0025 103.421 48.0586C103.421 48.0586 103.439 48.0586 103.458 48.0399C103.57 47.9838 103.664 47.8903 103.738 47.7781C103.832 47.6846 103.888 47.5724 103.925 47.4228C103.963 47.2919 103.981 47.161 103.925 47.0114C103.925 46.8805 103.888 46.7496 103.813 46.6374C103.682 46.413 103.458 46.226 103.196 46.1699L102.935 46.1325C102.748 46.1325 102.579 46.1886 102.411 46.2634L102.449 46.226Z" fill="black"/>
<path d="M116.804 46.226C116.804 46.226 116.617 46.3569 116.542 46.4317C116.467 46.5065 116.393 46.6 116.336 46.6935C116.262 46.8057 116.206 46.9553 116.168 47.0862C116.168 47.1236 116.168 47.1423 116.15 47.1797C116.131 47.2919 116.112 47.4041 116.112 47.535C116.112 47.5537 116.112 47.5911 116.112 47.6098C116.112 47.722 116.131 47.8529 116.168 47.9651C116.187 48.1147 116.262 48.2456 116.318 48.3765C116.336 48.4326 116.374 48.4887 116.411 48.5448C116.486 48.657 116.579 48.7879 116.673 48.8814C116.748 48.9562 116.841 49.031 116.935 49.0871C116.953 49.0871 116.991 49.1245 117.009 49.1245C117.122 49.1806 117.215 49.218 117.327 49.2554C117.439 49.2928 117.57 49.2928 117.682 49.3115C117.832 49.3115 118 49.3115 118.15 49.2554C118.318 49.1993 118.467 49.1245 118.598 48.9936C118.729 48.8627 118.804 48.7131 118.86 48.5448C118.879 48.4139 118.916 48.2643 118.916 48.1334C118.916 48.0025 118.897 47.8529 118.86 47.722C118.86 47.6659 118.841 47.6285 118.822 47.5724C118.766 47.4415 118.729 47.3106 118.654 47.1984C118.579 47.0862 118.505 46.974 118.411 46.8805C118.374 46.8431 118.336 46.8057 118.299 46.7683C118.206 46.6748 118.093 46.6 117.981 46.5252C117.869 46.4504 117.738 46.413 117.608 46.3569C117.477 46.3195 117.346 46.3008 117.196 46.3569C117.065 46.3569 116.935 46.3943 116.822 46.4691C116.71 46.5252 116.617 46.6187 116.542 46.7309C116.449 46.8244 116.393 46.9366 116.355 47.0862C116.355 47.1797 116.336 47.2732 116.318 47.348C116.318 47.535 116.374 47.7033 116.449 47.8716C116.505 47.9464 116.561 48.0025 116.617 48.0773C116.748 48.2082 116.897 48.283 117.065 48.3391C117.065 48.3391 117.084 48.3391 117.103 48.3391L116.86 48.2456C116.86 48.2456 116.991 48.3017 117.047 48.3578C116.972 48.3017 116.916 48.2456 116.841 48.1895C116.897 48.2269 116.953 48.283 116.991 48.3578C116.935 48.283 116.879 48.2269 116.822 48.1521C116.879 48.2082 116.916 48.283 116.935 48.3578C116.897 48.283 116.86 48.1895 116.841 48.1147C116.879 48.1895 116.897 48.2643 116.897 48.3391L116.86 48.0773C116.86 48.0773 116.86 48.2082 116.86 48.283C116.86 48.1895 116.879 48.096 116.897 48.0212C116.897 48.0212 116.897 48.0399 116.897 48.0586C117.14 47.8155 117.365 47.5911 117.608 47.348C117.589 47.348 117.57 47.348 117.533 47.348C117.626 47.348 117.72 47.3293 117.794 47.3106C117.757 47.3106 117.72 47.3106 117.664 47.3106C117.757 47.3106 117.851 47.3293 117.925 47.348C117.888 47.348 117.832 47.348 117.794 47.3106C117.869 47.348 117.963 47.3854 118.037 47.4041C118 47.3854 117.944 47.3667 117.907 47.3293C117.981 47.3854 118.037 47.4415 118.112 47.4976C118.056 47.4602 118.019 47.4041 117.981 47.3667C118.037 47.4415 118.093 47.4976 118.15 47.5724C118.112 47.5163 118.075 47.4602 118.037 47.3854C118.075 47.4602 118.112 47.5537 118.131 47.6285C118.093 47.5537 118.075 47.4976 118.075 47.4228C118.075 47.5163 118.093 47.6098 118.112 47.6846C118.112 47.6285 118.112 47.5724 118.112 47.4976L118.075 47.7594C118.075 47.7594 118.093 47.6659 118.112 47.6285C118.075 47.7033 118.037 47.7968 118.019 47.8716C118.019 47.8342 118.056 47.7968 118.075 47.7594C118.019 47.8342 117.963 47.8903 117.907 47.9651C117.925 47.9277 117.963 47.909 117.981 47.8903C117.907 47.9464 117.85 48.0025 117.776 48.0586C117.776 48.0586 117.794 48.0586 117.813 48.0399C117.925 47.9838 118.019 47.8903 118.093 47.7781C118.187 47.6846 118.243 47.5724 118.28 47.4228C118.318 47.2919 118.336 47.161 118.28 47.0114C118.28 46.8805 118.243 46.7496 118.168 46.6374C118.037 46.413 117.813 46.226 117.551 46.1699C117.458 46.1699 117.365 46.1512 117.29 46.1325C117.103 46.1325 116.935 46.1886 116.766 46.2634L116.804 46.226Z" fill="black"/>
<path d="M110 48.3765C110.841 48.657 111.682 48.9375 112.523 49.218C112.748 49.2928 112.953 49.3676 113.178 49.4424C113.252 49.4611 113.327 49.4985 113.383 49.5172C113.421 49.5172 113.664 49.6294 113.551 49.5733C113.439 49.5172 113.645 49.6294 113.664 49.6481C113.72 49.6855 113.869 49.8164 113.738 49.6855C113.776 49.7229 113.794 49.7416 113.832 49.779C113.888 49.8351 113.869 49.8164 113.813 49.7416C113.869 49.8351 113.869 49.8351 113.851 49.779C113.832 49.7042 113.832 49.7229 113.851 49.8164C113.851 49.8351 113.851 49.8725 113.869 49.8912C113.869 49.7603 113.869 49.7603 113.869 49.8912C113.869 49.966 113.869 50.0408 113.869 50.1156C113.869 50.1904 113.869 50.1717 113.869 50.0595C113.869 50.0969 113.851 50.153 113.832 50.1904C113.813 50.2652 113.794 50.3399 113.757 50.4147C113.813 50.2278 113.738 50.4709 113.701 50.5083C113.664 50.583 113.608 50.6765 113.57 50.7513C113.514 50.8261 113.477 50.9009 113.421 50.9757C113.533 50.8261 113.383 51.0318 113.346 51.0692C112.804 51.7237 112.28 52.3221 111.981 53.1262C111.794 53.6311 112.187 54.2669 112.692 54.3791C113.271 54.51 113.738 54.2108 113.944 53.6685C113.981 53.5563 113.981 53.5563 113.944 53.6685C113.963 53.6311 113.981 53.5937 114 53.5376C114.056 53.4441 114.112 53.3506 114.168 53.2571C114.187 53.2197 114.355 53.014 114.224 53.1636C114.28 53.0888 114.336 53.014 114.393 52.9392C114.692 52.5839 114.991 52.2473 115.252 51.8546C115.776 51.0879 116.056 50.0221 115.72 49.1245C115.308 48.0586 114.318 47.7033 113.327 47.3854C112.374 47.0675 111.439 46.7496 110.486 46.4504C109.981 46.2821 109.346 46.6374 109.234 47.161C109.103 47.722 109.402 48.2269 109.944 48.4139L110 48.3765Z" fill="black"/>
<path d="M106.393 38.7648C103.794 38.129 100.897 38.9705 99.1215 40.99C98.7663 41.3827 98.6916 42.0372 99.1215 42.4299C99.514 42.7852 100.187 42.86 100.561 42.4299C100.729 42.2242 100.916 42.0372 101.121 41.8689C101.178 41.8128 101.234 41.7754 101.308 41.7193C101.364 41.6632 101.402 41.6445 101.308 41.7193C101.421 41.6445 101.533 41.551 101.664 41.4762C101.888 41.3266 102.112 41.1957 102.355 41.0835C102.411 41.0648 102.467 41.0274 102.523 41.0087C102.355 41.0835 102.542 41.0087 102.579 40.99C102.71 40.9339 102.841 40.8965 102.972 40.8591C103.234 40.7843 103.477 40.7095 103.738 40.6721C103.794 40.6721 103.869 40.6534 103.925 40.6347C104.093 40.5973 103.682 40.6534 103.981 40.6347C104.112 40.6347 104.224 40.616 104.355 40.616C104.635 40.616 104.916 40.616 105.196 40.616C105.252 40.616 105.327 40.616 105.383 40.6347C105.271 40.6347 105.29 40.6347 105.383 40.6347C105.533 40.6721 105.682 40.6909 105.832 40.7283C106.355 40.8591 106.953 40.56 107.084 40.0177C107.196 39.4941 106.935 38.8957 106.374 38.7648H106.393Z" fill="black"/>
<path d="M117.944 40.5973C118.093 40.5599 118.224 40.5225 118.374 40.5038C118.28 40.5038 118.187 40.5225 118.112 40.5412C118.392 40.5038 118.673 40.5038 118.935 40.5412C118.841 40.5412 118.748 40.5225 118.673 40.5038C118.897 40.5412 119.121 40.5973 119.346 40.6721C119.383 40.6721 119.402 40.6908 119.439 40.7095C119.383 40.6908 119.346 40.6721 119.29 40.6534C119.346 40.6534 119.421 40.7095 119.477 40.7282C119.57 40.7843 119.664 40.8217 119.757 40.8778C119.813 40.9152 119.85 40.9339 119.907 40.9713C120.056 41.0835 119.72 40.803 119.85 40.9339C119.944 41.0087 120.019 41.0835 120.112 41.1583C120.15 41.1957 120.187 41.2331 120.206 41.2705C120.262 41.3266 120.374 41.5323 120.206 41.2705C120.262 41.364 120.336 41.4575 120.393 41.551C120.654 42.0185 121.327 42.2055 121.794 41.925C122.262 41.6258 122.449 41.0274 122.168 40.5225C121.252 38.9331 119.234 38.1103 117.458 38.6339C116.953 38.7835 116.579 39.3632 116.748 39.8868C116.916 40.4103 117.458 40.7656 118 40.5973H117.944Z" fill="black"/>
<path d="M85.7758 53.3132C85.7758 53.3132 85.5515 53.2197 85.701 53.2758C85.7384 53.2758 85.7571 53.3132 85.7945 53.3132C85.8692 53.3506 85.9253 53.388 86.0001 53.4254C86.0561 53.4628 86.1309 53.5002 86.187 53.5563C86.2057 53.575 86.243 53.5937 86.2617 53.6124C86.4113 53.7246 86.2057 53.5937 86.187 53.5563C86.187 53.5937 86.3365 53.6872 86.3552 53.7059C86.4113 53.762 86.4673 53.8181 86.5234 53.8555C86.5795 53.9116 86.6356 53.9677 86.673 54.0238C86.6916 54.0425 86.7103 54.0799 86.729 54.0986C86.8038 54.1921 86.5608 53.8742 86.673 54.0238C86.7477 54.136 86.8412 54.2669 86.9159 54.3791C86.9533 54.4539 86.9907 54.51 87.0281 54.5848C87.0468 54.6222 87.1589 54.8653 87.0842 54.697C87.0094 54.5287 87.1029 54.7718 87.1216 54.8092C87.1402 54.884 87.1776 54.9588 87.1963 55.0336C87.2337 55.1832 87.2711 55.3515 87.2898 55.5011C87.2898 55.4076 87.2711 55.3141 87.2524 55.2393C87.2711 55.4263 87.2898 55.6133 87.2898 55.8003C87.2898 56.3426 87.7571 56.8475 88.2991 56.8288C88.8599 56.8101 89.3085 56.38 89.3085 55.8003C89.3085 54.884 89.0468 53.949 88.5421 53.1823C88.2991 52.8083 88.0001 52.4343 87.6449 52.1538C87.215 51.7985 86.8038 51.5554 86.2804 51.3497C86.0561 51.2563 85.701 51.3498 85.4954 51.462C85.2898 51.5929 85.0842 51.8359 85.0281 52.079C84.972 52.3408 84.9907 52.64 85.1216 52.8644C85.2711 53.1075 85.4767 53.2197 85.7384 53.3319L85.7758 53.3132Z" fill="black"/>
<path d="M86.785 81.924C81.6635 82.5224 78.6915 86.2436 75.8504 90.1706C72.3925 94.9952 70.2803 100.231 68.6355 105.916C66.8411 112.106 65.4392 118.445 64.8411 124.878C64.299 130.562 64.0186 136.901 66.3177 142.268C70.5981 152.273 82.7289 152.927 92.0934 152.684C104.075 152.366 116.037 150.571 127.589 147.355C140.561 143.764 153.047 138.397 164.579 131.441C165.028 131.161 165.252 130.525 164.953 130.039C162.262 125.794 160.112 121.268 158.561 116.481C158.392 115.976 157.85 115.602 157.308 115.771C141.252 120.876 125.14 126.299 108.486 129.122C104.112 129.87 99.6822 130.394 95.2336 130.506C95.57 130.749 95.8878 131.011 96.2243 131.254C95.5327 129.365 95.3644 127.29 95.2897 125.289C95.1775 122.839 95.2336 120.39 95.3831 117.94C95.514 115.789 95.7009 113.639 96 111.488C96.0934 110.759 96.2056 110.03 96.3738 109.301C96.4299 109.057 96.4859 108.833 96.542 108.59C96.5607 108.515 96.6355 108.384 96.6355 108.328C96.6542 108.646 95.813 108.889 95.5514 108.833C96.8224 109.17 97.3644 107.206 96.0934 106.87C94.9532 106.552 94.6168 107.842 94.4299 108.665C94.1121 110.105 93.9439 111.601 93.7757 113.078C93.2897 117.323 93.0467 121.642 93.2897 125.925C93.4018 127.888 93.5887 129.945 94.2803 131.796C94.4299 132.208 94.785 132.563 95.271 132.544C103.458 132.339 111.607 130.805 119.57 128.935C128.131 126.934 136.579 124.447 144.972 121.829C149.271 120.483 153.57 119.099 157.869 117.734C157.458 117.491 157.028 117.267 156.617 117.024C158.224 121.96 160.43 126.673 163.215 131.067C163.346 130.6 163.458 130.132 163.589 129.665C144.149 141.389 121.981 148.514 99.3458 150.234C94.1869 150.627 88.9158 150.926 83.757 150.44C79.2897 150.029 74.4859 148.869 71.1588 145.672C67.1775 141.857 66.5794 136.116 66.6168 130.899C66.6729 124.765 67.5887 118.688 69.0093 112.741C70.4672 106.57 72.1308 100.119 75.3644 94.6212C76.785 92.2089 78.5046 89.8153 80.3551 87.7209C82.0934 85.7574 84.1869 84.2615 86.8411 83.9623C88.1308 83.8127 88.1495 81.7744 86.8411 81.924H86.785Z" fill="black"/>
<path d="M106.953 70.9472C111.514 70.7976 116.075 70.4236 120.617 70.8911C122.878 71.1342 124.972 71.6578 126.953 72.7611C129.533 74.201 131.925 75.9961 134.187 77.9035C138.935 81.9053 143.439 86.2249 147.869 90.5446C148.953 91.6105 150.037 92.6764 151.103 93.7423C152.131 94.7708 153.121 95.9489 154.28 96.8278C156.654 98.5855 160.019 97.1643 162.617 96.6221C169.907 95.1074 177.178 93.574 184.467 92.0593C184.037 91.7227 183.607 91.4048 183.178 91.0682C183.252 92.8634 183.346 94.6399 183.421 96.4351C183.458 97.3326 183.495 98.2302 183.551 99.1278C183.589 100.007 183.888 101.26 183.682 102.101C183.533 102.681 183.196 102.662 182.673 102.83C182.374 102.924 182.093 103.017 181.813 103.111C181.103 103.373 180.411 103.672 179.738 103.99C176.71 105.43 173.907 107.262 171.009 108.927C163.832 113.003 155.85 116.182 147.477 114.443C140.841 113.078 135.103 109.151 130.224 104.588C129.271 103.691 127.832 105.13 128.785 106.028C133.421 110.366 138.785 114.144 144.935 115.92C149.514 117.229 154.336 117.285 158.972 116.219C163.178 115.247 167.159 113.396 170.935 111.32C174.149 109.544 177.234 107.487 180.542 105.878C181.234 105.542 181.925 105.243 182.654 105C183.664 104.663 184.897 104.551 185.458 103.504C185.832 102.793 185.738 101.933 185.701 101.166C185.645 100.119 185.607 99.0717 185.551 98.0432C185.439 95.7245 185.346 93.4244 185.234 91.1056C185.196 90.4137 184.617 89.9836 183.944 90.1145C177.533 91.4609 171.121 92.7886 164.729 94.135C163.121 94.4716 161.533 94.8082 159.925 95.1448C158.355 95.4814 156.673 96.1733 155.29 95.0326C154.206 94.135 153.252 93.013 152.262 92.0219C151.084 90.8438 149.906 89.6844 148.71 88.525C144.28 84.2241 139.794 79.9044 135.028 75.9774C131.215 72.8359 127.121 69.8065 122.131 69.0585C117.103 68.3292 112.019 68.7593 106.953 68.9276C105.645 68.965 105.645 71.0033 106.953 70.9659V70.9472Z" fill="black"/>
<path d="M127.495 88.5624C127.234 93.574 127.813 98.5668 127.757 103.578C127.682 110.123 125.963 116.406 123.682 122.521C123.234 123.755 125.196 124.279 125.645 123.064C127.944 116.874 129.682 110.46 129.776 103.821C129.85 98.7351 129.252 93.6675 129.514 88.5811C129.589 87.2721 127.551 87.2721 127.477 88.5811L127.495 88.5624Z" fill="black"/>
<path d="M108 150.01C106.542 153.226 108.28 157.266 109.234 160.388C110.206 163.605 112.037 168.86 107.776 170.636C105.439 171.608 102.617 171.908 100.112 172.132C97.4018 172.375 94.6728 172.375 91.9439 172.225C86.2055 171.926 80.5233 170.973 74.8784 169.851C68.8411 168.654 62.8411 167.251 56.785 166.167C56.9906 166.672 57.1962 167.158 57.4018 167.663C59.7943 162.651 61.9439 157.546 63.1962 152.123C64.4485 146.7 65.1775 141.146 66.3177 135.686C66.5794 134.414 64.6168 133.853 64.3551 135.144C63.2336 140.529 62.5046 145.971 61.2897 151.338C60.0934 156.686 58.0186 161.716 55.6448 166.634C55.3831 167.177 55.5513 167.999 56.2616 168.13C67.7196 170.169 78.9906 173.347 90.6355 174.17C96.1121 174.563 101.757 174.432 107.084 172.992C109.607 172.319 111.402 170.823 112.28 168.299C112.822 166.728 112.523 164.933 112.187 163.362C111.682 161.08 110.878 158.874 110.262 156.63C109.813 155.003 109.028 152.684 109.776 151.02C110.318 149.842 108.561 148.795 108.019 149.991L108 150.01Z" fill="black"/>
<path d="M157.551 71.5643L200.318 58.998C203.608 58.0256 206.916 60.4192 207.047 63.8225L208.355 96.3602C208.449 98.7725 206.897 100.942 204.579 101.615L161.813 114.181C158.523 115.154 155.215 112.76 155.084 109.357L153.776 76.8189C153.682 74.4066 155.234 72.2375 157.551 71.5643Z" fill="white"/>
<path d="M158.673 115.191L117.29 127.365C116.598 125.027 117.944 122.577 120.28 121.886L155.72 111.47L158.692 115.191H158.673Z" fill="white"/>
<path d="M157.551 71.5643L200.318 58.998C203.607 58.0256 206.916 60.4192 207.047 63.8225L208.355 96.3602C208.449 98.7725 206.897 100.942 204.579 101.615L161.813 114.181C158.523 115.154 155.215 112.76 155.084 109.357L153.776 76.8189C153.682 74.4066 155.234 72.2375 157.551 71.5643Z" fill="white"/>
<path d="M157.813 72.5367C162.15 71.2651 166.505 69.9748 170.841 68.7032C178.243 66.534 185.664 64.3461 193.065 62.1769C195.29 61.5225 197.495 60.868 199.72 60.2135C200.206 60.0639 200.71 59.8956 201.196 59.8208C203.701 59.4655 205.85 61.3916 206.019 63.8412C206.411 69.5821 206.486 75.3416 206.71 81.0825C206.86 84.7102 207.009 88.3567 207.14 91.9845C207.178 93.1065 207.234 94.2285 207.271 95.3505C207.308 96.2107 207.383 97.0521 207.103 97.8749C206.318 100.231 204.112 100.661 202.056 101.26C199.346 102.064 196.617 102.849 193.907 103.653C186.43 105.86 178.935 108.048 171.458 110.254C168.804 111.04 166.168 111.806 163.514 112.592C161.29 113.246 158.953 113.994 157.121 111.881C155.738 110.273 156.037 107.655 155.944 105.673L155.514 95.0887C155.271 89.0486 154.972 82.9899 154.785 76.9498C154.729 74.9115 155.832 73.1725 157.794 72.5367C159.028 72.1253 158.505 70.1618 157.252 70.5732C154.523 71.4708 152.692 73.9017 152.729 76.8002C152.729 77.3238 152.766 77.8287 152.785 78.3523C152.916 81.55 153.047 84.7476 153.178 87.9453C153.458 94.8643 153.738 101.783 154 108.683C154.056 109.955 154.224 111.171 154.878 112.293C156.299 114.705 159.178 115.845 161.888 115.172C163.29 114.817 164.673 114.368 166.056 113.957C173.346 111.806 180.654 109.675 187.944 107.524C193.477 105.897 199.009 104.308 204.523 102.643C207.645 101.708 209.421 99.1091 209.29 95.8741C209.196 93.2748 209.084 90.6755 208.972 88.0949C208.673 80.6337 208.374 73.1912 208.075 65.7299C208.056 65.0941 208.037 64.4583 208 63.8225C207.85 61.3355 206.411 59.1289 204.056 58.1939C201.813 57.2963 199.738 58.063 197.589 58.6988L176.972 64.7575L158.262 70.2553C157.907 70.3488 157.57 70.461 157.215 70.5545C155.963 70.9285 156.486 72.8919 157.757 72.518L157.813 72.5367Z" fill="black"/>
<path d="M158.673 115.191L117.29 127.365C116.598 125.027 117.944 122.577 120.28 121.886L155.72 111.47L158.692 115.191H158.673Z" fill="white"/>
<path d="M158.392 114.2L144.43 118.314C137.009 120.502 129.57 122.69 122.149 124.859C120.43 125.364 118.729 125.869 117.009 126.373C117.421 126.617 117.85 126.841 118.262 127.084C117.701 125.195 118.841 123.419 120.635 122.821C121.196 122.634 121.776 122.484 122.336 122.316C124.972 121.53 127.626 120.764 130.262 119.978C137.159 117.959 144.056 115.92 150.935 113.901C152.598 113.414 154.28 112.91 155.944 112.423C155.607 112.33 155.29 112.255 154.953 112.162L157.925 115.883C158.748 116.911 160.168 115.453 159.364 114.443L156.392 110.722C156.168 110.441 155.72 110.366 155.402 110.46C150.617 111.862 145.813 113.284 141.028 114.686C134.505 116.593 128 118.52 121.477 120.427C120.972 120.577 120.467 120.707 119.963 120.876C117.159 121.792 115.402 124.709 116.262 127.608C116.411 128.131 116.972 128.487 117.514 128.318C122.168 126.953 126.822 125.588 131.477 124.204C138.897 122.016 146.336 119.829 153.757 117.659C155.477 117.154 157.178 116.65 158.897 116.145C160.15 115.771 159.626 113.807 158.355 114.181L158.392 114.2Z" fill="black"/>
<path d="M180.542 86.3932C182.318 84.4672 184.093 82.5411 185.869 80.615L188.168 88.0762L180.561 86.4119L180.542 86.3932Z" fill="white"/>
<path d="M181.252 87.1038C183.028 85.1778 184.804 83.2517 186.579 81.3256C186.019 81.176 185.439 81.0264 184.878 80.8768C185.551 83.046 186.224 85.2339 186.897 87.403C186.991 87.7209 187.084 88.0201 187.177 88.338C187.589 87.9266 188.019 87.4965 188.43 87.0851L181.757 85.6265L180.804 85.4208C180.262 85.3086 179.701 85.5891 179.551 86.1314C179.42 86.6363 179.72 87.2721 180.262 87.3843C182.486 87.8705 184.71 88.3567 186.934 88.8429C187.252 88.9177 187.57 88.9738 187.888 89.0486C188.617 89.2169 189.383 88.5811 189.14 87.7957C188.467 85.6265 187.794 83.4387 187.121 81.2695C187.028 80.9516 186.934 80.6524 186.841 80.3345C186.617 79.6239 185.682 79.306 185.14 79.8857C183.364 81.8118 181.589 83.7379 179.813 85.6639C179.439 86.0753 179.42 86.7111 179.813 87.1038C180.187 87.4778 180.878 87.5152 181.252 87.1038Z" fill="black"/>
<path d="M199.271 63.7851C200.785 63.5046 202.318 65.0941 202.019 66.6088L199.271 63.7851Z" fill="white"/>
<path d="M199.551 64.7575C199.551 64.7575 199.608 64.7575 199.626 64.7575L199.365 64.7949C199.551 64.7762 199.72 64.7762 199.907 64.7949C199.813 64.7949 199.72 64.7762 199.645 64.7575C199.85 64.7949 200.037 64.8323 200.224 64.9258L199.981 64.8323C200.187 64.9258 200.374 65.038 200.542 65.1689C200.467 65.1128 200.411 65.0567 200.336 65.0006C200.523 65.1502 200.692 65.3185 200.822 65.4868C200.766 65.412 200.71 65.3559 200.654 65.2811C200.785 65.4494 200.897 65.6364 200.991 65.8421L200.897 65.599C200.972 65.786 201.028 65.9917 201.065 66.1787L201.028 65.9169C201.047 66.1039 201.047 66.2722 201.028 66.4592L201.065 66.1974C201.065 66.1974 201.065 66.2909 201.047 66.347C200.991 66.6275 201.009 66.8893 201.14 67.1324C201.271 67.3381 201.514 67.5438 201.757 67.5999C202.019 67.656 202.318 67.6373 202.542 67.5064C202.748 67.3755 202.953 67.1511 203.009 66.8893C203.122 66.3283 203.122 65.7486 202.916 65.2063C202.729 64.6827 202.449 64.2152 202.056 63.8225C201.664 63.4111 201.196 63.1493 200.673 62.9436C200.131 62.7379 199.57 62.7379 199.009 62.8314C198.766 62.8688 198.523 63.0932 198.393 63.2989C198.262 63.5233 198.206 63.8412 198.299 64.0843C198.374 64.3274 198.523 64.5705 198.766 64.7014C199.028 64.8323 199.271 64.851 199.551 64.7949V64.7575Z" fill="black"/>
<path d="M160.635 103.242C160.093 104.457 160.374 105.991 161.346 106.907C162.299 107.823 163.85 108.048 165.028 107.449L160.635 103.242Z" fill="white"/>
<path d="M159.757 102.737C159.477 103.373 159.308 104.046 159.346 104.756C159.383 105.448 159.57 106.122 159.906 106.739C160.617 107.992 161.906 108.702 163.308 108.814C164.075 108.87 164.841 108.702 165.533 108.347C166.019 108.104 166.187 107.393 165.906 106.944C165.589 106.458 165.028 106.327 164.505 106.57C164.467 106.589 164.43 106.608 164.392 106.626C164.542 106.57 164.561 106.552 164.467 106.589C164.392 106.608 164.336 106.645 164.262 106.664C164.187 106.683 164.112 106.701 164.037 106.72C164 106.72 163.738 106.757 163.925 106.739C164.112 106.739 163.832 106.739 163.813 106.739C163.72 106.739 163.645 106.739 163.551 106.739C163.495 106.739 163.421 106.739 163.364 106.739C163.327 106.739 163.271 106.739 163.234 106.739C163.402 106.757 163.421 106.757 163.308 106.739C163.159 106.701 163.009 106.683 162.878 106.645C162.822 106.626 162.766 106.608 162.692 106.589C162.598 106.552 162.617 106.552 162.766 106.626C162.729 106.626 162.692 106.589 162.654 106.57C162.523 106.514 162.392 106.439 162.262 106.346C162.056 106.215 162.262 106.309 162.262 106.346C162.262 106.346 162.093 106.196 162.075 106.178C162.019 106.122 161.963 106.065 161.925 106.009C161.906 105.991 161.888 105.953 161.869 105.935C161.794 105.86 161.813 105.878 161.906 105.991C161.906 105.972 161.682 105.654 161.663 105.617C161.645 105.579 161.589 105.411 161.551 105.392C161.551 105.43 161.589 105.467 161.607 105.523C161.607 105.486 161.57 105.448 161.57 105.411C161.514 105.261 161.477 105.13 161.458 104.981C161.458 104.887 161.439 104.626 161.458 104.943C161.458 104.887 161.458 104.813 161.458 104.756C161.458 104.607 161.458 104.457 161.458 104.308C161.458 104.27 161.458 104.214 161.458 104.177C161.439 104.345 161.439 104.364 161.458 104.252C161.458 104.195 161.477 104.121 161.495 104.065C161.514 103.99 161.533 103.896 161.57 103.821C161.589 103.765 161.701 103.485 161.57 103.765C161.682 103.504 161.757 103.26 161.663 102.98C161.607 102.737 161.421 102.494 161.196 102.363C160.748 102.138 160.037 102.213 159.794 102.737H159.757Z" fill="black"/>
<path d="M184.019 120.259C180.785 120.745 177.421 120.165 174.654 118.426C171.514 118.707 163.72 119.754 160.636 119.081C161.365 117.566 167.252 115.097 168.785 114.48C170.056 113.976 171.477 113.826 172.617 113.097C175.309 111.395 175.234 107.543 176.337 104.569C177.009 102.737 178.243 101.091 179.813 99.9319C181.551 103.167 181.981 107.075 181.009 110.61C181.738 106.29 182.953 102.064 184.654 98.0058C185.14 96.8464 185.963 95.5188 187.215 95.6123C188.654 100.212 188.094 105.411 185.664 109.581C186.692 105.972 187.832 102.382 189.047 98.8286C189.402 97.8001 190.374 96.5285 191.29 97.1269C191.738 97.4261 191.832 98.0245 191.869 98.5668C192.168 102.699 191.514 106.907 190 110.759C190.523 108.01 191.439 105.317 192.692 102.812C193.066 102.082 194.112 101.334 194.505 102.045C194.692 103.99 194.505 106.776 194.28 109.226C193.72 114.78 189.552 119.455 184.019 120.277V120.259Z" fill="white"/>
<path d="M183.738 119.286C181.308 119.623 178.71 119.342 176.486 118.276C176 118.052 175.458 117.566 174.935 117.454C174.598 117.379 174.224 117.454 173.869 117.491C173.084 117.566 172.299 117.659 171.495 117.734C169.589 117.94 167.682 118.127 165.776 118.22C164.168 118.314 162.486 118.426 160.897 118.108C161.103 118.613 161.308 119.099 161.514 119.604C161.869 118.95 162.766 118.52 163.383 118.164C164.318 117.622 165.29 117.136 166.262 116.687C167.103 116.294 167.963 115.92 168.822 115.565C170.075 115.06 171.439 114.854 172.654 114.256C174.991 113.097 175.851 110.628 176.411 108.253C177.103 105.374 177.851 102.718 180.336 100.811C179.869 100.68 179.402 100.568 178.935 100.437C180.523 103.504 180.897 107 180.019 110.329C180.673 110.516 181.327 110.684 181.981 110.871C182.449 108.16 183.084 105.467 183.944 102.849C184.355 101.578 184.804 100.306 185.308 99.053C185.626 98.2489 186.131 96.6407 187.196 96.6407C186.86 96.3977 186.542 96.1359 186.206 95.8928C187.533 100.306 187.028 105.056 184.766 109.076C185.383 109.338 186 109.6 186.636 109.862C187.271 107.636 187.944 105.43 188.654 103.223C188.972 102.251 189.271 101.297 189.608 100.343C189.701 100.044 190.523 97.8188 190.748 98.0245C190.972 98.2302 190.879 99.1278 190.897 99.3896C190.916 99.9506 190.935 100.493 190.916 101.054C190.916 102.026 190.841 102.98 190.71 103.952C190.43 106.196 189.832 108.384 189.009 110.497C189.664 110.684 190.318 110.853 190.972 111.04C191.271 109.525 191.664 108.048 192.168 106.589C192.43 105.86 192.71 105.13 193.047 104.42C193.215 104.065 193.346 103.653 193.57 103.335C193.626 103.242 193.682 103.167 193.738 103.073C194.056 102.924 194.056 102.812 193.776 102.774C193.682 102.531 193.57 102.288 193.477 102.045C193.664 104.102 193.514 106.178 193.346 108.235C193.178 110.086 192.804 111.844 191.925 113.489C190.224 116.612 187.252 118.707 183.757 119.268C182.467 119.473 183.009 121.437 184.299 121.231C190.636 120.203 194.785 114.798 195.365 108.609C195.533 106.739 195.682 104.869 195.608 102.999C195.589 102.326 195.626 101.596 195.084 101.11C194.579 100.68 193.925 100.624 193.327 100.867C191.832 101.465 191.29 103.335 190.729 104.7C189.981 106.57 189.421 108.496 189.028 110.46C188.766 111.769 190.523 112.218 190.991 111.002C192.019 108.328 192.673 105.542 192.897 102.681C193.009 101.222 193.047 99.7262 192.897 98.2676C192.785 97.3139 192.411 96.3976 191.458 96.0611C188.991 95.1635 188 98.7912 187.458 100.399C186.486 103.354 185.551 106.327 184.71 109.301C184.393 110.404 186 111.096 186.579 110.086C189.122 105.598 189.72 100.269 188.224 95.3318C188.093 94.9017 187.701 94.5838 187.234 94.5838C184.393 94.5838 183.477 98.1367 182.692 100.287C181.514 103.541 180.636 106.907 180.056 110.31C179.832 111.582 181.682 112.143 182.019 110.853C183.047 106.982 182.579 102.943 180.729 99.3896C180.505 98.9408 179.757 98.6977 179.327 99.0156C176.991 100.811 175.589 103.167 174.86 106.009C174.187 108.683 173.888 111.788 170.86 112.741C168.71 113.433 166.692 114.2 164.654 115.172C163.065 115.939 160.692 116.893 159.776 118.538C159.477 119.081 159.72 119.903 160.393 120.034C164.019 120.764 168.019 120.109 171.664 119.716C172.449 119.642 173.308 119.455 174.094 119.455C174.935 119.455 175.888 120.203 176.748 120.52C179.178 121.418 181.757 121.549 184.299 121.194C185.589 121.025 185.047 119.062 183.757 119.23L183.738 119.286Z" fill="black"/>
<path d="M89.2523 10.9768C85.3832 15.8014 80 19.3917 74.0374 21.0934C69.8505 22.2902 65.4206 22.552 61.3645 24.1228C52.6729 27.4888 47.1402 36.2777 44.5794 45.2349C42.8785 51.2002 42.0374 57.7825 37.9065 62.4388C34.4299 66.347 29.1776 68.1796 25.1028 71.4708C20.8785 74.8742 17.9813 79.9044 17.1776 85.29C16.3551 90.7503 18.3551 97.2766 23.5327 99.1652C28.4112 100.942 34.2617 98.0246 38.8972 100.381C41.0093 101.465 42.4673 103.466 44.4299 104.794C50.1495 108.665 57.9065 105.71 63.7757 102.064C72.1682 96.8465 79.757 90.3389 86.2056 82.859C87.0093 81.924 87.8131 80.9329 88.0561 79.7361C88.2243 78.8572 88.0934 77.9596 87.9439 77.0807C87.1402 72.1066 86.1682 66.7958 82.6729 63.1494C80.8411 61.242 78.4486 59.9704 76.4112 58.2687C72.6542 55.1458 70.1682 50.5083 69.6448 45.6463L89.2523 10.9768Z" fill="black"/>
<path d="M99.7009 15.4461C94.542 11.9679 87.271 12.1362 82.2429 15.8014C80.8784 16.7925 79.8504 18.0828 78.6355 19.2421C77.0841 20.7381 75.2149 21.2243 73.1027 21.1682C71.2149 21.1121 69.3644 20.7381 67.4953 20.6072C65.8317 20.4763 64.1682 20.5137 62.5046 20.7007C56.0747 21.4487 49.9439 24.3659 45.3644 28.9287C39.9813 34.2768 38.0373 41.4201 35.514 48.3578C32.9345 55.4263 27.9065 64.1404 19.2336 63.8973C18.3551 63.8786 18.3551 65.225 19.2336 65.2624C25.8504 65.4494 31.1027 60.3818 34.1121 54.9401C37.7943 48.283 38.7476 40.4104 42.9532 33.9963C46.6355 28.3677 52.5794 24.3472 59.0841 22.7016C62.4485 21.8601 65.8504 21.7292 69.2897 22.1593C72.7476 22.5894 76.3551 23.0569 79.1962 20.5885C80.6728 19.2982 81.7943 17.7088 83.4392 16.6242C84.9532 15.6331 86.6355 14.9599 88.3925 14.6046C92.0373 13.8566 95.9065 14.5485 98.9906 16.6429C99.7196 17.1291 100.392 15.951 99.6822 15.4648L99.7009 15.4461Z" fill="black"/>
<path d="M122.486 24.9643C121.738 32.4629 127.215 39.7746 124.785 47.2171C122.972 52.8083 115.196 53.949 114.168 59.8956C114.019 60.7558 115.327 61.1111 115.477 60.2509C116 57.2402 118.729 55.5572 120.991 53.8555C123.346 52.0977 125.346 50.153 126.206 47.2358C128.411 39.6624 123.103 32.519 123.85 24.9456C123.944 24.0667 122.579 24.0854 122.486 24.9456V24.9643Z" fill="black"/>
<path d="M85.4392 15.9884C86.5794 13.7631 86.1121 11.0142 85.1214 8.71414C82.8598 3.45948 77.3457 -0.71058 71.7009 0.0935126C65.8504 0.935005 61.5887 7.31165 62.5981 13.146C63.6074 18.9616 69.327 23.4496 75.2336 23.5244C79.813 23.5805 84.8411 20.4202 84.9345 15.8388L85.4392 15.9884Z" fill="black"/>
<path d="M179.907 120.146C178.43 119.978 176.953 121.063 175.72 121.736C174.336 122.465 172.953 123.232 171.57 123.999C168.785 125.569 166.037 127.234 163.346 128.954C162.243 129.665 163.271 131.422 164.374 130.712C166.897 129.104 169.458 127.533 172.075 126.056C173.364 125.326 174.654 124.616 175.944 123.924C176.579 123.587 177.196 123.251 177.832 122.933C178.486 122.596 179.159 122.11 179.907 122.203C181.215 122.353 181.196 120.315 179.907 120.165V120.146Z" fill="black"/>
<path d="M2.61686 445H208.523C212.019 445 212.019 439.558 208.523 439.558H2.61686C-0.87847 439.558 -0.87847 445 2.61686 445Z" fill="black"/>
<path d="M171.832 188.176C171.065 187.148 169.794 187.129 168.785 187.821C167.645 188.625 167.178 189.747 167.084 191.112C166.991 192.309 167.196 193.992 166.112 194.834C165.121 195.6 163.607 195.395 162.467 195.226C162.093 195.17 161.738 195.32 161.626 195.694C161.533 196.012 161.738 196.479 162.093 196.535C163.383 196.722 164.785 196.891 166.037 196.404C167.308 195.899 168.037 194.796 168.262 193.468C168.374 192.777 168.374 192.085 168.43 191.393C168.467 190.851 168.486 190.308 168.748 189.841C169.009 189.392 170.131 188.158 170.673 188.868C170.897 189.168 171.252 189.317 171.607 189.111C171.907 188.943 172.075 188.476 171.85 188.176H171.832Z" fill="white"/>
<path d="M71.514 241.434C71.0467 240.274 72.486 239.414 73.4953 239.395C74.8972 239.377 76.2243 240.368 77.4579 240.929C79.4205 241.808 82.5047 241.92 83.3271 239.414C83.6075 238.572 82.2804 238.217 82.0187 239.059C81.6635 240.125 80.2617 240.293 79.3084 240.125C77.9065 239.881 76.6729 238.946 75.3645 238.423C74.0747 237.918 72.6729 237.862 71.4766 238.647C70.4486 239.32 69.7009 240.536 70.1869 241.789C70.5046 242.593 71.8131 242.238 71.4953 241.434H71.514Z" fill="white"/>
<path d="M109.421 59.3346C109.29 59.3346 109.178 59.3346 109.047 59.3346C108.991 59.3346 108.935 59.3346 108.879 59.3346C109.009 59.3346 108.785 59.3159 108.785 59.3159C108.673 59.2972 108.561 59.2598 108.449 59.2224C108.393 59.2224 108.337 59.185 108.28 59.1663C108.243 59.1663 108.131 59.1102 108.224 59.1476C108 59.0354 107.776 58.9232 107.57 58.7736C107.57 58.7736 107.421 58.6614 107.477 58.6988C107.514 58.7362 107.402 58.624 107.383 58.624C107.29 58.5492 107.196 58.4557 107.103 58.3622C107.028 58.2687 106.935 58.1939 106.86 58.1004C106.822 58.063 106.785 58.0069 106.748 57.9695C106.804 58.0443 106.673 57.876 106.692 57.876C106.542 57.6703 106.411 57.4459 106.299 57.2215C106.056 56.7727 105.925 56.3987 105.757 55.8751C105.383 56.0995 105.009 56.3239 104.617 56.5296C105.832 57.8386 107.645 58.5866 109.439 58.4931C109.215 58.2687 108.991 58.0443 108.766 57.8199C108.766 58.5492 108.766 59.2972 108.766 60.0265C108.766 60.3818 109.084 60.7184 109.439 60.6997C109.813 60.6997 110.112 60.4005 110.112 60.0265C110.112 59.2972 110.112 58.5492 110.112 57.8199C110.112 57.4646 109.794 57.128 109.439 57.1467C109.252 57.1467 109.047 57.1467 108.86 57.1467C108.766 57.1467 108.673 57.1467 108.579 57.128C108.579 57.128 108.43 57.128 108.505 57.128C108.561 57.128 108.43 57.128 108.43 57.128C108.037 57.0532 107.664 56.9597 107.308 56.8101C107.196 56.7727 107.383 56.8475 107.271 56.8101C107.234 56.7914 107.178 56.7727 107.14 56.754C107.065 56.7166 106.972 56.6792 106.897 56.6231C106.729 56.5296 106.561 56.4361 106.393 56.3239C106.318 56.2678 106.243 56.2117 106.168 56.1556C106.224 56.193 106.168 56.1556 106.15 56.1369C106.112 56.0995 106.075 56.0808 106.037 56.0434C105.888 55.9125 105.738 55.7629 105.589 55.6133C105.122 55.1271 104.262 55.632 104.449 56.2678C104.804 57.4272 105.327 58.5492 106.206 59.4094C107.047 60.2509 108.243 60.8119 109.439 60.7558C109.794 60.7558 110.131 60.4566 110.112 60.0826C110.112 59.7273 109.813 59.3907 109.439 59.4094L109.421 59.3346Z" fill="black"/>
<path d="M105.122 23.9919C104 31.2287 98.972 37.6615 92.1122 40.3169C91.3085 40.6347 91.6636 41.9437 92.4674 41.6258C99.7384 38.8022 105.234 32.0889 106.43 24.3472C106.561 23.487 105.252 23.1317 105.122 23.9919Z" fill="black"/>
<path d="M90.9346 60.2883C94.8599 65.0567 95.8318 72.0692 93.3645 77.7165C92.9346 78.7076 92.3926 79.68 91.6262 80.4654C91.0842 81.0264 90.4487 81.4752 89.7944 81.8679C86.673 83.7192 82.9533 84.2241 79.3458 84.7103C78.243 84.8599 76.9533 84.9534 76.1496 84.168C75.4954 83.5322 75.4019 82.5598 75.3645 81.6622C75.1402 76.1457 76.1496 70.5358 75.0094 65.1315L90.9346 60.2883Z" fill="black"/>
</g>
<defs>
<clipPath id="clip0_2_2844">
<rect width="278" height="445" fill="white"/>
</clipPath>
</defs>
</svg>
